<?xml  version="1.0" encoding="UTF-8"?>
<!DOCTYPE svg PUBLIC "-//W3C//DTD SVG 1.0//EN" "http://www.w3.org/TR/2001/REC-SVG-20010904/DTD/svg10.dtd" >
<svg xmlns="http://www.w3.org/2000/svg" >
<metadata>
<version>1.0</version>
<id><![CDATA[Typo American W01]]></id>
<vendor>Monotype Imaging Inc.</vendor>
<credits>
<name>Fonts.com WebFonts</name>
<URL>http://webfonts.fonts.com</URL>
<role>Home of the Web fonts</role>
</credits>
<license>
<URL>http://webfonts.fonts.com/Legal</URL>
</license>
<copyright><![CDATA[Copyright © 2004 - 2009 Linotype GmbH, www.linotype.com. All rights reserved. This font software may not be reproduced, modified, disclosed or transferred without the express written approval of Linotype GmbH. Linotype Typo American is a trademark of Linotype GmbH and may be registered in certain jurisdictions. This typeface is original artwork of Mark Stanczyk. The design may be protected in certain jurisdictions.]]></copyright>
<trademark><![CDATA[Linotype Typo American is a trademark of Linotype GmbH and may be registered in certain jurisdictions.]]></trademark>
<licensee>
<name></name>
</licensee>
</metadata>
<defs >
<font horiz-adv-x="638" id="0ee1b8c5-eefd-4143-a74f-74c9a5b1c63b">
<font-face font-family="" panose-1="2 0 5 6 5 0 0 2 0 4" ascent="1012" descent="-336" units-per-em="1000" alphabetic="0">
</font-face>
<missing-glyph horiz-adv-x="0" />

<glyph unicode="&#xA;" />
<glyph unicode="&#xD;" horiz-adv-x="0" />
<glyph unicode=" " horiz-adv-x="449" />
<glyph unicode="!" horiz-adv-x="420" d="M130 517Q124 525 121 534T114 552L117 563Q117 564 115 566Q113 568 112 570T109 575Q113 580 115 584T118 590Q115 595 113 600T108 613Q109 618 110 621T114 626V632Q114 637 113 644T111 657Q111 665 114 683L115 684V696Q117 699 117 701T120 707Q120 709 132 720Q174 753 202 753Q225 753 239 742Q249 734 251 736L261 730Q264 725 267 720T278 706L276 696L272 687Q272 681 279 674Q282 671 282 664Q282 659 282 647T281 629Q281 617 281 609T279 598Q278 594 274 585T269 570Q269 558 275 554Q275 549 266 513Q265 509 267 506T269 500Q269 492 261 481Q252 470 252 468Q252 463 257 455T262 441Q262 439 259 432T256 420Q256 418 257 416T259 410V408Q259 403 257 398T251 384Q240 370 240 366Q240 362 243 357T251 341Q251 329 245 317Q241 309 240 303T239 292Q240 291 240 289T242 285Q244 276 249 262Q240 228 193 228Q158 228 158 251Q158 252 158 257T161 272Q156 280 148 300Q148 303 149 310T150 321Q150 359 140 386Q131 402 131 418Q131 422 133 432T135 446L128 480L130 494Q128 495 128 496T124 500Q125 503 126 507T130 517ZM125 108Q133 108 167 128Q196 150 216 150Q251 150 276 118Q300 89 300 72Q300 39 274 19Q251 0 215 0Q201 0 184 4T143 20Q98 39 98 69Q98 81 107 90T125 108Z"  />
<glyph unicode="&quot;" horiz-adv-x="608" d="M417 416Q418 424 419 428T420 436Q415 445 411 451T404 461Q392 473 383 479T366 490Q335 512 335 546Q335 579 338 599Q373 656 437 667L483 675Q522 675 532 658Q541 646 547 637T558 622Q570 602 575 587T582 559Q578 539 576 528T574 513Q574 490 570 480Q560 457 554 440T542 410Q539 405 537 401T532 393L531 392Q522 378 516 368T505 350Q500 345 496 342T487 336Q471 317 455 303T423 279Q394 262 384 262Q364 262 355 287Q355 305 375 330Q384 340 392 348T408 366Q413 378 413 387V406Q413 408 413 411T415 419L417 416ZM130 428Q134 436 135 441T138 452L132 464Q124 472 118 477T109 488Q90 505 80 512T67 523L51 596Q47 611 97 661Q155 690 199 690Q236 690 247 674Q252 666 255 663T263 655Q276 638 285 618T300 573Q297 563 295 552T290 527Q289 517 288 509T286 495Q261 440 246 409T221 366L185 330Q162 307 156 307Q110 278 100 278Q71 278 71 302Q71 324 102 356Q132 386 132 396Q128 404 127 410T125 420Q126 422 126 423T130 428Z"  />
<glyph unicode="#" horiz-adv-x="831" d="M374 772H488L410 553H544L624 772H736L658 553H808L768 449H622L575 318H729L691 215H539L459 -6H347L425 215H291L212 -6H98L177 215H24L62 318H215L261 449H101L140 553H297L374 772ZM372 449L324 317H464L510 449H372Z"  />
<glyph unicode="$" horiz-adv-x="626" d="M262 681Q262 689 263 698T265 720Q260 737 258 746T255 753Q255 757 258 775Q273 838 323 838L360 814Q370 791 370 775Q370 770 368 761T363 740Q363 739 362 738T361 736Q361 728 365 715T369 694Q369 684 368 678T367 671Q384 661 402 652T439 634Q444 634 451 638Q456 648 462 658T480 668Q489 668 510 658Q536 649 536 621Q536 613 535 602T534 583Q534 580 540 549L524 497Q518 469 481 469Q478 469 462 477Q450 485 448 491Q445 496 441 499T432 511Q420 528 405 544T370 577Q370 548 370 533T369 510Q367 507 364 491Q360 479 360 471Q360 460 369 442Q377 424 377 412Q391 414 399 415T410 416Q414 416 436 399Q446 390 460 379T492 353Q494 351 499 347T514 334Q536 320 536 311Q536 308 534 302T531 292Q531 294 534 289T543 271L554 248V236Q554 231 552 218T549 200Q549 187 549 176T550 153Q549 136 546 126T537 107L504 63Q461 10 367 10Q366 2 365 -3T364 -16V-17Q364 -19 374 -75Q372 -87 365 -100T343 -131Q331 -135 320 -135Q305 -135 292 -125Q285 -106 285 -84Q285 -79 286 -69T287 -55Q287 -48 278 -33Q272 -18 272 14V19Q260 24 241 35T196 65Q188 63 182 63T163 59Q159 58 154 56T137 48Q118 40 111 40Q92 40 92 63Q92 68 94 76T96 89Q96 93 96 97T94 109Q91 125 91 125Q91 133 94 144T98 164Q98 172 95 185T91 203Q91 214 96 228L114 238Q147 238 202 166Q210 160 217 154T235 141Q239 136 247 131T265 120Q263 131 262 137T261 145Q261 150 264 170Q267 180 267 187T266 199Q279 218 279 245Q279 259 275 278T271 305Q271 317 271 325T272 344Q256 346 241 347T215 353Q170 365 154 390Q151 390 141 408Q136 416 131 420T121 428Q91 444 85 531Q86 543 88 560T99 599Q102 606 120 622Q134 640 141 642L209 672Q212 672 224 675T262 681ZM376 327Q373 318 371 311T367 298Q366 295 366 293T364 288Q364 281 369 266Q374 256 374 243Q374 245 370 225Q369 222 369 200Q369 195 372 189Q373 177 373 170T374 160Q374 157 373 151T369 132Q365 124 364 117T363 105Q363 93 369 88H370Q372 89 379 94T403 109Q442 133 454 173Q462 200 462 255Q462 298 376 327ZM269 455Q269 460 269 467T266 487Q264 498 263 506T262 520Q262 523 263 529T266 543Q270 551 270 557T269 566Q267 568 261 599Q257 594 254 589T245 579Q241 576 239 575T228 570Q218 565 171 527L166 513Q169 508 171 501T179 484Q194 442 196 442Q200 437 242 420Q247 418 254 417T269 416V455Z"  />
<glyph unicode="%" horiz-adv-x="711" d="M472 851Q472 858 518 910Q532 924 553 924Q613 924 613 851L611 840Q606 828 602 817T590 796Q587 793 584 789T577 779L557 723Q549 719 541 697Q531 670 512 627T461 526Q456 517 447 503T426 472Q420 461 420 439Q419 425 417 417T413 406Q410 401 407 395T397 376Q393 368 387 357T373 330Q364 316 353 297T324 248Q324 244 322 236T317 216Q312 208 306 198T292 173Q289 168 287 161T279 141Q273 105 233 60Q229 51 225 35T212 -1Q210 -8 205 -18T187 -46Q163 -79 158 -92Q154 -109 149 -125T135 -163Q103 -213 75 -213Q42 -213 33 -184Q35 -170 40 -156T53 -127Q57 -122 59 -117T66 -102Q68 -92 71 -78T79 -43Q89 -27 99 -6T121 43Q123 53 137 85Q140 93 144 107T154 138Q162 157 174 182T204 240Q210 247 215 261T229 297Q230 307 233 314T240 330Q246 343 254 358T275 395Q277 398 279 400T282 406Q282 409 284 416T289 435Q297 449 306 470T330 520Q330 530 334 541Q349 594 373 618Q379 622 382 629Q385 641 388 653T396 683Q399 687 403 691T413 703L431 742Q433 747 435 752T439 766Q444 774 449 784T462 808Q464 816 466 826T472 851ZM530 232Q545 229 562 225T599 215Q677 191 677 89Q677 78 672 62T654 26Q642 4 569 -10Q548 -15 537 -16T523 -17Q496 -17 456 19Q440 32 429 44T410 66Q402 77 402 94Q402 130 441 190Q446 193 453 197T472 210Q504 232 530 232ZM33 690Q95 752 148 752Q186 752 200 742Q218 730 265 667Q265 656 269 652Q273 644 274 638T275 622L262 575Q257 563 249 554T230 540Q222 532 213 525T189 508Q172 501 141 501Q125 501 116 502T101 505L71 510Q53 514 32 560L6 622Q12 653 33 690Z"  />
<glyph unicode="&amp;" horiz-adv-x="766" d="M399 29H395Q381 20 350 20Q336 14 317 14Q255 14 226 43Q209 60 191 79T156 118Q143 161 143 199Q143 209 144 226T154 268Q168 323 223 366Q282 412 291 439Q288 465 285 483T281 516Q276 527 273 538T268 560Q284 641 311 660Q316 665 321 668T330 674Q340 682 344 684T351 688Q380 697 387 696Q397 701 419 701Q443 701 469 674Q479 665 486 659T498 648Q508 621 513 598T523 554Q518 526 507 499T478 444Q475 438 472 433T468 422Q465 419 462 413T451 397Q438 383 438 370Q443 353 447 344T455 328Q458 324 464 318Q475 318 482 340Q499 360 511 374T536 397Q572 441 612 441Q615 441 616 439Q620 438 622 437T626 435Q630 433 633 432T638 430Q641 429 642 428Q656 424 667 423T691 419Q699 413 713 374Q721 356 719 350L711 323Q698 302 685 301Q677 301 670 300T652 295Q642 290 634 289T621 288Q612 288 600 292Q590 298 579 298Q569 292 569 284Q569 279 572 271T576 256Q576 251 572 240Q541 218 541 206Q541 198 542 191T544 174L583 120Q587 118 591 114T603 105Q619 94 622 94L638 101L677 157L691 177Q695 179 699 180T708 183Q740 183 740 150Q740 114 701 45L657 30Q561 30 537 56Q534 59 529 65T516 79Q499 94 492 94Q481 94 461 71Q434 41 402 30L399 29ZM294 101Q302 101 307 102Q314 106 315 106T328 105Q343 105 359 108T392 120Q429 138 429 170Q428 173 428 177T425 186Q420 199 416 206T408 222Q400 239 399 246Q393 261 392 265L372 285Q364 292 360 298T351 310Q343 314 340 316T331 323Q311 323 287 302Q266 286 255 277T239 264Q222 241 222 209Q222 156 243 150Q247 146 252 140T266 120Q281 101 294 101ZM389 501Q397 501 413 511Q424 521 426 536Q428 544 428 549T429 562Q433 581 433 585L429 599Q418 605 412 605Q398 605 384 588Q370 573 370 559V547Q370 501 389 501Z"  />
<glyph unicode="&apos;" horiz-adv-x="452" d="M192 402Q190 405 186 409T176 422Q167 433 150 448Q138 456 109 491Q106 499 102 510T89 537Q89 564 111 598Q121 609 131 622T151 648Q194 671 225 674Q226 672 229 672Q232 672 234 672T242 671L281 667Q297 662 314 648Q319 645 324 639T337 625Q340 620 343 613T351 596Q361 576 365 565T370 552Q370 536 348 458V454Q348 450 348 449T347 445Q346 437 312 386Q305 371 287 344Q284 333 256 301Q245 293 233 283T207 259Q204 258 198 257T183 252Q172 252 153 249Q149 249 147 249T144 248H140Q109 248 102 281Q110 293 115 302T125 320Q130 325 138 332T156 351Q159 357 166 365T186 390L192 402Z"  />
<glyph unicode="(" horiz-adv-x="380" d="M42 541Q42 559 89 579L98 589Q101 601 104 617T112 655Q112 668 125 694Q134 699 146 709T174 733Q179 741 186 754T206 783Q246 811 284 811Q288 807 293 806T304 801Q305 793 306 782T307 757Q307 737 266 684Q241 649 229 631T215 611Q211 603 208 595T200 575Q194 561 186 542T166 497Q164 485 163 470T158 433Q143 341 143 315Q143 307 144 289T145 262Q145 254 142 245T138 228Q138 223 140 215T145 192L168 99Q172 88 175 72T186 35L207 -12Q211 -17 212 -22T219 -33Q224 -46 259 -105Q287 -149 287 -181Q287 -233 246 -233Q218 -233 190 -202Q188 -196 181 -189Q176 -183 167 -175T145 -156Q140 -148 130 -135T102 -102Q78 -83 78 -53L81 -39Q77 -34 73 -27T60 -9Q52 -1 46 4T39 19Q39 27 40 39T42 59Q42 69 22 98Q1 125 1 158Q1 157 7 190Q7 199 10 211T19 240Q19 244 18 250T16 265Q13 273 13 279T13 291Q13 298 15 304T20 317Q23 325 25 329T27 336Q27 348 17 359Q13 374 13 395Q19 405 19 423Q19 431 14 449Q14 458 20 478Q23 486 27 497T36 524Q37 527 37 531T42 541Z"  />
<glyph unicode=")" horiz-adv-x="380" d="M288 423Q291 415 291 409T295 395Q295 364 289 359Q279 342 279 336Q279 335 287 317Q295 301 295 291Q295 296 293 283T288 240Q297 212 301 192T305 158Q305 127 285 98Q266 70 266 59Q266 51 267 39T269 19Q269 9 248 -9Q226 -25 226 -39Q226 -42 227 -46T229 -53Q229 -82 206 -102Q191 -113 176 -140Q170 -145 163 -156Q155 -161 146 -169T125 -189Q99 -233 60 -233Q20 -233 20 -181Q28 -161 30 -148T35 -130Q43 -118 54 -100T79 -55Q84 -50 89 -33Q94 -21 102 -5T121 35Q123 46 127 62T138 99Q150 124 155 147T161 192Q161 195 166 212L168 228Q166 237 165 243T163 255Q162 260 161 264Q161 272 162 289T164 315Q164 366 160 382Q157 396 154 407T150 431Q150 439 149 449T147 475Q147 491 117 556Q103 588 95 605T84 625Q70 645 50 673T3 744Q1 763 1 772T0 785Q0 811 24 811Q36 811 53 805Q72 797 81 794T94 789Q101 782 120 753Q122 746 132 733Q138 728 150 718T181 694Q185 686 188 677T196 655Q196 652 196 647T197 634Q201 626 203 616T210 589Q210 585 255 560Q263 556 268 536Q271 519 273 511T275 504Q294 469 294 449L288 423Z"  />
<glyph unicode="*" horiz-adv-x="629" d="M193 649Q191 654 176 674Q170 681 168 688T166 703L180 739Q201 755 223 755Q237 755 253 748T285 726Q319 696 340 696Q360 696 372 720Q422 770 454 770Q472 770 485 758T498 724Q498 702 459 657Q441 634 432 620T422 600Q422 583 452 583Q455 583 478 588Q488 590 495 591T508 592Q515 592 523 586Q531 585 541 584T569 579Q579 579 598 562Q599 557 599 554T600 546Q600 513 552 504Q504 495 490 495Q470 495 464 492L458 487Q459 485 461 478T465 459Q468 443 470 429T484 402Q498 388 498 366L490 340Q455 302 435 302Q418 302 408 320L390 347Q382 355 372 365T347 392Q337 408 323 408Q319 404 315 402T302 392Q292 366 272 350L230 320Q193 291 186 291Q170 291 163 323Q164 331 166 340T173 360Q176 368 179 379T187 408Q200 439 206 457T212 480Q207 492 163 492Q116 495 105 503Q53 514 53 541Q53 547 57 551T69 560Q82 566 96 566Q100 566 120 577Q138 590 143 592L173 589Q176 589 187 600Q187 608 188 613T190 624Q190 632 191 638T193 649Z"  />
<glyph unicode="+" horiz-adv-x="662" d="M323 634Q331 632 338 631T351 628Q358 625 372 608Q380 599 382 592T386 580Q386 551 389 526Q394 483 409 474Q412 472 416 470T426 464Q456 448 461 448Q467 448 475 448T494 449Q507 449 515 450T527 451Q537 446 548 435T573 410Q575 402 577 397T580 386Q580 353 511 337Q499 332 472 328Q466 328 453 329T431 331Q406 331 406 312Q407 308 408 303Q409 298 409 291T412 275Q406 238 374 173Q352 144 325 144Q309 144 287 161Q276 170 270 178T259 197Q254 214 248 278Q242 286 229 298T194 328Q192 330 189 330T181 331Q176 331 169 330T150 324Q130 318 124 318Q82 318 82 377Q84 387 85 398T89 420Q98 458 164 458Q173 458 190 457T215 456Q246 456 251 477Q253 488 255 504T261 543Q262 546 263 550T266 560Q270 573 273 586T279 611Q291 634 323 634Z"  />
<glyph unicode="&#x2c;" horiz-adv-x="573" d="M240 -27Q238 -16 206 12Q194 20 185 29T164 48Q159 57 153 72T137 108Q137 120 145 147Q165 203 220 230Q248 245 271 245Q272 245 277 244T291 242Q329 238 343 233Q367 222 384 196Q388 191 390 184T397 167Q407 149 412 134T418 108Q418 80 403 46Q396 29 395 16Q393 11 385 -3T360 -43Q359 -47 356 -52T350 -62Q348 -63 304 -128Q294 -131 282 -142T255 -170Q232 -180 187 -180Q150 -180 150 -148Q150 -129 171 -109Q188 -95 194 -88T204 -78Q212 -62 235 -39L240 -27Z"  />
<glyph unicode="-" horiz-adv-x="773" d="M599 331Q599 303 549 289Q532 297 528 299T516 301Q487 296 455 292T384 288L353 292Q332 305 318 305Q301 305 285 294Q273 294 257 292T219 287Q214 292 164 317Q149 326 143 360Q143 365 144 368T150 374T161 383T181 400Q197 418 204 418Q212 414 225 406T264 386H275Q295 386 312 394T336 402L344 399Q370 383 379 383Q384 383 396 390Q405 390 413 391T429 393Q434 392 438 392T448 392Q459 392 467 395Q475 370 495 370Q504 370 510 371T521 373T532 376T546 380Q553 380 562 376T579 365T593 349T599 331Z"  />
<glyph unicode="." horiz-adv-x="487" d="M124 168Q124 180 135 185T160 199Q185 219 212 230T251 242Q299 242 357 184Q363 177 366 170T371 156T374 142T380 128Q380 106 377 91L360 58Q319 -5 261 -20Q255 -20 250 -20T236 -19T214 -14T181 -4Q166 10 153 17T131 34T117 60T112 109Q112 126 115 140T124 168Z"  />
<glyph unicode="/" horiz-adv-x="491" d="M408 804Q468 804 468 746Q468 727 462 710T444 677Q436 669 431 660Q427 650 423 636T410 603Q408 600 405 594T396 577Q393 569 389 559T376 531Q368 515 353 484T314 405Q306 395 298 382T279 351Q277 336 272 314Q269 300 264 287T253 261L239 233Q236 229 234 222T226 206L189 151Q185 143 182 129T170 96Q162 87 155 72T137 36Q135 34 135 30T132 20Q127 2 116 -18T86 -60Q83 -66 81 -74T73 -94Q72 -99 71 -106T66 -122Q54 -143 41 -164T12 -212Q8 -228 3 -245T-12 -285Q-40 -336 -72 -336Q-98 -336 -114 -307Q-112 -295 -108 -281T-94 -249Q-86 -240 -81 -225Q-79 -215 -76 -201T-68 -166Q-62 -154 -54 -138T-35 -99Q-31 -94 -29 -85T-22 -63Q-14 -45 -8 -25T7 17Q12 34 25 59T59 120Q64 131 68 142T78 166Q83 182 86 193T92 210Q102 227 113 245T135 285Q139 293 142 304T150 333Q155 343 163 359T181 399Q197 465 228 497Q235 508 236 510Q239 533 249 562Q252 566 256 570T266 582Q272 596 280 616T301 662Q308 672 315 688Q317 696 319 706T325 730Q325 738 340 753Q376 804 408 804Z"  />
<glyph unicode="0" horiz-adv-x="687" d="M336 0Q329 0 314 3Q305 4 301 4T292 6H276Q265 7 253 11T226 24Q196 41 183 59Q180 64 176 70T164 86Q150 107 135 137T102 215Q100 222 94 233Q90 240 89 250T88 278Q88 281 89 288T94 308V331Q94 368 88 400Q91 408 93 418T101 442Q102 447 104 456T109 478Q111 486 113 494T121 514Q124 517 125 520T130 528Q138 545 143 559T163 586Q171 591 178 598T197 618Q233 654 238 655Q240 659 275 662Q290 664 297 665T302 667H367Q379 663 389 660T413 654Q434 647 452 639T484 619Q486 618 497 611Q502 605 508 599T523 580Q531 572 540 561T563 533Q563 529 575 504Q576 503 588 464Q590 459 592 453T596 438Q599 433 599 427T602 415L600 274Q597 265 594 253T585 223Q583 211 581 195T576 158Q576 151 560 135Q548 125 544 121T537 114Q532 104 525 91T507 60Q499 49 487 38T454 19Q442 14 421 9T370 0H336ZM341 58Q372 68 397 80T444 107Q447 115 455 126T475 153Q481 158 481 186Q481 203 491 222Q496 234 499 247T503 275Q503 289 503 302T504 330Q504 335 505 343T510 363Q514 382 514 399Q514 410 509 426T491 462Q489 466 486 470T478 480Q478 483 475 488T467 505Q463 513 455 524T432 552Q427 560 419 568T399 589Q368 604 348 606L343 602Q329 602 319 600T300 590Q290 582 281 576T262 562Q259 560 257 559T251 554Q247 553 239 546T217 527Q188 498 186 492Q186 484 185 475T181 451Q180 447 179 444T174 435Q163 404 163 367Q163 339 158 334Q158 329 159 324T163 310Q166 303 167 297T168 285V230Q168 193 179 179Q186 174 196 161Q212 138 229 105Q273 58 338 58H341Z"  />
<glyph unicode="1" horiz-adv-x="567" d="M72 657L68 668Q68 720 212 720Q224 720 229 720T252 719L281 717Q289 717 300 718T320 720H333Q336 720 340 720T348 719Q373 714 377 714Q392 719 403 719Q420 719 439 716T481 707Q540 692 540 668Q540 643 513 636Q501 635 491 635T468 632Q456 629 441 625T403 612Q402 611 398 609T389 600L373 547Q372 542 371 539T367 531Q366 523 365 511T360 481Q359 476 359 472T357 465Q357 461 357 457T359 445T361 428T364 400Q364 390 360 377V354Q360 344 357 331Q355 317 354 308T353 294Q353 289 355 278T357 262V249Q357 246 357 242T356 232Q354 227 354 223T354 215V202Q354 152 390 125Q399 123 410 122T436 121L485 109Q493 108 498 107T511 104Q524 97 524 82Q524 68 491 53Q469 42 432 36Q418 37 396 37T343 33Q288 46 281 46Q233 46 216 39Q196 40 163 45T82 59Q71 65 71 85Q71 118 102 118Q119 118 190 131Q198 132 207 134T228 143Q240 144 240 177Q240 182 239 190T232 209Q229 219 227 223T225 229Q225 232 226 238T230 252V269Q230 274 230 278T228 288L223 310Q223 318 226 328T229 346Q229 406 228 459T225 557Q225 565 224 576T220 603Q218 612 210 613Q204 616 192 613Q184 613 181 613T176 612Q159 612 148 622Q131 634 124 635Q121 635 120 635T115 636L72 657Z"  />
<glyph unicode="2" horiz-adv-x="540" d="M408 428Q411 438 413 451T415 484Q415 497 393 528Q375 560 365 569T344 575Q334 580 325 585T294 598H275Q247 598 216 576Q205 574 180 543Q172 534 167 526T154 505Q146 492 142 482T137 462Q135 456 133 449T127 431Q120 415 104 415Q92 415 73 449Q58 483 58 497Q58 510 82 560Q85 572 101 600Q125 643 236 667Q250 670 258 671T271 672L399 645Q405 645 428 626Q436 618 449 608T480 582Q485 565 492 548T507 510Q516 486 516 462Q516 431 472 357Q470 348 452 337Q437 328 433 323Q428 313 413 298Q405 295 395 289T373 275Q365 270 353 262T318 240Q310 237 302 231T281 217Q277 216 272 215T261 212Q245 209 222 186Q164 132 164 108L166 92L181 79Q186 78 194 76T215 71Q237 63 248 63Q256 63 269 65T304 71Q342 78 361 78Q367 78 372 78T397 76Q498 70 498 30Q496 25 492 19T480 3Q468 1 454 1T419 -3L397 -7Q383 -6 374 -6T361 -6Q353 -6 340 -6T305 -7Q287 -11 273 -11T251 -10Q238 -10 232 -7Q224 -6 220 -6T212 -4Q189 -4 167 -4T121 -3Q66 3 66 53Q66 64 76 111L82 144L94 173L99 193Q104 198 108 202T115 210Q125 222 138 235T173 266L181 271Q190 279 205 286T242 304Q250 312 261 320T287 338Q368 372 408 428Z"  />
<glyph unicode="3" horiz-adv-x="523" d="M323 467Q323 470 322 476T321 487Q318 491 316 495T310 505Q300 509 300 524Q297 539 297 547L287 560Q219 592 207 592Q199 592 186 590T164 588Q140 588 114 615L111 628Q111 637 120 660Q130 674 147 677L181 681Q198 683 205 684T212 685Q229 685 242 684T264 680Q265 677 279 672Q288 669 300 666T330 658Q333 657 338 654T353 642Q367 630 380 620T406 598Q412 586 420 562Q428 545 432 529T439 500Q439 496 439 492T442 480Q446 472 446 456Q443 448 439 437T426 409Q425 406 422 402T416 393Q400 363 400 331Q400 315 446 287Q450 281 455 273T469 251Q478 225 483 210T491 190Q496 168 498 127Q498 125 497 121T492 104Q488 90 484 76T477 45Q468 22 446 -7Q442 -11 429 -22T393 -56L370 -65Q357 -65 356 -68Q351 -68 341 -75Q340 -76 335 -79T320 -85Q299 -85 265 -94Q253 -102 239 -105T207 -108Q206 -108 199 -108T180 -107Q172 -107 150 -102L120 -96Q76 -64 76 -56Q76 -24 131 -19Q145 -22 157 -23T179 -29Q206 -24 221 -21T239 -17Q244 -17 255 -19T271 -22Q296 -22 301 -17Q324 1 346 30T395 102Q400 108 400 132Q400 151 370 210Q365 219 362 226T356 238Q352 241 344 245T320 253Q290 262 275 262Q272 262 267 261T258 259Q233 259 216 277T199 318Q199 322 202 331Q210 339 221 351T252 382Q280 382 321 449Q321 451 322 455T323 467Z"  />
<glyph unicode="4" horiz-adv-x="647" d="M79 196Q79 246 115 291Q119 296 122 301T131 314L138 338Q143 355 160 376Q170 387 177 395T187 410Q187 415 190 422T199 441Q204 452 207 460T215 471Q218 474 221 477T230 485Q237 492 240 498T246 511T250 522T256 531Q260 535 261 537T268 543Q271 555 277 568T292 600Q298 608 306 616T324 636Q332 648 344 664T374 703Q386 717 393 726T403 740Q413 749 423 754T445 762Q450 760 458 756T481 743Q504 716 504 670Q504 656 501 631Q499 619 498 610T497 595Q497 566 494 563Q498 555 498 510Q498 455 488 442Q492 434 492 382Q492 380 492 376T491 363Q488 340 486 325T484 300Q484 298 485 292T490 278Q492 268 493 261T492 251L504 235Q518 231 531 231T562 228Q596 224 596 192L592 174L572 154Q560 157 552 158T536 160Q481 160 481 130Q481 122 482 113T484 99V69Q484 65 485 63Q486 62 490 49L492 24Q469 -35 442 -35Q384 -35 384 9Q384 13 383 17Q382 22 382 27T377 40Q374 52 373 62T372 81Q372 86 376 97T380 114Q380 143 324 148H245Q241 148 238 149T233 150H170Q123 150 111 154Q79 163 79 196ZM334 259Q338 258 344 253Q349 250 356 245T374 235Q395 235 395 265Q395 268 397 275T400 288L402 289Q406 304 406 315Q397 330 397 350Q397 355 398 358T400 363Q402 376 402 383T402 396Q402 404 395 426Q398 431 399 437T406 451V456L409 459Q409 492 382 507Q371 507 340 490Q332 484 317 442V435Q309 430 303 421T284 397Q279 394 279 380Q279 368 264 344L222 284Q222 263 236 246T271 229Q291 229 311 243Q332 259 334 259Z"  />
<glyph unicode="5" horiz-adv-x="572" d="M448 301Q448 353 441 360Q436 368 429 379T409 405Q397 419 367 439Q354 448 346 452T334 456Q305 456 287 454T261 446Q253 446 244 445T223 441Q222 439 219 437T207 426Q180 402 148 402Q134 402 118 413Q102 424 102 439Q102 447 103 457T105 481Q108 509 108 523L109 520V533Q109 538 108 545T104 562Q102 572 101 578T99 590V626Q101 638 101 647T101 661Q101 669 102 679T107 700Q115 732 115 740Q133 770 184 770Q186 770 191 770T209 768Q226 764 233 766Q269 774 289 777T312 780H337Q348 780 369 773Q380 770 387 769T402 768Q422 768 442 775Q456 771 464 770T475 766Q495 760 501 747Q501 718 451 694Q440 693 406 685Q398 682 386 678T357 668L276 694Q211 694 206 668Q203 657 203 635Q203 622 199 605Q199 584 198 574T197 562Q197 526 213 526Q217 526 230 530Q237 532 241 533T248 536Q260 537 277 538T321 539Q372 539 387 533Q400 530 449 500Q454 496 461 489T481 467Q506 438 510 429Q510 423 513 420Q524 402 534 386T544 346Q544 314 541 307Q540 286 534 260T511 200Q508 195 505 187T497 167Q493 159 489 146T477 117Q465 99 446 86Q432 76 411 55T360 0Q351 -2 330 -9Q326 -9 324 -9T315 -10Q312 -13 309 -14T300 -19Q292 -22 282 -25T258 -33Q246 -38 230 -43T193 -56Q184 -59 165 -59T117 -59Q81 -59 81 -32Q81 -11 112 10Q126 12 143 13T181 20Q186 22 195 24T222 30Q227 32 235 34T253 39Q262 42 272 49T300 68Q321 84 333 95T351 111Q361 127 371 140T392 170Q432 223 432 248Q432 251 433 255T438 265Q448 288 448 301Z"  />
<glyph unicode="6" horiz-adv-x="687" d="M389 -16Q362 -16 331 -6Q323 -6 313 -5T288 -1Q270 5 226 50Q157 122 157 190Q157 194 158 197Q161 206 161 207V262Q161 305 187 380Q191 390 192 400T196 422Q196 423 199 438T209 482Q209 491 213 504Q225 516 240 550Q245 555 251 562T265 579Q270 582 275 589T289 605Q303 631 334 654Q347 664 360 673T387 691Q404 708 424 720T467 744Q478 752 488 755T507 759Q569 759 569 721Q569 691 530 687Q525 685 516 682T495 671Q484 666 468 657T432 634Q423 628 401 602T340 528Q332 520 326 512T307 490Q302 476 298 463T289 438Q292 429 301 422H341Q350 422 364 427T387 433Q392 433 398 434T408 436Q419 436 437 437T481 439Q498 439 513 420Q516 416 521 411T537 397Q553 389 585 347Q622 291 622 226Q622 125 613 112Q588 77 570 55T537 23Q532 20 528 18T516 12Q495 8 475 3T429 -13Q421 -13 409 -14T389 -16ZM413 60Q418 64 421 65T426 66L433 73Q521 143 521 209L516 220V248Q516 249 516 253T518 262Q508 282 501 293T491 310Q483 326 474 335T456 353Q445 358 424 359T373 361Q349 361 341 354L321 333L294 311Q263 307 265 269Q252 249 252 236Q252 228 265 199Q265 188 268 160Q269 142 307 118Q310 116 315 113T328 105Q369 57 413 60Z"  />
<glyph unicode="7" horiz-adv-x="569" d="M380 638Q380 641 393 661Q408 686 408 698Q408 717 392 717Q390 717 383 716T359 711Q318 704 292 704L289 703Q274 703 266 707H253Q203 707 193 697Q182 691 160 639L131 624Q104 624 89 655Q79 676 79 707Q79 745 111 776Q142 806 181 806Q190 806 202 806T232 805Q248 804 261 804T282 804Q286 804 291 804T305 806Q314 810 320 810T331 809Q341 809 355 808T389 805Q409 802 422 801T448 799Q453 799 465 801T482 804Q541 804 541 753Q541 731 507 660Q483 609 458 559Q453 549 452 542T446 527Q445 524 443 515T436 490Q435 480 433 470T426 449Q411 433 408 396Q404 391 404 382T400 361Q399 353 398 343T393 318Q390 310 388 300T382 274Q375 247 372 221T369 168Q369 160 374 148T379 127Q379 119 375 107T370 86V53Q370 3 317 3Q306 3 289 14Q279 34 274 56T266 104Q266 112 264 123T261 143Q261 148 263 155T268 173Q271 185 273 194T275 210Q275 218 272 227T268 242Q268 253 271 262Q272 270 273 274T274 279Q274 281 273 289T269 311Q271 319 273 326T278 347Q278 348 281 357L285 374Q292 385 298 398T311 428Q312 433 313 439Q314 444 315 452T318 471Q321 486 331 516Q340 527 345 544T361 596Q361 601 364 611T380 638Z"  />
<glyph unicode="8" horiz-adv-x="687" d="M400 -32Q346 -32 282 -3Q274 0 264 4T238 16Q224 22 209 43Q204 50 198 55T187 66Q175 75 163 121Q150 159 150 180V217Q150 234 150 245T154 264Q157 272 161 281T170 301Q171 309 177 322T193 354Q201 362 211 375T235 408Q235 416 210 469Q186 521 186 530V550Q186 553 187 558T189 566Q189 576 191 590T196 625Q197 630 201 637T210 655Q224 686 265 714Q336 760 380 760Q405 760 419 761T441 763Q462 763 494 750Q496 749 507 742Q535 722 541 717Q558 706 569 684Q577 674 586 660T609 628Q625 607 625 530Q625 517 599 480Q586 459 580 441T575 403L582 387Q588 382 596 374T616 354Q625 343 639 311Q657 276 657 268Q657 263 657 252T658 222V179Q658 157 650 144T634 117Q628 105 622 94T611 71Q603 62 595 52T572 32Q564 26 552 19T523 0Q507 -15 478 -29Q451 -30 432 -31T400 -32ZM569 215Q569 216 568 218T566 223Q563 228 561 234T554 249Q552 265 541 285Q479 348 464 356Q452 359 443 361T423 367L400 369Q392 365 380 362T350 353Q342 348 336 341T317 325Q312 323 307 320T295 312Q283 304 271 290T245 255V240L249 235L253 215L242 177L245 166Q253 157 260 149T276 130Q278 126 278 122T282 112Q284 109 288 102T301 84Q303 82 311 78T336 68Q344 64 354 61T382 52Q385 48 397 48Q414 48 426 50T446 58Q458 66 468 74T488 91Q541 127 549 141Q569 166 569 215ZM420 448Q479 465 505 510Q509 520 510 532T517 562Q515 596 508 602L456 671Q448 673 439 674T419 675Q404 683 380 691Q377 691 356 675Q347 667 342 663T333 655Q325 645 318 635T304 615Q282 577 282 541Q282 517 333 471Q337 457 420 448Z"  />
<glyph unicode="9" horiz-adv-x="687" d="M209 -30Q181 -26 181 1Q181 14 238 52Q249 60 261 67T288 84Q297 88 310 95T341 115Q358 127 372 140T397 170Q401 180 408 190T425 213V216Q431 222 446 240Q472 263 472 282Q472 289 468 298Q458 303 447 306T422 310Q390 298 376 293T364 287Q361 287 357 289T344 297Q329 301 298 317Q194 399 187 410Q175 437 167 457T156 491Q154 500 154 511T153 539Q153 556 157 575T171 615Q179 629 188 647T212 691Q213 694 249 720Q298 757 311 757Q320 757 346 765Q382 776 413 776Q421 776 430 775T454 772Q472 769 492 761T533 740Q549 728 565 711T598 668Q612 645 619 629T626 600Q626 590 632 566Q639 538 638 536Q635 502 632 476T625 425Q622 406 619 391T611 364Q609 361 607 356T602 346Q600 337 600 325T598 295Q590 283 579 266T553 226Q548 216 537 201T510 166Q501 158 491 148T467 124Q461 119 454 105Q416 53 305 0Q236 -34 209 -30ZM432 386Q442 391 450 395T468 405Q485 419 492 432Q495 447 510 462Q526 478 526 485Q537 504 541 517T547 539Q539 553 534 579T523 631Q519 643 488 661Q483 664 476 668T458 677L425 690Q413 686 400 684T372 675Q356 681 346 683T330 685Q319 685 312 668Q308 663 303 657T288 638Q264 605 258 585Q256 583 256 579T253 570Q255 567 256 561T261 547Q264 539 265 533T266 523Q266 511 262 507Q265 470 301 433Q306 428 312 421T331 402Q334 402 373 393Q378 393 386 390T400 386H432Z"  />
<glyph unicode=":" horiz-adv-x="507" d="M248 248Q264 248 297 238Q395 209 395 105L372 43Q367 38 362 32T347 17Q333 4 240 0Q121 54 121 111Q121 148 134 167Q144 184 153 199T180 223L210 240Q221 248 248 248ZM147 451Q150 459 156 469T170 492Q231 556 284 556L340 544L402 469Q402 461 407 447T412 423Q409 415 406 405T397 379Q389 354 367 341Q364 339 360 335T347 325Q344 324 339 320T325 310Q307 302 288 302Q248 302 238 308L207 312Q187 317 168 361L143 423Q144 431 144 437T147 451Z"  />
<glyph unicode=";" horiz-adv-x="507" d="M210 -9Q208 -2 193 14Q181 27 157 43Q122 69 122 134Q122 148 140 171Q141 173 145 177T154 186L170 200Q188 218 229 220Q267 225 271 229L320 212Q327 200 347 176Q352 166 358 150T372 112Q370 102 368 91T363 66Q361 57 359 33Q355 28 352 21T344 4Q341 -4 338 -12T330 -35L312 -63Q306 -81 284 -102L282 -105L279 -107Q262 -130 229 -154Q225 -154 207 -168Q189 -183 173 -183Q144 -183 144 -158Q144 -134 173 -105Q203 -77 203 -65Q203 -61 202 -56T197 -42L202 -33Q204 -27 210 -9ZM138 386Q135 394 133 404T131 431Q131 442 136 458T154 492Q156 496 159 502T168 517Q205 553 253 553Q307 553 357 494Q374 475 380 459T387 416Q387 377 324 323Q312 318 301 315T278 310Q270 304 264 300T245 288Q228 291 212 298T179 323Q138 354 138 386Z"  />
<glyph unicode="&lt;" horiz-adv-x="662" d="M497 605Q502 603 509 597T527 580L530 533Q530 528 523 518T511 505Q505 502 496 499T475 490Q473 486 452 469Q445 468 423 461Q412 456 393 449Q373 447 340 436Q332 430 322 422T297 402Q298 398 301 394T310 384Q317 361 369 356Q371 356 375 356T382 357Q386 357 393 351T415 333Q428 321 444 316T481 310Q486 310 495 312T511 314Q513 312 516 307T523 297L526 295Q527 289 531 281T540 265Q542 260 543 256T546 248Q546 224 518 212Q492 200 469 200Q464 200 458 201T444 204Q442 206 439 208T432 215L408 228Q401 234 391 240T367 255Q354 258 337 263T295 276Q285 283 270 291T235 311Q227 314 216 319T187 330Q181 335 171 339T147 348Q121 375 117 399L118 408Q123 413 131 419T150 436Q156 441 165 446T189 459Q203 467 224 478T275 503Q287 511 304 521T347 546Q358 551 369 555T393 564Q405 568 432 592L497 605Z"  />
<glyph unicode="=" horiz-adv-x="662" d="M104 415Q104 420 114 436Q131 467 151 467Q150 467 159 467T189 469Q192 469 218 469T294 468Q332 468 353 469T377 474Q381 472 388 472T405 469Q413 468 419 468T431 467Q439 467 453 471T475 475Q499 475 537 456Q553 451 553 420Q550 412 546 403T537 384Q523 361 505 361Q499 361 486 362T465 364Q456 364 452 362T435 357Q416 360 407 362T395 364Q369 364 353 371T320 379Q314 379 308 378T292 374Q284 372 277 371T266 369Q255 367 242 367H215Q208 367 196 369T177 372H144Q129 372 117 385T104 415ZM124 287Q128 293 135 295T157 301H176Q193 301 223 302Q230 306 238 311T258 323Q263 323 279 315Q291 314 294 309T311 304Q319 304 334 308T372 320Q412 307 432 307Q439 309 446 310T461 314Q468 314 497 334Q502 332 507 329L520 323Q522 318 544 302Q560 291 560 276Q558 271 554 262T544 239Q511 207 485 207Q477 207 468 210Q459 210 446 212T415 216L398 219Q395 219 394 220Q387 217 381 217Q366 215 337 210Q329 210 320 210T297 209Q293 209 275 212Q267 213 261 214T251 215Q218 215 195 214T154 210L121 228L102 252Q102 269 124 287Z"  />
<glyph unicode="&gt;" horiz-adv-x="662" d="M546 397Q546 386 539 373T517 348Q498 343 476 334T428 311Q418 304 404 296T369 276Q355 274 338 269T297 255Q280 245 261 233T220 204Q209 202 200 201T183 200Q127 200 117 248L122 265Q126 270 131 279T143 300Q146 315 157 315Q162 315 169 313T181 310Q224 310 268 351Q278 356 298 356Q334 356 367 402Q361 407 350 415T324 436Q313 445 291 445Q288 445 252 456Q244 458 234 461T210 469Q207 473 202 478T187 490Q168 497 138 518Q132 527 132 550L135 580Q147 605 167 605Q182 605 191 604T203 602Q225 599 239 586Q249 576 255 571T266 564Q280 558 304 552Q319 543 340 531T389 503Q415 491 443 475T504 441Q507 439 512 435T526 425Q546 408 546 397Z"  />
<glyph unicode="?" horiz-adv-x="520" d="M356 530Q353 535 347 540Q258 599 248 599Q203 599 203 573Q203 570 205 563T207 552Q207 533 187 495Q168 461 121 461Q102 461 52 480Q44 483 34 487T7 500L0 511V534Q0 539 53 583Q57 588 62 597T78 619Q81 621 86 624T104 635Q124 648 130 648L202 660Q213 660 229 661T269 671H315L341 664Q351 662 362 661T390 654Q402 645 419 634T461 606Q464 593 470 578T484 544L492 516L494 518Q474 412 454 396Q445 391 435 384T412 364Q409 360 403 354T389 338Q381 335 368 334T338 333Q333 330 325 321Q322 313 321 300T314 269Q310 226 265 226Q257 226 253 227T245 229Q205 230 199 236Q183 242 183 276Q183 289 192 325Q196 341 199 351T204 366Q212 371 222 382T245 412Q256 428 264 432Q273 431 281 430T297 426Q305 430 316 436T346 454Q348 457 349 459T350 465Q350 470 343 497Q346 505 348 511T356 530ZM176 112Q184 116 194 120T220 137Q248 154 265 154Q297 154 318 128Q348 93 348 76Q348 42 323 23Q294 3 264 3Q232 3 193 24Q147 49 147 73Q147 85 176 112Z"  />
<glyph unicode="@" horiz-adv-x="786" d="M383 101Q378 101 367 100T347 98Q338 98 331 101Q317 104 296 108T246 118Q241 120 229 129T196 160Q182 176 170 187T148 209Q117 244 112 266Q110 274 108 285T104 310Q104 318 103 331T99 361Q94 387 92 403T89 423Q89 440 89 453T91 484Q94 490 97 501T105 526Q108 544 120 573Q136 589 151 622Q156 627 162 632T179 647Q199 658 212 668T233 688Q238 696 244 702T258 711Q266 715 272 717T287 719Q298 720 305 720T317 720Q320 723 325 723T338 727Q367 736 391 739T436 743Q446 743 469 741T530 733Q538 732 551 726T580 710Q594 701 606 694T632 678Q657 658 675 634Q683 624 692 609T713 572Q723 549 723 452Q723 435 683 364Q677 352 667 338T642 301Q600 259 600 239Q600 231 605 220T611 200Q611 140 471 104Q459 100 448 98T425 92Q414 92 406 96Q403 96 398 97T383 101ZM390 168Q398 167 411 170T445 183Q495 207 495 222Q495 234 458 239Q450 239 448 239T446 240L445 242Q431 247 416 249Q408 248 403 247T392 246Q390 245 380 243T350 239H341Q299 239 268 278Q236 313 236 359L239 376Q238 377 238 390H236Q236 398 236 407T235 422Q235 433 251 459Q254 467 256 471T261 480Q261 486 263 494T268 514Q295 543 319 564T366 600Q371 602 379 605T400 613Q427 610 449 606T488 596Q496 595 505 593T528 588Q534 585 553 564Q565 553 569 546T575 536V524Q575 522 574 514T570 492Q568 478 567 471T566 462Q520 385 520 374Q520 360 537 360L546 363Q569 373 573 396L577 416Q586 428 594 438T611 459Q619 473 619 514Q614 524 607 534T589 556Q588 566 587 576T580 603Q574 621 526 651Q505 663 488 670T456 683Q451 679 443 677T420 670Q412 670 387 665Q379 661 365 656T334 642Q322 637 300 631Q286 626 266 609T220 562Q210 551 209 537Q205 529 205 525T202 517Q184 499 168 474Q168 460 167 431T157 357Q157 348 168 328L186 301Q189 293 191 286T197 268Q225 202 266 186Q271 184 278 183T295 179Q324 171 345 167T379 163Q382 164 384 164T390 168ZM400 350Q404 358 409 373T425 409Q433 417 437 424T449 441Q454 451 457 459T461 475Q461 490 452 510Q443 531 429 531Q419 531 390 505Q382 497 373 489T356 472Q351 464 345 452T331 419Q323 395 319 380T315 360Q315 311 350 311Q355 312 358 313T364 315Q372 321 380 329T400 350Z"  />
<glyph unicode="A" horiz-adv-x="606" d="M278 238Q233 241 233 180Q233 172 230 162T226 143Q226 126 246 120Q271 108 275 98Q275 71 225 62Q213 62 203 61T181 60Q175 57 164 53T135 46Q127 46 116 47T91 50Q79 52 70 62T60 85Q60 97 73 106T98 115Q101 115 105 116T114 118Q116 120 120 127T131 148Q136 152 142 159T156 179Q159 192 162 210T173 255Q179 270 179 284Q179 302 194 338Q194 342 195 355T196 393Q196 402 213 431Q213 445 214 462T219 504Q222 516 226 530T236 560Q238 563 241 573T253 600Q261 619 261 648Q261 667 269 675Q278 684 287 691T305 707L334 713Q391 680 397 658Q398 657 403 632Q403 628 408 611Q418 592 418 564Q418 556 420 543T428 511Q442 483 442 471Q442 459 436 454Q436 448 433 436Q433 425 441 406Q449 394 450 388T454 377Q455 374 456 370Q457 366 458 361T461 348Q461 343 462 336T467 321Q468 308 470 292T475 256L487 190Q491 169 504 158Q516 153 528 146T554 130Q592 110 592 95Q592 68 567 63Q556 62 547 61T527 59Q515 58 504 58T480 58Q463 58 454 58T436 60Q419 68 403 73T376 95Q376 137 397 140Q420 140 420 164Q420 205 392 210Q382 214 373 229Q354 229 320 232Q312 233 302 233T278 238ZM382 336Q382 344 379 354T376 370V393Q363 469 334 469Q310 469 304 425Q301 408 301 395T298 366Q294 352 289 315Q294 302 301 302Q303 302 309 305T327 314Q342 314 359 317Q382 319 382 336Z"  />
<glyph unicode="B" horiz-adv-x="716" d="M150 14Q133 14 126 14T115 13Q84 13 73 23L66 37Q66 43 69 47T78 58Q81 59 86 60T99 65Q119 65 164 82Q174 87 180 96T187 120V138Q188 149 189 157T191 172Q192 178 192 183Q190 191 188 202T186 222V373Q186 378 187 383T189 392Q189 399 183 416Q177 434 177 442Q177 447 179 456T181 469Q180 485 181 516Q181 520 183 531T186 547Q186 578 134 593Q122 597 113 598T91 603Q65 612 65 635Q65 649 76 654Q90 659 104 662T135 671L161 680Q172 680 196 672Q208 669 214 668T223 667Q231 667 240 668T264 672Q293 680 302 680Q314 680 321 675Q337 671 357 671Q387 671 395 675Q413 675 458 654Q466 649 478 644T498 635Q515 627 523 622T536 613Q549 600 549 575Q549 566 554 557Q558 549 559 546T560 541Q565 527 566 514T567 488Q567 483 567 477T566 458Q566 446 547 412Q528 378 528 367Q528 354 537 344T554 325Q571 305 582 282Q585 270 587 260T593 238Q598 221 598 204Q598 179 583 121Q573 80 543 59Q540 56 523 47T475 23Q421 -1 400 -1Q396 -1 388 0T374 1L238 10Q221 9 199 10T150 14ZM507 220Q509 230 482 262Q482 273 475 284Q467 285 457 287T433 292Q425 296 421 300T409 312Q400 314 392 315T374 317Q371 317 366 316T357 314Q349 314 339 315T320 317Q308 317 305 310Q288 250 288 233Q288 222 285 212Q277 198 276 184T274 157Q274 156 274 147T275 117Q275 78 357 78Q359 79 375 82T425 92Q433 94 438 98T449 109Q469 130 471 131Q498 149 507 220ZM374 426Q380 425 397 418Q410 409 419 409Q442 409 449 432L458 467Q475 506 475 507Q475 522 459 544Q451 556 444 563T432 575Q429 577 423 580T409 586Q382 599 374 599Q339 599 311 580Q308 577 304 575T295 567Q290 562 282 540Q274 521 274 511Q274 506 275 500T281 482Q284 471 286 461T291 438Q297 415 318 406Q327 406 346 416Q365 426 374 426Z"  />
<glyph unicode="C" horiz-adv-x="658" d="M384 583Q376 587 367 590T346 602Q322 611 312 611Q284 611 261 586Q202 522 202 490Q202 482 192 455L183 426L186 415Q179 371 176 347T173 315Q173 302 175 292T180 271Q186 256 186 239Q186 219 204 174Q214 149 222 135T235 115Q270 78 298 78Q326 78 369 121Q374 126 380 136T395 160Q411 190 420 199Q425 209 434 222T456 253Q471 268 497 268Q524 268 530 240Q531 239 536 194L527 171Q508 151 505 130Q503 116 500 106T494 91Q483 65 469 59Q431 36 407 24T372 9Q370 7 349 6T285 3Q218 27 180 60Q170 66 160 75T137 98Q129 116 122 143T107 209L98 311Q96 321 94 332T86 356Q88 368 89 385T94 428Q97 438 101 453T111 490Q111 492 110 495T108 503Q108 552 137 602Q138 605 142 609Q145 612 149 616T160 628Q175 634 217 667Q240 684 330 684Q348 684 384 667Q401 659 412 654T432 648Q437 653 442 657T455 664Q465 674 481 674Q539 674 539 619V580Q537 568 537 560T537 543Q537 538 538 531T540 514Q541 506 542 500T543 491Q543 474 530 452Q517 433 500 433Q498 433 492 434T474 438Q449 444 438 472Q434 484 431 496T425 521Q417 538 408 554T384 583Z"  />
<glyph unicode="D" horiz-adv-x="662" d="M276 -20Q271 -20 265 -20T251 -17Q241 -16 235 -15T225 -13Q203 -12 190 -11T168 -10Q160 -10 151 -11T128 -14Q115 -18 106 -19T88 -20Q88 -20 49 -10Q41 -9 33 -8T16 -3Q8 0 4 7T0 24Q0 53 32 53Q37 53 49 49T68 45Q108 45 108 75Q108 76 110 84T115 107Q119 118 120 128T122 147Q117 156 117 192Q117 216 120 219Q118 227 119 237T121 259Q127 281 127 294Q127 299 124 312T120 333Q120 335 121 343T128 367Q122 401 122 399Q122 407 124 417T127 433Q127 445 125 453T120 469Q120 477 125 491T131 514Q131 558 101 573Q97 575 84 579T46 589Q16 598 16 615L19 626L32 635Q37 636 47 637T72 639Q77 641 87 643T111 649Q138 657 150 657Q155 657 161 655T177 649Q187 646 193 644T204 642Q216 642 224 643T236 644Q247 649 278 657Q303 648 327 641T376 626Q410 610 459 564Q498 528 498 498Q498 472 514 446Q523 435 527 427T533 415Q534 401 535 391T536 373L540 360Q540 339 530 292Q533 284 533 277T536 265Q531 253 526 236T513 193Q511 178 506 158T491 111Q486 103 482 94T469 73Q462 65 426 37Q406 23 394 15T377 3Q373 0 364 -2T338 -9Q311 -14 296 -17T276 -20ZM438 311Q438 360 420 416Q419 424 418 429T416 441Q411 449 406 463T392 497Q388 505 385 511T376 530Q365 541 352 549T321 563H307Q302 563 295 563T275 562H242Q237 558 233 557T223 550Q218 538 216 531T210 518Q209 508 203 490Q206 482 208 469T215 439Q215 426 217 410T225 372Q223 367 221 360T216 340Q217 329 216 310Q215 283 207 259Q209 256 210 252T216 242Q225 231 225 223Q225 220 221 211T209 186V179Q209 171 212 159T215 138Q215 137 214 135T212 124Q209 109 209 108Q229 58 261 58Q279 58 292 67T321 88Q324 88 325 89Q329 91 331 91T338 94Q360 100 380 143Q382 151 383 159T390 181Q395 187 399 193T408 209Q425 239 436 276Q438 281 438 311Z"  />
<glyph unicode="E" horiz-adv-x="697" d="M520 572Q520 579 510 588Q498 597 491 602T480 611Q475 613 467 614T446 615Q439 615 418 605Q406 600 399 598T386 595Q384 595 379 596T364 600Q347 603 325 603Q309 603 292 586Q276 570 276 554Q276 547 281 537L278 524Q265 504 265 500Q265 490 282 467Q281 460 280 450T278 425L282 413Q312 382 331 382Q342 382 360 396Q380 410 386 420Q387 439 388 449T390 465Q394 486 416 500Q421 504 431 504Q451 504 455 485Q460 467 462 452L468 436Q468 424 468 405T467 360Q465 352 464 343T461 320V292Q462 282 462 275T462 265Q462 257 462 255T461 249Q461 215 429 215Q398 215 395 245Q387 291 382 295L370 308Q355 323 354 323L333 325Q324 325 318 326T308 327Q302 327 301 328Q297 327 289 311Q288 303 287 299T284 287Q282 285 281 283T275 272Q273 269 272 265T271 258Q271 256 273 250T275 242V226Q275 218 272 210T269 197Q269 192 270 188T272 180Q275 165 276 163Q276 158 277 153T278 137Q279 124 280 112T295 91Q310 82 325 82Q330 82 337 83T354 86Q363 90 370 90T380 92Q416 90 468 102Q527 131 527 170Q527 176 524 184Q527 192 529 202T534 226Q536 235 536 246T540 274L556 289Q565 292 570 292Q615 292 615 216Q613 211 612 205T611 193Q611 184 612 168T613 144Q613 92 608 78L576 30Q567 29 563 28T553 27Q550 27 527 32Q513 34 505 35T495 37Q490 36 478 29Q464 22 459 22Q419 26 395 28T363 30Q352 30 348 27Q343 29 336 29T317 33Q305 36 299 37T289 39Q275 39 229 23Q226 23 211 26T168 36Q155 39 149 40T140 43Q128 52 128 73Q130 75 133 79T143 89L166 98L183 112Q202 144 202 164Q202 166 201 176T197 206Q195 226 194 235T193 246L190 261L197 304Q199 307 196 317T192 331Q192 336 193 346T196 361Q194 363 193 378T186 422Q187 430 188 435T190 444Q192 446 192 451Q192 456 190 467T187 487Q187 491 187 497T189 511Q192 523 192 528T193 537Q192 540 191 553T187 588Q186 598 158 598Q153 598 107 618Q85 628 85 647Q85 662 121 672Q133 676 145 677T170 678Q178 678 195 678T223 677Q227 677 234 679T252 684Q269 691 281 691Q286 691 293 690T308 685Q318 682 325 681T337 680Q341 680 364 690Q384 701 395 701Q398 701 414 699T464 691Q518 700 526 700Q526 700 550 688Q600 661 600 628L618 564Q616 558 616 548T613 523Q612 513 612 505T611 487Q608 464 599 456L586 454Q578 455 571 455T554 459L541 468Q540 476 540 483T539 500Q533 512 528 521T518 543L520 572Z"  />
<glyph unicode="F" horiz-adv-x="693" d="M389 534Q445 519 445 423Q445 415 442 404T439 384Q439 374 449 360Q458 342 458 334Q458 326 453 315T448 298Q448 290 453 278T459 258Q459 247 426 210Q422 206 408 206Q377 206 367 242Q364 259 361 272T353 302L330 323Q301 331 297 331L285 330Q283 323 277 313T261 285Q255 267 251 242T243 184Q247 172 249 162T255 140Q253 135 254 128T258 109Q266 95 305 94Q322 91 348 63L338 35Q326 26 315 26Q311 26 304 26T287 27Q281 29 276 29T268 29H243Q240 29 235 29T225 27Q215 27 208 27T194 26Q171 26 153 27T120 30Q94 37 94 56Q100 71 125 76Q158 83 164 85L171 95Q173 103 173 112T177 132V143Q177 146 177 150T176 158Q173 176 173 186V239L170 252Q173 257 173 268T177 297Q179 301 175 309T170 321Q170 328 172 337T177 360Q177 368 172 380T167 400Q167 408 172 420T177 441L170 549Q167 598 125 611Q115 614 106 615T86 621Q66 629 66 649Q66 675 112 680Q118 680 130 682T151 685Q152 684 176 683L239 678Q247 678 256 685T274 693Q280 693 290 692T315 688Q329 685 338 684T356 683Q366 683 378 684T408 688Q425 690 436 691T456 693L469 690L511 697Q513 696 520 695T540 693Q555 691 566 689T582 683Q587 678 593 669T606 645Q626 600 626 583Q626 575 624 567T619 553Q619 545 619 537T616 517Q615 512 614 507T613 498Q613 490 615 475T618 451Q618 410 573 410Q521 410 521 472Q521 484 513 503Q506 514 501 531Q500 539 500 546T495 562Q493 579 480 586Q454 602 436 602Q428 602 417 599T397 596Q392 596 385 597T366 600Q355 602 347 603T334 605Q287 605 262 580L255 562V530Q251 521 251 510Q251 502 252 488T253 465Q253 457 251 449T248 435Q248 405 291 396Q299 397 303 401T320 413Q327 416 347 422Q350 425 353 436Q351 450 350 457T348 465Q348 467 354 482L363 507Q366 517 368 521T370 527Q375 532 389 534Z"  />
<glyph unicode="G" horiz-adv-x="710" d="M281 596Q261 596 245 583Q197 549 187 521Q184 513 180 500T168 468Q165 460 161 451T153 428Q153 420 152 409T151 384Q150 380 148 368T145 348Q145 344 148 333T151 317Q151 303 148 294L144 275Q145 270 146 267T150 255Q153 252 153 247T157 233L158 187Q167 175 177 157T204 114Q208 109 211 105T222 96L243 84Q274 62 284 62L386 143L405 173Q399 185 397 190T392 199Q385 208 370 213Q365 215 361 217T351 223Q324 248 324 275Q324 297 340 311T379 325Q387 325 401 320T423 315Q435 315 455 321Q476 327 488 327Q484 327 523 315Q533 312 542 311T562 305Q583 297 583 272Q583 249 553 239Q513 224 508 219Q498 213 498 148Q498 138 504 120Q510 103 510 94Q510 88 504 74T484 35Q479 20 458 20Q449 20 441 22T423 27Q410 27 390 16Q382 11 373 7T353 1H330Q224 1 203 19Q198 24 191 29T176 42Q153 60 139 74T120 99Q112 111 106 131T91 181Q77 237 71 272T65 327Q65 335 66 352T68 377Q68 376 67 389T62 431L66 439Q70 444 72 450T81 465Q83 485 85 500T89 523Q97 539 103 553T117 582Q157 621 178 640T200 661Q231 683 300 683Q352 683 380 670Q408 655 415 655Q435 655 464 672Q490 691 503 691Q516 691 528 671Q541 652 541 638Q541 633 538 606T527 527Q526 515 525 508T524 500Q524 490 526 485Q527 477 527 474T528 468Q506 406 488 406Q482 406 459 419Q438 430 425 455L406 504Q406 509 397 521Q389 531 379 541T356 569Q348 575 307 588L281 596Z"  />
<glyph unicode="H" horiz-adv-x="696" d="M452 586Q440 593 428 590Q406 590 405 592Q390 594 379 616Q369 630 369 645Q369 667 415 677Q440 673 452 672T461 670Q466 670 473 671T490 675Q498 679 505 680T517 681Q520 681 527 681T549 678Q569 675 580 673T595 671Q621 662 621 636Q621 616 590 606Q555 597 547 580Q542 570 541 562T539 549Q539 541 541 529T544 508Q544 492 541 461Q540 444 540 434T540 415Q540 407 544 394T549 372Q549 363 547 349T544 330V295Q543 290 542 283T540 266Q539 255 538 248T537 235Q537 221 538 204T541 166Q545 140 545 123T547 95Q547 93 552 88Q565 85 579 84Q591 80 600 68T609 43Q609 6 540 6Q535 6 530 6T517 7Q508 11 503 11T494 12Q473 3 448 3Q406 3 397 13Q379 32 379 52Q379 66 403 75Q416 78 424 82T435 89Q438 94 442 101T452 120Q467 148 469 154Q467 154 461 181Q457 191 456 207T455 246Q455 251 456 255Q458 260 458 265T461 279Q459 281 459 283T456 288L449 295L439 298L426 294Q417 284 406 284Q401 284 395 287T386 291Q310 308 282 308Q248 308 242 282Q240 279 240 226Q240 228 241 215T248 177Q246 169 244 164T241 153Q239 148 239 144Q239 124 239 112T242 92L255 84Q267 80 277 80T300 78Q320 70 320 35Q316 31 313 28T302 16Q282 11 260 8T213 4Q202 4 186 10Q171 16 160 16Q152 16 138 12T115 7Q79 7 79 40Q79 54 108 66Q142 85 150 105L157 125V166Q157 192 157 208T160 232Q161 240 162 244T163 249Q163 252 161 261T158 276Q158 284 159 298T161 321Q161 328 160 333Q158 341 156 367Q159 380 161 388T163 402Q163 408 154 422Q145 435 145 442Q145 446 151 461Q151 476 157 508Q157 514 158 522T163 541Q141 602 114 602Q99 602 88 613Q75 625 75 636Q76 640 80 645T89 660Q90 660 141 665L232 678Q237 680 248 675Q254 678 281 678Q320 678 336 652Q336 642 333 632T324 612Q315 598 304 592T278 583Q254 583 248 570Q246 562 244 552T239 524Q242 512 242 504T245 490Q246 486 246 484T248 478Q248 425 261 405Q267 394 289 392Q306 388 317 387T336 386Q338 386 348 387T379 390Q389 390 398 390T419 392Q442 393 451 409Q462 429 462 444Q462 454 458 458L452 475Q452 479 454 483T462 497Q468 507 468 520Q468 534 465 540Q464 548 461 559T452 586Z"  />
<glyph unicode="I" horiz-adv-x="599" d="M140 619Q136 623 133 624T124 628Q115 631 102 635T72 648Q68 653 68 661Q69 670 76 680Q84 693 125 703Q144 707 158 709T184 711Q186 711 209 711T281 708Q289 708 303 710T325 713Q329 713 342 712T377 706Q384 708 390 709T402 710Q410 710 420 709T448 704Q540 689 540 661Q539 656 536 650T527 635Q522 630 512 628T487 624Q468 622 457 621T441 618L420 611Q399 603 390 593L382 576Q382 564 373 540Q371 538 360 474Q359 464 358 460T357 452Q357 449 359 435T364 393Q364 388 362 381T360 370V330Q360 323 356 310Q351 293 351 285Q351 280 354 270T357 253Q357 248 357 242T356 223Q353 203 353 194Q353 158 364 138L390 118Q398 118 409 117T436 114Q453 111 485 102Q494 102 518 91L524 73Q519 55 491 45Q458 31 432 29Q415 30 394 30T343 26Q292 39 281 39Q270 39 260 38T238 35Q230 33 227 33T220 33Q216 33 215 32Q186 32 153 36T81 50Q71 60 71 76Q83 109 102 109Q123 109 203 127Q208 127 214 128T229 132Q240 141 240 168Q240 172 225 222Q226 230 226 235T230 245Q230 253 229 266T223 300Q227 320 228 330T229 338Q229 396 229 442T228 527Q224 536 224 550T220 595Q218 606 206 606Q201 606 190 606T174 605Q154 605 140 619Z"  />
<glyph unicode="J" horiz-adv-x="528" d="M288 202Q288 203 289 203Q289 227 286 262T276 346Q281 358 281 387L278 402Q279 407 280 414T282 429Q282 432 283 434T284 439V495Q284 497 283 509T279 546Q279 567 253 567Q241 567 230 563Q217 562 203 564T174 573Q134 588 134 611Q134 635 171 660Q190 672 225 672Q233 672 242 672T266 670Q280 668 289 668T307 668Q315 668 328 669T350 671Q355 671 363 671T389 668Q405 667 419 666T449 664Q493 659 504 644L507 629Q504 625 501 617T490 596Q478 588 464 583T432 576Q401 576 395 570Q380 556 380 510Q380 501 379 485T377 459Q377 455 380 446T383 432V330Q383 327 380 318Q374 282 374 249L379 210Q381 203 376 194Q377 186 377 178T377 161Q377 138 340 78L320 43Q316 40 309 36T289 23Q281 18 275 13T261 1Q248 -4 228 -4Q223 -3 215 -3Q207 -3 199 -3T177 -1Q167 -1 150 0T107 10Q88 18 77 22T60 30Q56 35 47 43T24 66Q15 91 10 108T4 135Q4 140 6 148T9 160L12 190Q15 219 37 237T88 255Q104 255 118 245Q157 225 157 202Q157 185 154 179Q153 167 150 158T144 141Q133 125 131 117Q160 58 193 58Q207 58 229 76Q274 109 276 117Q287 127 287 176Q287 180 287 185T288 196V202Z"  />
<glyph unicode="K" horiz-adv-x="684" d="M386 593Q386 597 383 601T380 609Q379 626 378 636T377 655Q377 668 416 668Q425 668 442 665T468 662Q473 662 480 663T500 665Q510 669 517 669T528 671Q542 671 550 671T567 672Q576 672 580 674Q619 674 619 634Q619 617 607 612T582 602Q523 578 503 552Q498 546 491 539T475 520Q463 508 446 490T408 444L380 400Q374 389 374 377Q378 372 386 356T412 310Q415 304 419 296T429 276Q432 271 434 263T441 243Q449 232 460 215T484 173Q489 161 494 148T507 121Q522 87 549 76Q557 80 561 81T585 86Q595 85 602 63Q605 53 607 46T609 33Q609 4 554 4Q546 4 533 8T511 13Q503 13 489 11T467 9Q380 9 380 37Q380 59 402 72Q423 85 423 89L413 108Q405 121 396 142T372 192Q368 197 363 204T350 219Q331 239 330 245Q326 253 325 258T321 269Q312 287 302 287Q278 287 259 245Q258 241 252 232T236 204Q235 196 234 187T233 163Q233 155 234 148T236 131L255 94Q257 90 259 87T262 82Q266 74 294 49L284 23Q267 18 253 14T226 10Q209 9 194 9T163 9Q145 6 111 6Q99 11 99 23Q99 38 120 49Q140 60 144 84Q144 103 147 121Q156 139 158 154Q158 159 157 168T150 190Q150 215 150 228T151 246Q150 248 149 252T147 265Q145 269 145 324Q142 332 141 342T140 364Q140 369 141 379T143 395Q143 400 142 410T140 426Q140 434 140 444T141 468V511Q141 516 132 539Q131 542 129 551T122 577Q121 580 73 608Q66 610 66 626Q66 632 72 638Q104 670 177 670Q180 670 186 669T196 667Q204 667 217 668T238 670Q239 670 242 669T253 667Q261 665 265 664T271 662Q275 662 280 662T294 660L310 654Q311 652 313 649T317 639Q279 597 243 572L240 560Q240 552 241 550T243 539Q243 531 240 520T236 503Q236 495 240 482T245 464Q246 456 246 449T246 433Q250 415 264 410Q272 418 280 427T298 449Q303 454 310 462T328 482Q332 486 340 491T363 508Q386 525 386 593Z"  />
<glyph unicode="L" horiz-adv-x="721" d="M238 397Q238 415 232 426Q232 435 233 460T236 530Q239 545 197 586H145Q134 591 128 598Q127 601 126 605T124 615Q124 632 138 647Q154 663 167 667Q177 667 189 671Q212 675 222 675Q230 675 256 672Q271 670 282 669T300 668Q308 668 315 668T332 668T357 668T399 670Q415 670 429 660T444 632Q444 608 416 592Q392 577 366 577Q362 575 356 572T341 563Q331 549 331 533Q331 525 331 514T333 487Q334 470 335 460T336 442Q336 431 335 415T331 376Q330 354 329 339T328 311Q328 285 334 233Q337 193 341 181Q340 171 336 155T331 131Q331 126 332 122T336 112L340 96Q342 89 379 86Q399 84 412 83T431 79Q476 82 481 82Q493 84 505 87T530 96L544 114Q542 134 557 199Q556 211 555 217T554 228Q554 245 570 271Q589 294 608 294Q628 294 632 275Q635 271 636 240Q638 220 638 211T639 199Q639 194 637 186T635 174Q634 156 633 138T629 101Q628 93 622 76T606 29Q597 6 576 0Q573 0 548 0T472 -1Q457 -1 441 -7Q429 -11 423 -12T408 -13Q394 -13 366 -11T298 -6Q253 -2 229 0T199 4Q173 -2 160 -5T145 -9Q125 -9 112 5T98 40Q98 61 114 73T153 86Q161 86 170 85T189 79Q228 79 228 127Q222 137 222 163Q222 161 223 180T228 238Q233 298 235 337T238 397Z"  />
<glyph unicode="M" horiz-adv-x="671" d="M338 567Q338 572 337 579T333 595Q331 596 340 609Q348 617 357 632Q359 632 363 645Q387 685 436 685Q444 685 455 686T475 688Q489 688 511 680Q541 672 547 672Q575 657 575 638Q575 617 543 602Q513 587 513 564Q513 556 514 546T516 527Q516 519 512 507T507 487Q507 482 508 472T510 456Q510 453 508 445T503 423Q499 413 498 406T497 393Q498 392 498 389Q498 380 500 377V328Q500 318 504 302Q505 294 506 289T507 278Q507 265 500 256Q504 241 504 228Q504 218 502 201T500 174Q500 169 501 163T505 145Q507 142 507 137T510 124Q510 114 531 99Q551 83 556 59Q552 35 539 29Q534 27 526 26T503 23Q480 21 465 20T441 19Q394 19 357 43Q347 46 347 60Q348 64 350 67T356 79Q376 88 388 94T403 107Q419 123 419 158Q419 179 420 192T425 210Q425 218 419 233Q410 248 410 255Q412 260 413 266T416 281Q416 307 410 312L408 336Q408 338 408 340T410 346Q412 351 414 357T420 376Q409 396 399 396Q396 396 393 396T389 393Q384 391 384 353Q384 344 382 328T374 289Q370 285 366 279T359 262Q360 229 363 229Q360 203 318 124L288 115Q279 119 271 120T255 124Q236 130 236 148L239 163Q236 180 231 201T215 248Q211 250 209 264V300Q205 325 186 325Q184 325 181 323T173 315Q169 302 166 288T157 258Q157 256 158 252T163 242Q168 229 168 220Q168 216 157 183L170 125Q175 121 183 117T209 108Q217 92 217 76Q217 36 186 32Q169 30 155 30T124 30Q99 28 86 27T72 26Q67 26 50 33Q49 34 17 43Q-1 47 -1 65L4 84Q16 89 33 102T73 138L76 147V225Q76 238 71 249V276L72 282V317Q68 322 68 331Q69 336 70 343Q71 354 76 377Q76 382 72 393T68 409Q68 421 78 445Q78 453 77 466T73 497Q78 509 78 528Q76 528 73 552Q72 566 71 579T59 605Q42 613 27 621T7 648L14 665Q28 685 50 685Q56 685 62 685T78 684Q90 683 96 683T107 683Q117 686 126 688T145 690Q176 690 228 664Q237 652 245 622L253 612Q255 607 256 603T259 596Q259 587 248 556Q249 554 250 552T252 546Q254 541 257 533T265 516V474Q268 460 272 448T281 419Q282 416 285 415T291 412Q296 420 303 425T318 438L321 449L314 467L302 477Q302 487 305 497T315 521Q325 527 338 550V567Z"  />
<glyph unicode="N" horiz-adv-x="647" d="M400 553Q400 570 379 585Q361 600 341 600Q336 600 330 598T315 590Q299 579 291 579Q274 579 274 624Q274 656 337 667H354Q359 665 363 665T370 665Q378 665 390 664T419 661Q424 660 429 659T438 657Q489 657 503 662H510Q560 662 560 638L552 618L531 603Q494 603 480 593L471 580Q471 565 465 541L462 526Q462 524 463 518T465 494Q468 468 469 446T471 403Q471 395 468 380T465 357Q464 350 464 342T464 324V265Q464 258 464 249T465 228Q465 222 466 216T469 200Q473 192 474 185T475 171Q475 168 473 159T468 132Q465 115 465 99T462 65Q458 33 420 12Q376 12 330 73Q322 88 310 147Q308 157 303 171T288 202Q270 236 268 255Q265 267 263 280T255 312Q252 318 249 324T240 341Q239 348 235 355T225 373Q221 376 218 380T209 390Q207 402 207 413T204 436Q201 465 186 477Q168 477 168 441V413Q168 408 169 403T171 395Q173 384 174 378T176 367Q176 361 170 346Q166 330 166 320Q166 312 168 299T171 281Q163 264 160 252T157 232Q159 225 166 168Q166 165 166 162T168 150Q171 139 171 131Q171 123 167 112T163 92Q163 75 190 66Q202 63 211 62T232 58L248 40Q248 9 207 9Q203 9 191 11T173 14Q164 14 156 13T138 9Q111 1 105 0Q97 3 88 3T65 7Q-4 11 -4 36Q-4 62 60 75L68 82Q71 87 73 111T84 180Q87 193 88 212T95 258Q95 261 97 265T99 275Q97 277 95 287T89 317Q84 342 82 363T79 402V413Q79 422 81 426Q84 436 84 439T85 451Q85 463 85 481T86 526Q86 560 49 589Q44 594 34 599T1 621L-4 632Q-4 647 16 658Q35 671 49 671Q57 671 68 667T88 662Q91 662 92 663T96 664Q106 664 125 664T154 665H171Q197 665 225 592Q235 568 239 554T243 534Q243 531 244 526T246 516Q254 499 266 480T300 439Q297 419 297 408V399L314 360Q314 356 325 331Q338 312 338 297Q338 283 372 240L377 235Q382 230 386 228Q387 229 395 232L397 242Q390 290 396 301V312Q396 317 395 323T390 337Q386 352 386 360Q386 363 387 368T390 382Q394 390 395 394T397 402Q395 420 394 429T393 441Q393 443 394 446T396 454Q398 464 399 471T400 481L397 492Q396 496 396 500T396 507Q396 515 398 530T400 553Z"  />
<glyph unicode="O" horiz-adv-x="660" d="M366 29Q361 29 342 33T292 48Q275 49 239 65Q234 73 227 81T209 101Q201 109 190 117T164 143Q161 148 157 156T144 176Q144 179 142 184T137 203Q135 208 134 214T130 232Q118 265 117 298Q117 312 117 332T115 379Q112 399 110 408T108 416Q108 445 119 477T153 544Q168 568 168 580Q168 622 282 688Q290 692 300 694T324 698Q358 703 366 708H390Q437 708 448 697Q461 692 478 684T521 662Q578 621 589 576Q591 567 596 553Q601 541 606 524T619 481V462Q621 457 624 443T628 420Q628 412 625 400T621 383Q621 380 622 363T626 311Q625 308 624 304T621 294Q617 285 614 273T605 243Q600 229 599 220T593 193Q581 154 530 98Q501 68 442 50Q364 29 366 29ZM377 108Q381 108 384 108T395 111Q434 120 448 132Q449 136 455 148T475 186Q483 202 491 219T510 258Q510 261 512 277T517 324Q523 414 526 410Q524 416 521 426T513 451Q515 471 516 481T517 494Q517 502 512 510T498 531Q486 545 480 554T471 569Q468 574 466 579T461 589Q451 592 437 599T405 618Q394 626 382 626Q356 626 317 605Q309 600 300 600Q294 599 280 581T240 527Q216 489 216 481Q216 478 217 468T219 454Q219 450 217 445T212 431Q204 412 204 408Q204 376 206 343T212 271Q220 259 230 243T252 206Q257 194 261 185T271 161Q271 158 272 155T276 143Q296 108 366 108H377Z"  />
<glyph unicode="P" horiz-adv-x="717" d="M284 -12Q280 -12 276 -11T258 -7Q226 -4 199 -2T150 0Q142 0 129 -3T108 -6Q86 -6 86 13Q86 33 138 59Q191 85 194 114Q196 126 197 136T199 158L194 240Q197 259 194 295Q193 303 191 312T186 336Q186 341 185 348T184 366Q183 381 181 395T177 423Q177 437 178 445T180 461Q180 467 179 475T176 491Q171 514 171 520Q175 530 177 537Q177 547 158 566Q145 569 132 571T104 576Q96 577 90 585T72 609Q72 624 89 636Q105 651 120 654H131Q143 659 153 660T171 664Q176 664 181 663T192 661H255Q255 664 297 672Q311 672 331 661H369Q377 661 385 661T405 664Q416 665 425 666T439 667Q447 663 458 660T487 652Q495 651 503 649T526 642Q547 632 567 610T606 552Q608 548 610 542T615 523Q628 472 628 464Q628 449 608 403Q596 380 587 364T573 338Q561 321 548 309T521 289Q511 284 500 279T474 269H454Q443 268 434 267T416 266Q408 266 401 267T389 269H343L310 256L301 242Q300 233 300 229T300 222V210Q301 206 301 193L300 177Q301 169 303 157T310 125Q312 120 319 115T338 104Q342 104 360 75Q372 72 383 66T412 50Q412 2 336 -1Q332 -1 326 -2T310 -6Q302 -9 295 -10T284 -12ZM480 376Q483 379 486 382T497 392Q498 404 501 420T510 458L501 498L462 528Q450 528 431 552Q372 578 360 573L300 562Q291 559 291 549Q294 541 298 533T311 510Q311 505 309 491T307 468Q307 452 310 449Q310 423 301 402Q310 359 360 353Q377 358 406 363T480 376Z"  />
<glyph unicode="Q" horiz-adv-x="678" d="M151 85Q131 122 99 196Q99 201 96 216Q79 296 79 295V312Q79 318 78 320Q78 323 77 324T76 330Q76 338 80 351T85 373Q86 385 87 400T89 435Q91 440 94 450T104 475Q104 479 105 485T108 500Q113 514 123 533T153 576Q161 588 170 598T187 616Q199 628 205 633T213 641Q229 652 245 652Q253 656 261 659T284 667Q289 667 300 666T320 665Q323 665 328 666T337 667Q338 667 351 665T390 660Q448 648 481 616Q496 604 511 586L549 510Q549 503 551 496T556 478Q569 452 569 448Q570 440 571 427T576 392Q576 389 580 382Q586 372 586 337Q586 332 586 328T585 321Q581 313 581 310T580 302Q580 289 579 273T575 235Q569 216 563 196T549 151Q535 110 498 73Q495 70 492 65T482 49Q478 37 475 32T472 23Q472 -48 521 -48Q526 -48 543 -37Q579 27 611 27Q614 24 622 23Q630 15 635 1Q635 -12 618 -52Q610 -70 605 -83T595 -101L573 -121Q557 -124 546 -126T524 -131Q516 -128 508 -126T488 -121Q433 -117 410 -23Q407 -20 404 -16T393 -3Q385 0 368 0T320 0Q299 0 284 2T259 7Q256 11 243 19T207 43Q197 51 184 59T151 85ZM451 154Q470 154 477 173L498 242Q500 250 502 258T507 274Q501 305 501 304Q501 312 504 323T507 338V377Q507 387 507 395T508 412Q498 435 491 455T475 495Q445 560 422 566Q413 566 400 567T367 570Q364 572 359 572T344 576Q336 578 330 579T321 580Q319 578 276 575Q237 552 230 546Q210 530 202 503Q196 489 188 471T170 431Q166 424 166 418Q166 410 167 399T168 379Q168 379 154 336L157 325Q156 317 153 308T144 285V276Q144 273 146 265T154 240Q176 181 190 181Q202 181 216 206Q224 209 236 221T271 253L284 256Q300 255 316 254T350 249Q393 243 405 222Q408 212 415 196T436 160L451 154ZM380 114Q380 123 367 161L360 170L348 176H320Q298 176 269 148Q261 140 261 124V84Q261 61 279 58Q287 54 292 53T298 52Q305 52 310 53T321 58Q329 62 332 64T338 68Q347 68 354 68T369 69Q380 75 380 114Z"  />
<glyph unicode="R" horiz-adv-x="773" d="M403 320Q393 325 385 328T367 337Q325 337 304 295Q304 277 318 259Q318 246 307 230Q298 213 298 207Q300 204 300 187Q300 182 299 171T298 154Q298 122 327 111Q339 108 348 104T370 96Q373 92 380 87T396 71L403 55V48Q403 37 387 37Q382 37 374 38T354 39Q342 40 335 40T323 40Q319 40 311 39T287 35Q247 43 239 43Q231 43 213 42T186 40Q120 40 120 71Q120 87 151 108Q155 111 159 113T168 118Q174 118 183 120T206 125Q210 129 210 143Q210 146 214 154T226 180Q224 195 223 204T222 219Q222 222 223 228T226 245Q228 256 229 264T230 278Q230 319 219 344Q215 353 215 360Q215 365 215 372T215 388T216 404T216 416L213 431L222 465Q223 468 224 472T228 482Q228 493 223 513Q220 524 219 531T216 541Q216 550 215 563T210 593Q205 609 190 609Q171 609 154 616Q108 647 108 667Q108 691 132 691H166H167Q168 691 169 692T174 694Q205 704 248 704H458Q474 704 534 674Q542 669 552 663T575 645Q602 621 606 608Q611 591 617 572T632 527Q632 501 624 471Q620 463 618 455T612 435Q599 421 583 402T547 357L544 341Q546 333 546 324T550 301Q552 296 554 288T564 262Q564 251 550 220V213Q550 209 552 204Q553 200 553 194T557 179L562 143Q565 120 580 115Q592 114 601 114T622 109Q649 103 649 84Q649 67 613 50Q586 35 573 35Q577 37 536 46Q475 59 475 86Q475 92 475 100T474 120Q474 118 473 121T471 130Q469 141 469 157T465 194Q462 199 462 204T458 217Q458 223 458 231T456 251Q456 254 454 262T446 285Q442 293 440 298T436 305T431 309T420 312Q415 314 411 315T403 320ZM445 416Q450 419 456 423T471 436Q485 450 485 462L504 497Q505 511 506 528T507 566Q507 589 472 589Q462 594 454 597T438 609Q428 611 418 612T396 616H392Q376 616 366 602Q361 594 355 591T344 586Q339 584 335 582T330 577Q326 569 323 551T315 498Q312 493 309 485T300 464Q300 410 374 410Q379 410 389 413T403 416H445Z"  />
<glyph unicode="S" horiz-adv-x="661" d="M439 482Q436 486 433 490T425 503L393 543Q369 569 351 569Q347 570 312 586Q292 596 272 596Q261 596 252 586Q241 570 238 570Q234 567 230 565T220 560Q216 557 203 547T164 518L158 504Q162 499 164 492T171 475L180 449Q186 430 199 426Q204 423 213 421T235 410Q248 410 264 409T301 406Q344 400 348 400Q357 400 373 403T397 406Q415 406 428 390Q431 385 438 380T455 369Q477 355 485 344Q493 339 502 332T523 312Q527 309 527 302Q527 299 526 293T524 284Q524 273 536 261Q547 245 547 239Q547 235 546 228T544 214T542 201T541 190V140Q541 99 495 53Q442 0 357 0Q323 0 302 2T269 7Q268 9 189 55Q181 55 170 52T144 43Q119 32 104 32Q85 32 85 55Q85 59 87 66T89 79Q89 107 84 117Q84 125 87 138T91 156Q91 164 88 175T84 194Q84 228 107 228Q129 228 156 200L194 157Q198 154 211 143T251 112Q268 110 294 99Q326 73 346 73Q355 73 395 99Q435 127 446 161Q451 179 455 243L446 269Q405 319 307 325Q299 329 289 330T265 336Q256 334 237 339T186 354Q182 356 177 358T163 366Q156 374 146 385T122 410Q118 414 113 419T99 433Q88 462 82 484T76 523Q80 539 85 559Q86 572 92 589Q95 597 106 607T134 634L168 651Q182 659 191 660T203 664Q215 664 235 668Q251 670 260 671T274 672Q275 671 279 671Q283 671 286 671T298 670Q322 666 339 663T369 654Q385 646 400 640T432 625Q436 625 444 628Q449 640 454 650T472 660Q481 660 503 649Q527 638 527 612Q527 604 527 594T526 575Q526 570 527 566Q528 561 529 555T531 540L517 488Q508 459 474 459Q466 459 455 466T439 482Z"  />
<glyph unicode="T" horiz-adv-x="671" d="M301 513Q299 524 294 539Q292 547 292 551T291 564Q287 574 272 582Q275 582 260 583T210 588Q205 586 198 582T181 573Q170 557 170 543Q170 541 171 534T176 510Q174 498 172 481T167 438Q164 430 162 421T151 393Q150 385 149 377T143 357Q141 356 137 354T128 348Q96 348 76 390Q80 402 80 418T84 458Q84 463 84 470T85 490Q85 493 86 499T88 508V518Q88 526 87 540T85 562Q85 560 86 570T91 600Q96 643 124 658Q147 668 194 668Q202 668 210 669T232 671Q244 673 252 674T268 675Q276 675 293 675T318 674Q327 674 345 675T373 677Q381 677 391 677T419 674Q436 672 446 672T465 672Q467 672 476 673T500 677Q530 681 533 680L567 674Q598 653 600 606Q607 544 612 531L611 511Q611 503 608 490T605 469Q605 458 609 451Q612 441 614 428T616 396Q616 378 602 364Q588 350 572 350Q564 350 560 350T552 351Q513 378 513 456V488Q513 557 482 576Q456 596 439 596Q415 596 393 547Q390 536 388 520T386 484Q386 479 388 470T393 448Q390 431 388 413T386 374Q386 370 385 363T383 351Q383 342 386 323Q387 311 387 305T387 292Q387 282 386 273T382 256Q383 246 383 238T386 225Q387 220 387 213Q387 210 386 207T384 200Q383 187 383 178T382 163Q382 159 383 153T384 144Q386 136 386 126T386 104Q386 97 396 94L422 99Q429 99 435 96L448 89Q460 88 473 84T501 75Q513 68 513 52Q513 17 441 9Q423 6 346 6Q341 6 335 6T318 4H288Q267 4 239 10Q236 10 230 11T215 14Q177 22 177 39Q177 66 219 75Q267 81 271 89Q275 96 279 106T289 134L291 144L292 161Q294 169 296 178T301 204Q301 208 301 211T302 223V229Q302 234 302 237T300 246L295 264Q298 270 298 276Q298 285 296 302T294 328Q294 334 294 346T295 363Q295 362 282 400Q282 408 284 414T289 429Q293 438 295 444T298 455L301 513Z"  />
<glyph unicode="U" horiz-adv-x="606" d="M418 495Q418 500 418 508T419 521Q419 525 419 530T418 539Q418 544 419 555T420 572Q420 588 379 603Q337 621 337 648Q337 670 363 684Q368 687 379 689T409 697Q416 697 429 693Q439 691 443 690T449 688Q461 687 472 686T491 685H530Q550 685 575 674Q602 659 602 641Q602 621 552 603Q520 593 511 563Q511 549 510 534T505 505Q504 503 503 485T500 433Q498 413 497 357T492 209Q484 189 477 150Q475 141 475 134T471 124Q465 111 455 102Q452 99 448 96T438 88Q430 82 408 49Q405 44 386 40Q357 34 324 31T253 27Q213 27 194 37Q189 41 177 50T148 76Q144 81 138 86T121 101Q98 128 89 163Q86 180 85 198T79 233Q76 245 74 255T68 276Q76 336 78 334Q78 342 72 359Q70 367 69 373T68 383Q68 388 68 397T69 420Q72 444 72 458Q72 468 71 479T66 504Q64 519 63 530T62 547Q62 560 65 569Q65 597 48 603Q46 605 44 605T39 608Q29 613 24 617T14 625Q5 630 0 649Q28 697 68 697Q69 697 77 694T88 691Q96 690 103 690T120 690Q124 690 131 690T147 692T163 693T176 694Q180 694 190 692T203 690Q222 688 231 687T242 685Q264 677 264 654Q264 631 226 616Q182 596 179 585Q171 568 166 535T157 454Q155 446 173 410Q169 410 163 353Q164 345 165 336T168 314Q170 311 167 301T163 288Q163 281 166 272Q169 264 169 258T168 249Q168 247 166 242T158 229Q148 215 148 207Q148 158 164 137Q191 106 213 101Q218 99 226 98T246 94Q248 94 252 92Q259 88 271 84Q289 76 297 76Q317 76 340 85Q343 88 351 93T373 109L380 115Q391 124 397 129T405 135Q415 146 415 167Q415 202 409 213V217Q409 231 418 252Q421 264 423 272T425 285Q425 290 424 293T422 300Q422 316 421 337T415 386Q413 391 414 398T418 416Q420 425 421 431T422 444Q419 444 419 458Q418 466 418 475T418 495Z"  />
<glyph unicode="V" horiz-adv-x="670" d="M422 563Q416 575 393 588Q376 599 376 611L384 636Q394 657 464 657Q469 657 477 656T497 654Q520 649 531 649Q534 652 539 652Q594 652 600 638Q602 635 603 631T606 619L600 599L569 575L536 566Q527 563 527 544Q526 542 525 540T523 534Q519 529 517 522T511 504Q503 485 503 448Q503 445 504 439T505 429Q505 434 494 395Q490 388 485 363Q484 359 461 320Q456 296 452 258Q447 246 442 229T428 186Q426 177 426 165T422 135L412 98Q409 90 405 80T396 53Q393 41 387 27T372 -4Q355 -8 340 -10T308 -12Q286 -12 261 36Q242 71 233 131Q230 145 226 167T216 219Q216 222 214 228T209 246Q209 248 205 267T193 325Q192 329 192 334T187 347Q187 355 187 363T186 383Q182 400 179 421T168 474Q164 482 159 491T145 514Q147 534 148 544T150 556Q150 570 134 586L94 600Q68 612 68 629Q68 639 81 645T107 652Q115 652 131 651T156 649Q159 649 165 650T176 652Q184 652 196 652T213 651Q222 651 230 654Q267 654 287 629L288 606Q279 601 270 598T251 590Q233 578 233 547Q233 546 236 535T243 498Q246 488 252 454Q253 450 256 443T262 423Q263 422 268 397Q271 379 273 366T276 344Q276 331 278 327Q279 325 280 322T282 312L284 266Q284 263 288 250T302 213Q302 198 314 184Q338 193 346 222Q347 235 348 246T353 269Q361 290 367 305T377 334Q379 342 379 351T383 372Q388 383 392 393T400 412Q407 422 410 481Q414 535 420 543L422 563Z"  />
<glyph unicode="W" horiz-adv-x="717" d="M446 518Q455 549 455 552Q455 565 440 573T410 590L403 611Q403 642 432 651Q440 652 453 653T488 654Q510 654 531 651T573 641L593 624L605 599Q601 591 597 586T583 573Q571 565 565 561T556 553Q533 492 528 389Q528 376 524 367Q523 362 522 353T520 330Q517 320 515 305T510 269Q514 260 514 248Q514 244 514 234T511 202Q508 194 506 183T500 154L497 140Q503 107 503 102Q502 101 500 94Q498 89 496 83T491 69Q486 57 483 48T477 26Q465 0 445 0Q425 0 405 29Q397 41 393 53T384 79Q384 83 384 90T383 111Q383 200 328 226Q324 221 317 212T302 189Q301 172 300 153T295 114Q285 93 272 73T240 32Q230 19 212 19Q208 20 203 21T193 24Q190 29 188 33T183 46Q174 74 174 115Q174 120 177 131T181 150Q181 158 180 168T170 192Q160 216 160 239Q160 247 163 259T167 279Q167 281 165 286T160 302Q151 321 151 330Q155 338 156 345T157 361Q157 382 155 399T150 433Q150 441 145 458V498Q144 546 124 566Q117 572 98 580Q90 584 84 588T72 599Q71 602 70 604T69 611Q69 645 135 645Q183 645 202 635Q229 635 271 626L276 615Q276 605 242 577Q231 569 228 531Q228 518 227 506T225 480Q223 476 223 471T220 456Q219 453 219 450T220 442Q222 437 222 433T222 428Q222 431 221 422T219 395Q223 387 223 363Q223 355 223 341T222 305Q222 305 230 291L251 279Q252 281 253 284T258 292Q256 300 256 308T253 324Q256 330 272 341Q288 350 291 372Q292 383 293 391T295 410Q302 421 308 444Q311 447 313 447T318 449H338Q369 435 393 405Q396 393 398 381T405 356Q413 321 426 314Q428 317 430 322T435 348L448 400Q451 421 453 436T455 464Q455 476 451 491Q446 513 446 518Z"  />
<glyph unicode="X" horiz-adv-x="684" d="M389 575Q389 574 382 603Q373 642 373 660Q382 677 402 677Q418 677 438 668Q456 665 465 665T478 665Q482 665 497 671Q511 678 518 678Q553 678 573 665Q575 663 579 660T592 651L599 629Q599 619 583 609Q562 607 530 599Q511 590 488 553Q467 518 467 494Q467 491 466 487T465 474Q462 469 457 461T441 442Q421 421 416 403Q419 393 420 380T425 346Q423 338 426 323T435 282Q440 274 447 267T464 253L471 240Q468 220 484 193Q489 183 497 170T517 138Q528 125 557 115Q590 105 598 95Q603 90 609 81T624 59Q624 53 613 35Q605 30 599 26T585 17Q577 13 552 13Q547 14 543 15T536 16Q504 16 503 14Q499 14 494 14T480 12Q471 10 466 10T455 10Q425 10 416 27Q405 47 405 56Q405 61 408 72T412 91Q412 95 411 100T408 112Q399 127 399 132Q396 140 394 150T389 177Q387 180 384 190T373 217Q359 257 353 261Q351 262 348 264T338 271Q337 269 333 265T324 252Q323 249 320 244T314 233Q312 228 311 223T305 209Q301 201 294 189T278 160Q276 155 275 150T269 135Q266 131 263 125T255 111L252 98Q252 95 253 90T258 78Q266 61 266 56Q265 52 253 40Q216 23 190 23H117Q103 23 91 37T78 65Q81 68 83 72T91 85Q115 89 144 107Q151 122 162 144T192 197Q193 199 200 210Q202 214 204 221T212 239Q213 242 215 246T222 258Q225 266 229 275T238 292Q239 298 268 315Q275 324 275 347Q275 346 294 393V402Q294 421 265 471Q236 521 210 540Q193 557 175 569T138 599Q135 600 130 602T115 606Q101 610 92 624Q92 646 127 660Q156 668 181 668L230 660Q259 664 272 666T284 668Q324 668 324 636Q324 628 315 617T305 589Q305 508 336 508Q343 508 351 513Q389 534 389 575Z"  />
<glyph unicode="Y" horiz-adv-x="649" d="M428 564L423 582Q380 622 380 629Q380 642 405 648Q438 657 456 662T480 668Q484 668 505 669T566 671Q619 671 619 638Q619 617 599 602Q578 586 559 586Q550 586 544 583T531 575Q528 571 514 548T474 478Q470 470 462 459T439 432Q431 422 427 411T420 387Q412 347 410 346Q405 334 401 324T392 302Q384 280 384 259Q384 241 387 226T396 196Q396 185 392 170Q387 150 387 145Q387 122 396 92Q398 87 412 84Q430 87 444 87T469 79Q501 60 501 42Q501 26 468 20Q457 17 449 16T434 12L422 9H393Q388 9 375 14T354 19Q341 19 331 13Q326 12 316 12T292 10Q279 7 270 7T253 7Q235 7 225 16L215 37Q215 53 252 59Q296 65 304 79Q320 99 321 135Q323 149 323 158T323 173Q323 181 319 196T314 220Q314 229 317 240Q317 252 313 279T300 348Q298 356 295 364T284 382Q274 396 268 405T258 419Q254 424 248 435T230 464Q227 472 221 484T207 514Q203 523 197 534T181 562Q178 567 173 575T157 596Q154 598 143 598Q137 598 127 596T108 593Q81 593 81 624Q81 634 94 648Q102 659 158 661Q179 662 190 663T204 664Q292 664 300 647L305 632Q305 617 285 605Q265 594 265 577Q265 558 300 492Q304 481 309 469T320 444Q336 408 353 408Q365 408 380 449Q383 463 386 474T393 500Q395 503 396 506T403 518L428 564Z"  />
<glyph unicode="Z" horiz-adv-x="717" d="M432 570Q432 574 420 582Q415 582 408 581T389 580Q379 579 371 579T359 579Q351 579 337 582T315 585Q309 585 276 576Q246 567 229 567Q211 567 197 550Q181 534 180 514Q180 493 177 487Q174 479 174 468T170 441Q168 427 167 420T164 410Q159 402 135 402Q125 402 121 408Q105 427 105 474V480Q105 483 105 486T107 497Q108 502 108 508T111 524L114 582Q115 590 119 596T131 611Q161 644 217 644Q225 644 238 647T259 651Q268 651 284 649T310 647L444 648Q452 649 461 650T484 654Q504 649 515 645T528 641Q556 628 556 608Q556 582 543 559Q534 542 523 528T494 501Q489 496 485 492T477 482Q469 466 456 445T425 395L421 391Q419 389 417 387T410 382Q391 364 372 336Q368 330 363 322T350 301Q336 284 308 243Q305 239 294 228T274 204Q268 193 251 169T204 109Q181 81 181 65L196 58Q204 61 210 61T225 65Q230 65 238 64T259 60Q270 58 278 57T294 56Q300 56 323 65Q342 73 354 73Q363 73 379 69Q394 65 405 65Q433 65 477 132Q478 141 484 158T500 202Q501 212 503 225T511 258L528 265Q549 265 564 233Q572 217 575 205T579 183Q579 175 578 164T575 138Q573 123 572 113T570 94Q570 89 571 80T573 65Q573 21 549 -1Q523 -9 507 -9Q457 -9 442 -3Q437 -3 430 -3T415 -4Q395 -7 386 -7Q369 -7 356 -7T331 -6Q328 -4 322 -4T304 -1Q296 0 290 0T278 0Q268 0 251 -4Q229 -9 223 -9Q218 -10 213 -10T199 -10Q190 -10 175 -10T151 -9Q110 -9 102 -1Q85 14 85 39Q85 54 101 75Q117 94 132 125Q136 136 142 153T161 193Q188 225 209 256T248 320Q256 328 266 341T292 373Q298 383 306 397T328 429Q334 434 341 443T359 464Q363 472 369 480T386 503Q391 514 402 530T432 570Z"  />
<glyph unicode="[" horiz-adv-x="422" d="M68 366Q68 371 67 380T63 402Q61 414 60 424T59 442Q59 450 60 465T62 488Q62 496 61 504T59 524Q57 536 56 545T55 560Q55 573 59 590Q63 607 63 621Q63 629 59 646T55 671Q55 679 58 694Q61 703 61 709T60 720Q60 729 59 746T58 772Q58 780 58 789T59 808Q59 831 60 832Q60 835 72 847Q81 848 81 852Q86 852 93 855T109 858Q114 858 123 857T135 855L147 850L154 860Q192 860 197 863Q201 863 206 859T215 855Q223 855 232 861T245 870Q274 857 282 857Q286 857 292 857T306 859T320 860T331 861L330 863Q350 855 358 852T366 848Q366 844 369 837Q369 820 351 805Q341 797 334 793T318 789Q276 789 269 799L255 802Q250 801 244 798T230 792Q222 791 213 791T194 791L167 793Q166 776 166 742T166 655L163 559Q163 550 158 527Q156 516 155 509T154 495Q154 483 163 459Q166 448 168 438T170 420Q170 416 170 409T168 393T167 378T166 366Q166 357 169 340T173 314Q173 309 172 304T168 291Q166 283 165 278T164 271Q164 267 181 236Q183 224 184 217T186 206Q186 203 186 200T184 196Q180 184 180 145V141Q180 138 180 135T181 130Q185 122 185 118T184 109Q184 98 183 86T180 63Q174 31 174 32Q174 12 179 7Q181 -7 182 -17T183 -33Q183 -38 181 -60T173 -120L184 -121Q195 -131 204 -131Q214 -131 219 -125Q224 -125 232 -120Q254 -115 277 -115T323 -122Q331 -127 344 -127Q344 -127 367 -117Q384 -121 403 -151Q402 -156 398 -163T389 -180Q379 -192 366 -192Q356 -192 348 -187L331 -183Q321 -183 311 -204Q303 -201 299 -201T292 -202Q287 -202 285 -203Q277 -203 262 -200Q256 -194 251 -194Q245 -194 226 -207L216 -210Q181 -199 179 -196L177 -200Q167 -202 160 -203T150 -204Q136 -222 128 -222Q124 -222 114 -210L98 -194Q86 -187 86 -176Q88 -171 88 -167Q88 -162 81 -143Q77 -134 76 -128T75 -117Q75 -109 75 -98T76 -73V-30Q76 59 66 78Q65 116 65 135T65 157Q65 160 65 167T66 186Q68 198 68 206T68 222Q68 236 67 244T65 255Q63 265 62 277T60 305Q60 355 68 366Z"  />
<glyph unicode="\" horiz-adv-x="605" d="M354 287Q359 277 367 263T387 228Q389 216 397 193T420 137Q438 108 450 83T472 32Q474 28 475 22T480 7Q481 4 483 -2T491 -19Q496 -33 504 -54T524 -104Q529 -112 534 -122T547 -148Q551 -158 553 -172T560 -207Q562 -211 567 -220T580 -246Q593 -269 593 -289Q593 -318 552 -318Q542 -310 527 -298T491 -268L480 -235Q478 -227 476 -218T468 -196Q456 -179 443 -157T413 -105Q412 -93 408 -78T393 -42Q388 -34 381 -25T363 -1Q355 15 351 29T343 55Q335 63 328 78T310 114Q306 124 303 137T291 168L252 222Q252 238 236 264Q213 297 212 302Q212 314 210 330T200 367L174 406Q174 408 166 422Q137 479 117 521T85 595Q80 607 73 623T58 664Q59 664 37 694Q26 713 20 730T13 763L32 808Q55 821 73 821Q102 821 140 770Q145 764 149 759T154 747Q156 739 158 730T164 706Q167 701 170 695T179 680Q180 674 184 665T196 638Q199 630 203 621T215 598Q221 592 225 588T230 579Q232 568 235 555T243 526Q246 523 252 514L298 416Q306 402 315 381T337 331Q342 310 354 287Z"  />
<glyph unicode="]" horiz-adv-x="422" d="M367 288Q367 278 364 262T360 236Q360 228 361 219T364 197Q366 183 366 174T369 158Q369 145 369 128T370 85Q370 82 370 79T369 72Q367 69 367 66T367 59Q367 47 367 32T366 -4Q363 -39 363 -40Q363 -51 366 -75Q367 -87 368 -95T369 -111Q369 -119 366 -130T359 -160Q359 -165 359 -168T360 -173Q360 -176 347 -192Q328 -210 328 -212L318 -217Q313 -217 307 -210Q299 -202 297 -202Q293 -202 287 -201T269 -197V-194Q257 -194 248 -202T230 -210Q222 -210 215 -202T199 -194Q192 -194 186 -202Q181 -202 176 -202T163 -204Q161 -204 161 -204T157 -203Q138 -203 137 -207Q129 -187 115 -187Q105 -187 98 -192Q91 -196 81 -197Q68 -197 66 -192Q43 -176 43 -158Q43 -146 76 -121Q81 -124 86 -126T99 -131Q135 -123 159 -120T197 -117Q200 -117 212 -120Q226 -130 239 -130Q242 -130 247 -128T259 -120L271 -117Q271 -108 269 -96T264 -68Q259 -51 258 -40T256 -20Q256 -15 257 -9T259 6Q261 16 262 22T264 33Q264 41 262 50T256 73Q253 87 251 98T249 117Q249 125 250 129T251 137Q252 145 252 150T252 164Q252 176 249 192T245 226Q245 230 248 239Q248 247 256 258T264 281Q264 282 259 297Q255 310 255 320Q255 341 258 347Q259 355 259 359T259 367Q259 369 258 376T255 396Q253 408 253 415T252 431Q252 434 255 451T265 498Q257 530 254 569T246 657Q246 686 246 715T243 779L242 795Q227 793 213 792T187 791Q179 791 170 795Q162 798 159 799T153 801L140 796L132 792Q119 787 109 786T89 785Q72 785 56 801Q39 816 39 832Q39 831 42 842Q48 842 59 848Q64 851 68 853T75 857Q80 857 85 857T98 855Q106 855 111 855T120 854Q124 854 129 856T143 861Q155 868 160 868Q165 868 174 862T192 855Q197 855 203 861L209 864Q217 861 228 861T252 861Q254 855 261 854L271 858Q275 858 283 860T297 863Q320 863 334 852L348 837V832Q347 822 350 804Q351 792 352 785T353 773Q353 765 352 751T350 729Q350 717 355 701T360 675Q360 667 356 653T351 629Q351 619 357 600Q363 583 363 567Q363 559 362 550T360 527Q359 513 358 503T357 485Q357 481 358 474T360 456Q361 447 362 440T363 428Q363 419 360 402T356 376Q367 356 367 288Z"  />
<glyph unicode="^" horiz-adv-x="662" d="M337 717Q363 717 386 688Q389 679 392 674T400 663T410 650T423 629Q438 608 458 570Q460 557 465 539T480 498Q489 482 501 463T530 422Q534 403 534 384Q534 329 487 318L469 324Q464 327 455 332T435 344Q419 349 419 359Q419 363 422 370T425 383Q425 405 414 419T383 455Q379 463 379 485Q379 520 333 554Q327 548 319 537T298 511Q289 500 289 478Q289 476 286 474T278 454Q276 446 273 436T265 412Q262 409 257 403T245 389Q237 370 216 340Q207 334 184 334L154 337Q130 350 130 369Q130 384 130 392T132 405Q135 425 148 441Q158 451 163 457T170 468Q173 476 176 485T183 505Q191 521 204 542T232 590Q238 603 245 612T259 630T276 649T294 675Q295 679 299 683T310 697Q326 717 337 717Z"  />
<glyph unicode="_" horiz-adv-x="760" d="M91 148Q99 148 109 146T124 143H166Q169 143 175 142T184 140Q196 140 212 144Q223 146 230 147T240 148L310 151Q318 151 329 149T348 147Q350 147 355 148T367 151T379 154T390 156Q394 156 400 155T410 153Q427 149 440 149T461 150Q469 150 480 150T500 151Q510 151 518 148H559Q562 148 575 151T618 158Q623 158 638 159T680 160Q714 160 752 124Q760 103 760 68Q760 39 736 20Q713 0 681 0Q673 0 664 0T638 3Q624 4 614 5T596 6Q591 6 584 5T567 4Q556 3 549 2T539 1H456Q448 1 436 4T415 7Q394 7 390 3Q370 0 341 0T261 3Q254 3 244 4T216 7Q202 9 190 10T170 12Q165 12 154 10T138 7Q80 7 55 16Q10 31 10 76Q10 78 16 98Q22 119 52 132Q81 148 91 148Z"  />
<glyph unicode="`" horiz-adv-x="560" d="M433 626Q437 615 439 609T441 598Q441 581 425 569T392 557Q390 561 386 564T373 573Q364 575 340 577Q337 577 333 578T324 580L285 586Q267 590 252 599Q249 607 240 614T222 621L212 619Q203 613 199 613Q191 613 180 616T161 619Q138 619 128 649Q118 670 118 696Q118 711 134 724Q137 724 154 736Q170 749 176 749Q179 749 193 726Q206 704 230 704Q238 704 247 707T261 711Q268 711 279 696Q290 681 298 681Q301 681 304 684T311 687Q312 687 314 686T321 684Q334 679 360 675Q360 639 390 644L395 645H413Q425 640 427 636T433 626Z"  />
<glyph unicode="a" horiz-adv-x="662" d="M252 39Q138 39 99 95Q59 119 59 176Q59 182 76 233Q84 254 97 270T130 297L144 305Q147 307 151 309T158 315Q180 328 213 328Q224 328 240 336Q249 339 255 341T266 343Q266 339 289 336Q297 328 304 328Q345 328 359 343Q360 344 361 346T366 351L370 356Q383 356 386 379L383 387L373 400Q354 423 334 429Q331 429 319 431T285 436Q278 436 262 428Q237 348 190 348Q185 348 174 351T147 360Q96 380 96 409Q96 441 122 485Q124 487 134 491T164 503Q172 506 178 509T193 518Q208 527 274 527Q307 527 337 523T392 508L413 500L436 491Q448 483 457 478T471 467L472 464L475 462Q488 437 488 389Q488 386 487 383L485 370Q484 367 484 364T484 359V310Q484 301 482 285T480 259V245Q480 240 480 235T482 225Q484 213 484 205T484 189Q484 177 483 168T482 150Q486 146 490 144L498 148L510 160Q519 190 559 190Q595 190 595 144Q595 121 576 101Q512 37 490 37Q486 37 474 42T442 58Q422 68 410 72T392 76Q386 76 379 74T361 69Q341 59 333 59L302 55Q292 55 262 39H252ZM341 168Q343 170 343 170T346 171L350 176Q364 190 380 217L374 229L363 236L357 238L356 239Q344 240 327 251Q322 252 318 253T311 256Q307 256 274 240H255L256 239Q251 239 240 241T212 246L170 225Q170 204 169 194T168 180Q168 152 174 145Q174 115 220 115L274 131Q283 133 295 153Q305 168 341 168Z"  />
<glyph unicode="b" horiz-adv-x="632" d="M130 10L112 6L81 27Q65 62 69 79L73 89V94Q73 102 71 114T69 131V238Q73 255 73 255Q73 263 71 281T69 308Q69 317 72 331T76 354Q76 413 63 429Q65 434 63 439T60 448Q60 467 69 481Q69 553 53 569Q47 575 39 575Q8 578 -22 592Q-24 593 -28 595T-37 602Q-42 607 -42 616Q-42 636 -12 660Q2 665 32 665Q70 665 93 663T127 658Q129 658 156 635Q159 627 160 617T163 595Q163 583 163 573T164 552Q170 484 180 477Q184 468 196 468Q236 473 255 474T272 475Q305 475 383 451L442 400Q454 389 459 344Q459 340 468 327Q477 313 477 307V206Q477 163 468 124Q462 87 409 30Q395 17 360 0Q340 -9 327 -14T304 -20Q293 -14 264 -14H246Q238 -14 231 -14T215 -12Q211 -12 200 -7T168 10H130ZM276 73Q280 73 292 78Q314 86 360 132L369 148Q372 157 373 167T380 190Q383 224 383 241T383 259Q383 308 350 346Q340 354 331 357T312 369Q298 377 288 380T272 383Q243 383 199 337Q163 301 163 236V202Q163 141 225 98Q229 95 235 91T251 82Q270 72 276 73Z"  />
<glyph unicode="c" horiz-adv-x="694" d="M357 360Q361 377 361 387Q361 398 347 402Q341 402 324 395Q310 395 300 395T284 397L269 395Q227 367 204 325Q193 302 187 280T180 235Q180 211 193 197Q194 196 201 189T223 168Q231 161 233 147Q240 119 307 112Q323 109 331 109T343 109Q367 109 409 151Q413 155 442 193L464 222Q478 240 494 240Q521 240 537 206Q550 181 550 150Q547 143 529 121T480 58Q474 54 466 48T448 32Q425 13 408 13Q362 13 357 7Q337 4 314 2T265 0Q209 0 164 42Q159 47 154 54T140 69Q132 78 122 91T98 121Q85 140 85 176Q85 182 71 223Q72 237 75 255T84 300Q96 363 101 374Q111 409 141 439Q178 476 186 480Q189 481 203 485T243 495Q260 501 283 503T336 505Q340 505 350 506T366 508Q371 508 402 497Q414 493 432 484T477 458Q488 450 496 447T508 439Q524 427 532 409T553 351Q549 323 528 294Q507 266 477 266Q448 266 410 295Q407 300 401 306T387 323Q383 327 376 336T357 360Z"  />
<glyph unicode="d" horiz-adv-x="655" d="M223 6Q209 8 200 10T183 14Q135 32 92 91Q68 164 68 197V219Q66 219 66 220V228Q65 230 65 233T65 239Q65 252 69 268Q72 280 74 287T76 298V317Q80 320 80 324T84 333Q85 346 87 359T92 389Q124 438 177 461Q212 477 229 477Q237 477 255 476T282 475Q327 451 343 451Q373 451 373 488Q373 493 373 501T372 514V517Q375 522 376 531T377 553Q377 572 353 586Q343 591 332 594T310 598Q311 598 303 596T274 590Q251 594 251 628Q251 655 291 661Q307 664 320 664T350 667Q358 668 368 668T395 672Q406 667 418 663T442 654Q468 639 468 615Q468 607 465 597T461 582Q461 562 468 550Q469 545 470 534T471 504Q471 501 469 494T464 472Q460 461 459 454T458 441Q458 436 461 425T472 395Q468 378 466 358T464 312Q464 304 468 288Q472 272 472 264Q472 255 467 239T461 209Q461 205 463 202T468 193V168Q468 164 468 157T467 143T466 128T465 117Q465 78 487 78Q495 78 507 79T528 81Q543 81 556 62Q564 54 567 46T570 30Q569 28 563 22T547 6Q539 2 528 1T503 0L431 6Q413 6 382 36Q365 31 350 25T321 9Q292 6 223 6ZM373 193V235Q373 236 371 247T366 278Q355 337 318 364Q281 393 262 393Q246 393 225 383Q209 378 196 364T168 330Q168 279 157 268L150 251Q153 243 157 234T166 210L161 189Q161 158 179 127Q199 89 217 78Q232 71 252 71Q307 71 360 150L373 193Z"  />
<glyph unicode="e" horiz-adv-x="588" d="M36 265Q36 326 56 386Q63 404 70 417T86 436Q122 455 168 490Q191 501 215 506T265 511Q268 511 279 510T311 505Q325 502 340 501T369 495Q401 489 423 474Q427 470 432 462T446 436Q456 424 468 408T497 366Q511 339 511 307Q511 290 503 276Q494 266 436 233Q431 229 418 229Q407 229 400 233Q392 233 380 239T359 245Q347 245 328 236Q309 226 302 226Q286 226 264 232Q240 238 225 238Q220 238 214 237T204 235Q196 235 187 235T170 233Q150 228 150 210Q150 181 193 141Q237 101 265 101Q270 101 279 102T292 104Q322 104 340 124Q343 125 344 127T348 132Q354 136 360 139T374 148L390 164Q394 167 399 172T412 183Q452 204 480 204Q504 204 504 164Q504 131 455 89Q438 73 419 62T379 39Q374 37 365 36T343 30Q305 10 287 10Q281 10 272 12T249 17Q235 22 226 24T213 29Q205 29 197 30T176 33Q174 35 167 38T145 49Q131 56 122 62T107 75Q104 77 79 112Q65 129 48 161Q42 199 39 223T36 265ZM370 324Q383 324 383 338Q383 373 372 384Q350 407 328 418T282 429Q279 428 277 427T271 425Q262 419 239 410Q231 402 219 395T193 379Q185 377 178 374T160 364Q145 352 145 331Q145 317 190 317Q195 315 198 315T204 314Q220 314 243 317Q247 319 253 314L265 317Q277 320 292 322T325 324H370Z"  />
<glyph unicode="f" horiz-adv-x="608" d="M264 563Q264 514 325 514Q330 514 336 514T350 516Q355 516 363 519T376 523Q395 523 395 485Q395 453 347 449Q284 442 269 423Q264 418 264 408Q264 404 271 373Q271 368 270 362T266 346Q264 337 263 330T262 318Q262 310 263 292T265 265Q265 241 261 233Q262 213 262 202T264 187Q265 172 268 162T277 145T295 135T325 131Q362 130 382 118Q400 104 400 88Q400 56 360 56Q342 53 314 51T246 45Q231 45 207 44T151 40Q131 39 118 38T99 37Q88 37 43 55Q35 62 35 72Q35 96 76 120Q86 128 101 135T138 153L160 160Q179 176 179 203Q179 211 175 226T170 249Q170 268 171 290T176 341Q178 362 179 373T180 386Q180 391 145 426Q131 429 118 442Q105 445 89 449T49 462Q40 471 40 480Q40 489 52 501Q62 505 98 510Q110 512 147 531Q156 535 170 552Q171 557 173 568T179 598Q180 608 184 619T193 644L245 697Q252 704 282 711Q299 717 309 718T325 720Q335 720 346 720T374 717Q395 714 406 713T422 711L465 707Q534 702 534 554Q534 511 480 511Q456 511 439 521Q436 525 429 532T410 552Q400 563 393 571T383 585Q383 591 380 602Q380 610 385 620T390 636Q390 645 377 654L369 649Q364 646 358 644T343 638Q335 636 327 635T305 629Q278 618 266 576Q265 571 265 568T264 563Z"  />
<glyph unicode="g" horiz-adv-x="654" d="M285 -197Q271 -197 249 -195T194 -184Q186 -183 177 -182T154 -177Q73 -156 33 -72Q32 -69 31 -65T30 -56Q30 -29 45 -14L56 19Q59 24 48 56Q40 73 38 84T36 101Q36 111 52 137Q60 149 67 156T79 168Q95 176 117 194L124 212Q119 225 118 234T112 251Q111 254 110 258T109 265V297Q109 298 109 299T108 304Q107 307 107 312Q107 323 120 359Q136 406 199 442Q211 450 220 454T236 462H285Q288 462 299 461T333 456Q356 445 371 439T395 432Q403 432 414 436T444 449Q475 468 498 468H501Q513 463 530 457T570 441Q574 437 576 433T583 420Q596 404 596 364Q596 320 518 320Q500 320 484 304Q476 296 471 274Q468 262 466 254T461 240L449 222Q439 205 424 189T389 156Q367 138 348 129T311 115Q303 117 295 120T278 128Q270 131 262 132T245 137H220Q216 137 209 136T196 134Q151 134 150 132Q121 129 121 102Q140 83 167 76Q214 85 239 89T269 92Q271 91 283 90T321 89Q323 91 324 91T330 92Q335 94 342 95T359 99L368 93Q375 88 395 76Q424 71 448 62T495 40L524 4L536 -52Q540 -67 511 -118Q487 -157 410 -183Q391 -190 360 -197H347Q339 -197 331 -199T314 -202Q309 -202 302 -202T287 -199L285 -197ZM314 -134Q322 -131 329 -129T348 -121Q356 -121 366 -120T387 -115Q404 -105 414 -99T432 -88Q453 -69 464 -46Q464 13 363 13Q317 30 307 30H226Q209 30 158 6Q139 -3 134 -9Q122 -21 121 -35Q120 -43 119 -52T114 -75Q111 -81 122 -91Q126 -94 134 -95T156 -98Q170 -100 178 -102T187 -107Q215 -128 217 -128Q222 -128 229 -127T239 -125Q240 -125 243 -126T252 -128Q277 -134 305 -134H314ZM372 279Q368 289 367 298T360 315Q361 323 361 329T366 343Q366 358 337 372Q313 384 295 384L291 382Q288 383 276 379T240 366Q235 362 227 353T204 328Q202 322 201 314T200 295V258Q200 245 217 220Q233 199 246 193Q255 192 260 191T269 190Q273 190 280 192T302 200Q307 203 314 205T330 210Q333 212 348 233Q356 243 359 249T366 259L372 279Z"  />
<glyph unicode="h" horiz-adv-x="675" d="M393 317Q393 340 377 377Q367 399 301 399Q269 399 249 373Q241 359 235 346T220 320Q216 313 211 303T197 278Q197 269 198 257T200 230Q194 215 191 199T187 166Q186 162 185 156Q184 151 183 144T180 125L184 109Q188 108 199 104T235 92Q275 82 275 60Q275 45 251 29Q225 13 210 13Q202 13 191 14T171 16Q123 16 104 7Q93 3 86 3Q82 4 75 8T56 17Q45 31 45 46L48 68L86 111Q104 130 104 163Q104 199 102 203Q96 257 96 261Q96 268 104 294Q107 306 109 314T111 327Q111 335 108 349T105 372Q105 401 107 418T112 444Q117 460 118 470T120 485Q120 495 118 510T109 549Q106 563 104 570T101 580Q92 598 78 602Q58 608 53 616L35 642Q35 657 48 671Q64 687 75 687Q158 687 187 652Q200 638 200 629Q200 625 200 618T198 604T197 591T196 580Q196 577 198 567T204 537Q197 510 197 495L202 471L220 442Q227 442 258 459Q276 471 287 476T302 484Q317 490 377 490Q379 490 429 461Q434 459 441 452T461 433Q482 407 482 397Q484 392 484 386T488 369Q490 359 491 352T492 341Q492 338 491 322T487 272Q487 269 485 260T482 246Q482 238 483 226T484 209Q485 184 485 173T485 158Q488 126 505 114Q509 110 512 107T524 98Q537 84 547 56Q547 28 491 23Q479 20 467 16T438 7Q409 12 389 15T356 19Q350 19 340 17T325 14Q300 14 300 63L307 94Q319 101 325 101Q330 101 339 99T357 96Q372 96 386 128Q396 152 396 173L386 210Q389 221 391 248T393 317Z"  />
<glyph unicode="i" horiz-adv-x="540" d="M179 387Q179 412 151 413Q131 416 109 416Q94 419 79 424T50 435Q36 443 29 447T20 454Q10 461 10 484Q10 509 66 523Q89 527 102 530T118 533Q121 533 128 531T148 526Q160 522 167 521T180 520Q183 521 187 521T196 523Q204 524 215 526T243 531L274 505Q277 497 281 486T289 461Q291 452 293 442T300 420V412Q300 390 300 373T295 341Q297 325 296 305T295 259Q295 255 291 243Q289 240 288 238T284 230L282 210H281Q281 201 284 179Q285 177 287 171T291 153Q292 132 317 130Q312 131 322 131T361 131H366L410 127Q446 123 446 88Q446 63 419 36Q414 35 406 34T387 33Q364 33 333 34T259 37Q216 39 184 40T131 42H125L63 40L66 39Q41 41 35 48Q23 48 16 57T1 79Q1 119 53 125Q57 125 62 126T75 127Q77 128 80 129Q82 130 86 131T95 134Q108 140 117 140Q121 140 138 135Q146 134 152 133T161 131Q170 140 173 168Q173 200 174 221T177 252Q176 269 177 301Q177 311 178 332T179 387ZM130 626Q130 639 137 661Q137 686 192 707Q204 713 230 713L243 711Q247 708 252 704T268 694Q273 689 277 682T289 667Q294 645 294 619Q294 603 269 583Q244 566 228 566Q218 566 206 570T177 582Q138 598 135 609L130 626Z"  />
<glyph unicode="j" horiz-adv-x="563" d="M318 393L287 425Q275 425 258 426T219 429Q174 435 153 435Q128 435 128 461Q130 469 133 478T141 497Q154 511 189 511H203Q211 511 221 511T248 510Q275 511 292 514T317 520Q319 521 323 523T336 528Q359 528 376 511Q407 480 416 441Q419 435 419 431T420 423Q420 419 418 413T414 400T409 387T406 377Q408 372 409 366T413 353Q413 306 413 281T416 251Q413 241 411 230T408 204Q408 203 409 191T413 156Q417 129 418 115T420 102Q420 97 419 91T415 79Q408 65 408 53Q408 50 408 37T410 -3Q410 -39 395 -60Q375 -89 298 -135Q280 -143 253 -143Q179 -143 163 -135Q129 -115 110 -100T82 -75Q69 -58 63 -35T56 23Q56 42 76 60Q95 79 117 79Q150 79 189 40Q190 27 196 13Q196 5 195 -11T193 -35Q193 -71 222 -71Q225 -71 231 -71T255 -69Q264 -63 269 -58Q274 -52 282 -45T301 -30Q327 7 327 39Q327 44 325 53T321 66Q321 75 320 88T315 118Q314 121 313 125T311 138Q311 146 314 157T318 173Q318 181 319 202T320 262Q320 261 317 270T308 300Q307 301 323 336Q323 347 322 363T318 400V393ZM255 648Q255 665 261 676T282 698Q294 706 308 711T340 717L383 697Q391 688 398 679T416 658Q419 647 419 639Q419 593 363 572Q355 570 344 570T315 566L294 562Q286 562 272 590Q267 600 265 608T259 621L255 629V648Z"  />
<glyph unicode="k" horiz-adv-x="636" d="M193 438Q193 434 193 432T192 426Q190 422 190 416Q189 407 190 393Q190 385 191 380T192 372Q192 363 189 346T186 321Q186 304 200 304Q208 305 225 312Q232 317 242 330Q247 338 254 349T272 377Q280 385 287 393T294 410Q294 414 293 422T288 448Q313 491 340 491Q345 491 357 488T374 484Q382 482 389 482T409 482Q421 482 441 488Q460 494 471 494Q472 493 510 485Q515 485 520 485T533 484Q577 465 577 442Q577 421 537 412Q524 409 511 408T484 405Q459 400 436 386L393 360Q385 358 374 341Q366 333 363 329T357 321Q321 292 321 284Q321 272 334 262L356 245Q364 235 374 221T400 189Q404 185 415 176T448 145Q471 126 483 116T498 104Q508 102 513 101T520 99Q528 99 542 100T564 102Q606 102 606 50L593 22Q575 14 556 12T516 10Q511 10 505 10T488 13Q480 14 474 15T462 16Q454 16 448 14T431 9Q405 1 400 1Q333 25 333 50Q333 49 339 59T360 89Q360 113 346 120Q334 128 327 131T318 137Q317 141 310 148Q306 153 301 161T288 181Q272 206 249 206Q228 206 222 192Q189 133 189 104Q189 86 215 79Q210 79 225 76Q230 73 235 73T243 71Q246 69 251 69Q262 64 269 50L264 26Q219 6 184 6Q176 6 167 6T144 9Q127 10 117 11T101 13Q63 14 58 17Q32 24 32 49Q32 54 40 65Q56 76 84 76L108 98Q114 117 114 158Q114 162 112 167T107 181Q103 189 102 195T101 206Q101 216 105 220Q107 226 108 233T112 248Q112 252 111 258T107 274Q103 282 102 288T101 300Q101 319 105 324Q108 349 108 354Q108 356 107 363T104 383Q99 406 99 416Q99 421 103 434T108 456Q105 456 101 505Q101 517 99 534T89 577Q89 578 71 589Q20 589 20 628Q20 642 29 657T55 672Q74 672 166 651Q191 621 193 600Q191 598 189 582Q186 567 186 547Q186 544 188 538T190 528Q190 524 190 517T188 503T187 489T186 478Q186 469 190 465Q190 457 191 453T192 445Q192 439 193 438Z"  />
<glyph unicode="l" horiz-adv-x="510" d="M200 395Q200 403 200 419T199 445Q199 453 199 464T200 492Q203 509 203 520T203 540Q203 582 151 582Q137 582 130 577Q44 596 39 602Q36 605 34 608T26 616L22 634Q22 654 34 671T85 690L124 691Q203 694 207 694Q254 694 287 667Q298 657 303 651T310 641Q311 639 311 631T314 608Q316 591 317 579T318 559Q318 549 314 536Q311 521 311 513Q311 508 313 501T315 490Q315 478 316 467T318 442Q318 437 319 428T321 410Q319 410 312 374Q312 363 309 350T301 315Q301 287 292 253Q291 242 290 223T289 176Q289 123 315 105Q323 101 334 101Q345 101 369 109Q390 118 402 118Q419 118 439 98Q449 93 464 72Q460 64 454 50T439 16Q429 8 421 4T402 0Q372 0 350 14Q343 14 335 13T314 10Q302 8 293 7T278 6Q266 6 249 10Q239 13 231 13T217 14L219 16Q211 13 202 11T180 6Q136 3 131 3Q128 3 114 5T72 12Q59 15 51 15T39 19Q22 25 22 46Q22 62 33 86Q46 108 63 108Q65 108 70 107T85 102Q101 96 117 96Q118 96 129 99T161 108Q192 119 192 128V192L183 246Q183 248 185 255T190 275Q199 299 199 311Q199 320 198 337T197 363Q197 371 198 380T200 395Z"  />
<glyph unicode="m" horiz-adv-x="747" d="M258 242Q258 252 257 262T255 285Q253 288 251 301Q251 311 251 324T249 359Q249 390 226 409Q207 409 181 387Q161 370 158 350T150 310Q145 293 145 291Q149 268 151 257T153 242Q153 237 149 226T145 206Q145 192 150 187Q150 132 151 131Q153 128 174 107Q179 99 182 93T186 78Q184 72 182 67T179 59Q177 55 177 53Q166 40 156 40Q151 40 150 39Q145 37 137 36T120 30Q63 39 60 39Q55 42 49 44T35 49Q31 54 30 59T23 72Q23 87 37 105Q45 117 50 123T56 138Q58 143 58 150T60 167Q62 172 63 179T66 196V230Q68 236 68 245T71 269Q72 281 72 290T72 307Q72 404 63 418Q33 463 33 472Q33 498 94 498Q99 498 106 497T122 492Q132 489 138 488T150 487Q203 497 219 507Q229 507 241 504T268 492Q295 478 315 478Q329 478 356 491Q382 504 400 504Q451 504 465 495Q484 484 493 476T505 465Q509 457 511 449T518 429Q522 421 525 414T534 395Q534 372 534 362T533 353Q533 349 535 341T541 315Q524 269 524 161Q524 156 522 146T520 131Q520 125 543 102Q566 82 566 59Q566 26 459 26Q446 29 432 33T403 43Q389 57 389 78Q389 96 402 112Q416 126 428 141Q434 158 437 187T441 259Q441 267 440 278T439 297Q439 316 448 327Q443 342 440 352T435 367Q431 376 409 397Q395 410 384 410Q373 410 364 389Q363 379 360 367T347 338Q330 307 330 272Q330 267 330 260T331 240V210Q331 214 330 196T323 137Q323 128 360 82Q361 74 361 66T361 49Q361 30 279 30Q275 30 264 34T232 46L220 63Q222 69 226 78T236 102Q249 128 249 147Q249 150 248 154T246 161Q246 169 247 178T252 202Q258 227 258 242Z"  />
<glyph unicode="n" horiz-adv-x="703" d="M86 503Q89 501 96 501Q102 500 110 500T131 498Q141 497 157 494T193 482Q229 452 236 452Q248 455 258 459T276 467Q282 468 290 475T312 495Q333 516 366 516Q418 516 446 503Q456 499 471 491T507 469Q510 466 512 462T517 449Q522 441 527 423T541 377Q540 374 540 372T539 366Q539 354 543 343Q547 327 547 320Q541 306 541 278Q541 267 546 259Q546 239 540 217Q535 206 534 200T533 190Q533 192 534 186T537 168Q542 143 550 135L580 114Q605 94 605 69Q599 62 582 37Q570 33 557 31T527 26Q514 24 506 23T492 22Q481 19 469 27Q455 25 447 24T433 23Q429 23 424 24T413 29Q398 34 389 37T374 45Q366 50 366 68Q366 79 376 88Q384 91 392 94T410 104Q432 130 432 168Q433 191 436 207T442 232Q440 240 438 248T433 268V307Q433 312 432 317Q431 322 430 329T428 346Q426 366 424 377T420 392Q409 409 377 412Q365 407 354 402T325 389Q318 389 295 364Q287 357 282 337Q280 332 255 310Q240 297 233 278Q228 264 226 254T222 235Q222 233 230 222Q239 213 239 203Q239 197 229 161L235 137Q239 125 268 105Q292 85 292 52Q292 29 252 29Q247 29 236 31T219 33Q205 33 180 30Q166 29 157 28T140 27Q134 27 130 29Q125 30 119 31T104 33Q53 44 53 65Q53 113 101 118Q119 121 122 156Q122 164 123 177T128 203Q130 217 129 231T128 265Q127 273 124 288T121 312Q121 318 122 327T127 350L118 396Q117 406 96 412Q82 417 72 423Q58 434 58 462Q58 487 76 501Q81 501 83 502T86 503Z"  />
<glyph unicode="o" horiz-adv-x="570" d="M258 510Q263 510 268 509T276 508Q284 507 295 507T324 507Q329 505 344 498T382 474Q407 457 420 445T442 423Q445 415 446 408T451 392Q454 387 457 379T465 361Q487 316 487 284Q487 202 441 105Q420 94 397 68Q389 62 377 56T347 40Q339 37 330 34T307 26Q282 16 267 12T249 7Q241 11 232 12T210 17Q202 19 191 21T168 26Q132 36 81 81Q70 88 50 108Q-1 172 -1 288Q-1 298 7 326T35 402Q46 415 55 424T73 442Q94 459 108 469T130 482Q131 484 139 486T168 497Q197 510 258 510ZM369 281Q368 282 363 333Q360 356 320 387Q279 419 255 419Q247 419 209 406Q201 403 192 400T173 392Q161 383 147 370T114 338Q110 335 109 332T108 321Q108 301 108 290T105 271Q99 247 99 246Q99 233 121 194L151 143L179 125L196 128Q204 125 211 124T230 120Q249 115 258 112T266 109Q279 109 287 117L343 173Q369 228 369 281Z"  />
<glyph unicode="p" horiz-adv-x="654" d="M128 274Q128 277 126 283T124 294Q124 302 123 310T121 333Q117 372 101 377L56 389Q48 390 39 391T20 396Q0 402 0 423Q0 450 20 456Q28 460 35 460T50 464Q84 481 91 481Q114 481 129 478T153 468Q158 463 166 456T187 441Q191 439 195 439T204 435Q216 435 228 444Q236 452 246 457T271 468Q300 481 320 481Q360 481 376 477Q386 473 399 470T433 458Q453 449 481 405Q484 401 490 395T508 379Q516 371 517 354L518 337Q520 333 520 328Q523 324 525 318T531 302Q530 294 529 289T528 269Q528 261 530 248T533 226V217Q524 207 520 181Q520 173 519 161T510 122Q506 112 505 106T503 95Q501 92 501 90T500 85Q496 80 490 73T472 56Q458 45 447 38T426 24Q381 -3 373 -3Q368 -3 360 -1T348 1Q337 1 330 1T317 0Q315 0 304 4T272 16Q235 29 235 29Q207 29 207 10V-43Q207 -89 222 -96Q227 -100 240 -101T274 -102Q333 -102 333 -125Q333 -141 305 -160Q243 -175 225 -168H167Q159 -168 151 -168T131 -170Q109 -171 95 -172T68 -173Q38 -173 19 -150L16 -138Q18 -135 24 -128T43 -109Q55 -102 88 -102Q106 -101 121 -76Q128 -67 140 -42Q136 -37 134 -28T128 -6Q128 -1 129 6T130 19Q130 31 129 38T127 49V56Q127 60 128 63Q130 67 130 72T132 85Q124 114 121 131T117 156Q117 160 118 177T121 223Q122 227 122 233T125 248Q128 264 128 274ZM433 278Q433 290 412 341Q402 349 390 357T360 379Q350 387 327 387Q313 387 304 381T285 366Q275 362 267 357T251 347Q249 345 245 339T233 321Q229 317 220 302Q210 292 210 281Q210 272 206 256Q202 243 202 233Q202 181 235 130Q271 71 320 71Q372 71 396 111Q396 114 400 118Q406 123 412 131T426 150Q425 158 425 165T425 179Q425 187 429 200Q433 213 433 223V278Z"  />
<glyph unicode="q" horiz-adv-x="576" d="M84 444Q84 448 96 456Q102 460 106 462T114 467Q122 475 132 481T156 500Q188 513 215 513Q254 513 297 490Q303 484 321 474L337 468Q349 471 358 474T380 482Q409 482 429 461Q451 439 451 409Q451 397 445 373Q439 349 439 333Q439 329 440 326T442 315Q442 312 443 295T444 249Q444 231 438 194Q434 176 433 164T432 144Q432 139 433 130T435 117Q435 103 434 86T432 45Q430 18 429 0T428 -29Q427 -40 431 -50T443 -67T461 -79T482 -84Q487 -84 496 -83T510 -81Q523 -81 534 -96Q538 -110 538 -115T526 -132Q517 -145 507 -145H444Q439 -145 390 -151L338 -157Q333 -157 330 -157T323 -155T311 -151T292 -145Q282 -142 273 -142T253 -140Q229 -132 229 -111Q229 -93 276 -82Q287 -82 301 -79T331 -68Q350 -59 350 -42Q348 -37 348 -30Q348 -27 348 -24T347 -12Q347 -3 347 5T344 23Q340 40 321 40Q313 40 282 23Q249 23 231 23T209 22Q205 22 201 21T193 19Q159 19 140 28T95 55Q71 74 56 115Q53 115 45 131Q43 132 39 142T30 171Q32 188 32 194T33 204Q33 208 31 213T26 229Q23 239 21 245T19 256Q19 262 20 269T24 287Q32 308 32 317Q34 327 36 335T40 351Q42 358 45 367T53 390Q58 399 66 412T84 444ZM337 228Q351 245 351 256Q351 262 348 272T340 300Q338 301 338 302V311Q335 326 311 350Q299 362 289 368T269 379Q262 380 255 389Q246 394 238 397T222 405Q209 405 200 396L170 360Q137 319 137 256Q137 157 161 135L209 96Q217 95 223 95T232 94Q244 94 271 117L289 130Q297 133 317 166Q337 203 337 228Z"  />
<glyph unicode="r" horiz-adv-x="667" d="M161 320Q161 328 164 340T167 361Q167 399 130 399Q122 399 115 397T95 392Q83 388 75 387T62 386L45 390Q39 399 33 410T19 436Q27 487 63 487Q67 485 83 483T124 481Q130 481 176 494Q182 494 207 480Q237 467 253 467Q266 467 274 472Q282 477 285 479T289 482Q332 500 379 500Q389 500 412 494T475 474Q477 474 500 455L526 412Q526 395 537 364Q537 344 528 310Q512 279 469 279Q384 279 384 379Q384 380 382 384T374 395L350 400Q345 399 341 397T328 390Q323 382 316 371T297 343L278 320Q268 309 246 183L255 137Q259 109 265 102Q271 89 295 89Q303 89 319 90T343 92Q360 92 373 81T387 53Q387 29 357 22Q344 20 333 20T310 17Q306 16 304 15T301 14Q289 11 257 10T167 7Q159 7 144 4T120 0Q111 0 98 3T68 14Q30 29 30 45Q30 76 40 82Q49 88 79 89H108H115Q120 89 135 86Q138 86 156 102Q167 138 167 225Q167 228 166 234T164 243Q164 251 164 260T163 281Q161 295 161 303T161 320Z"  />
<glyph unicode="s" horiz-adv-x="624" d="M190 370Q190 365 188 359T180 341Q183 333 192 322T216 294Q226 295 240 294T272 289Q286 284 306 279T356 265Q359 266 367 267T390 268Q417 268 444 261Q449 259 458 253T480 232Q501 203 501 193Q501 188 502 182T504 168Q507 160 510 150T518 125Q518 120 505 95Q467 10 413 10H374Q361 10 344 6Q332 2 325 1T314 0Q307 0 294 4Q288 6 284 7T277 10Q273 11 272 12Q260 13 244 15T202 22Q197 23 166 42Q154 37 139 32T101 19Q89 20 84 28T78 50Q78 56 80 64T85 85Q88 97 90 105T92 118Q92 130 91 139T86 157Q86 177 99 193T132 209Q137 207 158 194Q166 180 175 162T200 122Q202 121 205 119T213 111Q259 73 317 73Q328 73 400 92Q439 131 439 137Q439 144 419 161Q411 169 403 174T387 187Q378 193 346 204Q326 209 312 209Q304 209 290 207T268 204Q258 204 240 210Q229 214 222 215T212 219Q202 221 187 227T151 245Q85 281 85 350Q85 362 87 374T92 397Q114 434 167 459Q186 478 249 478Q251 478 255 478T272 475Q280 477 294 476T328 472Q366 446 384 446Q391 446 402 455Q412 465 444 477Q459 477 481 455Q481 445 482 430T487 395Q492 351 492 351Q492 292 451 292L420 305Q409 315 394 329T360 360Q355 370 341 377Q333 381 325 384T302 393L256 406Q239 411 190 370Z"  />
<glyph unicode="t" horiz-adv-x="579" d="M246 242Q249 227 249 229Q249 221 246 210T243 190Q243 172 257 156T289 140Q314 140 327 171Q338 199 338 222Q338 233 346 239Q350 242 358 247T380 258Q396 266 410 266Q449 266 449 210Q449 188 425 154Q421 137 418 123T409 92Q395 53 374 40Q337 20 304 20Q299 20 289 21T261 23Q227 27 204 43Q197 50 180 60Q170 63 163 78Q156 79 151 98Q150 106 150 111T147 122Q147 124 135 144Q132 152 130 157T128 167Q128 175 128 186T131 213Q132 230 133 240T134 259Q134 264 133 271T130 287Q128 297 127 303T125 314Q125 322 127 332T130 350Q130 351 129 361T127 392Q124 413 101 413Q96 413 88 411T75 409H16Q-27 424 -27 468Q-24 473 -21 478T-12 490Q-10 491 -2 495T26 504Q43 509 52 510T65 513Q88 514 99 515T112 518Q114 520 119 530T135 563Q132 592 130 608T128 629Q128 641 148 678Q163 707 209 707L252 648V606Q252 601 252 596T251 583Q248 566 248 560Q253 547 271 516Q279 514 291 513T317 513Q322 513 326 513T338 514L360 516Q406 516 406 458Q391 423 359 415Q349 413 340 413T320 409Q312 408 306 408T294 408Q289 408 281 410T269 413Q248 413 248 390Q248 385 248 379T249 360Q249 350 250 343T251 331Q251 322 245 301Q243 289 242 280T240 264Q240 248 246 242Z"  />
<glyph unicode="u" horiz-adv-x="690" d="M204 278Q203 270 203 267T202 261Q200 258 200 255Q200 250 201 242T202 229L204 225V216Q204 208 203 199T202 181Q202 123 235 104Q257 88 271 88Q293 88 325 118Q327 120 336 126T364 150Q402 177 402 229Q402 234 403 243T408 266Q411 278 412 283T413 291Q413 292 412 296T410 301Q410 304 411 308T413 317Q416 333 416 338Q416 344 397 372Q394 377 386 386T364 410Q356 415 351 418T338 426Q328 436 328 454Q328 477 356 481Q366 483 375 485T395 488T419 491T449 492H464Q498 492 517 456Q519 452 520 450T523 446Q526 420 528 407T530 390Q530 385 528 377T523 357Q516 339 516 327Q516 319 516 307T518 278Q520 261 521 250T523 230L514 163L510 150Q510 110 537 99Q542 98 552 91Q582 67 582 49Q582 42 576 35Q555 4 514 4Q496 4 480 9T446 26L429 39Q419 49 409 49Q394 49 379 37L353 20Q349 19 342 17T320 9Q291 0 289 0Q244 0 161 43Q144 51 124 86Q107 113 107 128Q107 133 108 143T109 158Q109 163 109 172T108 187Q108 192 111 203T114 219Q114 227 105 266L109 284Q114 302 114 307Q114 315 111 328T105 346Q105 354 105 360T104 374Q99 394 88 397Q79 401 64 406T32 418Q17 428 17 446Q17 479 55 485Q81 489 95 490T112 492Q120 492 127 492T144 490Q182 481 190 477Q215 464 215 438Q215 446 212 422T204 340Q207 318 204 278Z"  />
<glyph unicode="v" horiz-adv-x="724" d="M258 356Q258 348 260 341T265 323Q274 300 287 300Q290 295 292 290T298 279Q298 269 299 261T302 245Q306 234 308 226T312 212Q321 174 337 174Q354 174 360 189Q382 237 386 274Q387 284 393 297T409 331Q420 351 420 373Q420 385 403 403Q377 431 376 433Q376 482 402 482H471Q479 486 486 487T503 492Q508 491 516 490T537 487Q554 483 567 483T596 481Q631 472 631 439L605 400Q587 392 554 376Q546 372 537 359Q532 353 525 345T510 325Q506 320 505 312T498 292Q490 271 478 238T449 160Q437 125 430 106T422 82Q402 35 374 16Q353 0 337 0Q315 0 300 19L276 56Q268 68 260 81T243 108Q242 117 242 126T238 147Q233 152 227 161T212 181Q189 217 189 268Q189 278 180 298Q175 308 173 315T168 327Q165 345 156 356T127 387Q127 389 81 406Q50 419 50 445Q50 456 58 462Q87 490 130 490Q138 490 146 489T168 487Q182 485 190 485T207 485Q234 484 250 484T269 482Q304 474 304 436Q304 430 261 390Q258 379 258 356Z"  />
<glyph unicode="w" horiz-adv-x="675" d="M200 367Q200 341 225 285L242 271Q253 271 261 285Q264 293 265 296T269 308Q274 313 282 321T301 343Q311 356 321 356Q343 356 367 318Q378 302 384 288T393 262Q396 248 409 248Q415 248 419 253Q420 258 420 266Q420 274 420 282T422 302Q427 309 433 320T445 348Q443 369 429 402Q427 403 402 420Q382 432 382 446Q382 475 454 480Q457 481 462 481T478 484Q486 485 491 486T501 487Q509 487 522 484T543 481Q546 481 550 482T559 484Q600 484 600 452L593 433Q581 430 568 425T539 415Q524 407 524 374Q523 354 522 343T518 328Q503 287 503 272Q503 252 502 237T498 207Q497 202 496 195T491 177V118Q487 93 474 63Q470 56 454 32L439 27L406 33Q380 39 380 65Q380 83 364 99Q356 109 351 141L347 184L330 197Q305 197 289 144Q269 84 268 78Q266 74 266 69T262 59Q248 24 210 24Q186 24 176 65Q171 81 167 94T158 124Q157 184 153 219T144 269Q141 298 141 315T138 337Q132 391 114 399Q104 404 95 407T76 416Q52 429 52 445Q52 446 53 448Q53 450 53 451T55 456L65 467Q68 470 148 485Q154 482 159 481T171 478H229Q271 473 271 449Q271 423 236 415Q200 407 200 367Z"  />
<glyph unicode="x" horiz-adv-x="700" d="M193 125Q203 125 223 145Q231 155 240 169T262 204Q292 247 292 252Q291 255 285 265T266 292Q261 304 251 321T223 359Q203 372 186 382T153 402Q142 407 132 410T112 418Q87 429 84 446Q90 456 108 470T156 504L200 500Q208 498 213 498T225 497Q233 493 238 493T251 494Q258 494 285 505L320 497Q326 490 329 482T333 461Q333 453 325 431Q317 410 317 400Q317 379 343 360Q347 365 355 374T377 399Q373 411 368 425T357 461Q360 466 368 475T389 497Q401 502 423 503T478 503Q486 503 499 508T520 513Q556 513 609 480L615 472Q616 469 617 466T618 461Q618 421 563 412Q553 412 546 411T530 409Q506 403 482 372Q474 358 467 346T451 320L429 288Q418 268 418 253Q421 228 436 212Q445 203 453 195T469 177Q473 172 478 166T488 150L518 122Q526 121 541 121T576 118Q609 117 622 76Q626 69 626 59Q626 36 603 26Q586 14 562 14Q554 14 539 17T511 20Q506 20 499 19T481 14Q471 12 464 11T452 10Q420 10 393 33Q386 38 380 104Q374 161 346 161Q340 153 335 144T315 112Q315 100 324 82Q327 72 329 66T331 56Q331 40 321 30Q318 29 311 27T292 19Q284 19 230 10Q225 11 222 11T215 12T203 13T184 16Q160 7 107 7Q90 7 78 22T65 55Q65 86 85 91Q97 95 112 99T148 111Q156 114 167 117T193 125Z"  />
<glyph unicode="y" horiz-adv-x="703" d="M58 442Q58 457 75 475Q81 484 134 487Q174 490 193 491T210 492Q214 492 219 491T228 490Q248 486 260 486T281 487Q310 476 310 433Q310 399 291 380Q289 376 281 370Q276 358 276 356Q276 352 277 349T282 337Q287 324 291 313T300 294Q301 286 303 276T310 251Q329 225 346 225Q370 225 376 275Q377 280 379 288T384 308Q386 317 387 325T389 344Q389 401 367 422Q356 438 356 449Q356 462 367 478Q375 481 395 492Q425 494 465 498T556 511L622 485Q631 468 631 449Q627 441 625 432T619 412Q607 407 595 405T569 402Q561 397 550 389T523 366Q519 361 514 352T504 328Q503 320 501 312T495 291Q490 282 484 269T468 236Q463 218 451 194Q449 183 445 168T435 132Q430 113 387 26Q382 16 377 3T366 -27Q364 -34 362 -41T356 -59Q348 -67 339 -77T317 -104Q304 -120 297 -128T287 -140Q277 -148 267 -153T246 -163Q228 -171 206 -172T158 -174Q140 -174 132 -170Q129 -167 126 -165T117 -160Q100 -147 85 -132T53 -99Q45 -79 41 -64T37 -36Q37 50 118 50Q155 50 168 42Q172 40 182 31T209 6Q216 -6 216 -23Q216 -30 204 -45Q196 -53 192 -56T186 -62Q185 -62 181 -69Q178 -72 176 -77T170 -91Q170 -98 180 -98Q197 -98 217 -77T262 -24Q270 -13 273 -8T278 0Q279 2 281 10T285 32Q288 57 288 59Q288 64 287 70T282 82L271 105Q271 108 270 113T269 127Q265 137 260 148T246 173Q241 186 234 204T215 248Q209 256 202 269T186 300Q184 308 182 318T174 346Q171 350 162 356T137 374Q133 378 126 383T108 396Q100 397 91 402T65 415Q58 425 58 442Z"  />
<glyph unicode="z" horiz-adv-x="590" d="M242 190Q242 177 229 167Q216 153 216 141Q216 115 246 115Q258 115 276 141Q283 144 285 144Q293 141 303 137T330 125Q359 125 372 130Q388 136 402 156Q405 159 405 166Q405 168 396 192Q396 206 415 238Q431 269 445 274Q448 275 451 275T458 275Q469 275 480 265Q492 256 492 246Q492 218 491 198T488 163Q487 158 486 153T484 141Q478 94 471 81Q465 67 423 39H384Q374 39 361 33Q350 29 340 29Q326 29 321 35Q300 42 275 43Q265 48 230 48H202Q166 48 118 39Q115 37 108 37H104Q79 37 60 58Q52 61 52 82Q52 120 88 160Q97 175 147 225L181 256Q192 267 206 292Q211 300 216 307T226 321Q232 324 236 328Q239 332 245 339T261 360Q273 370 291 390Q291 403 259 419Q229 436 212 436Q182 436 167 390L173 379Q173 375 176 366Q176 358 170 354L158 343L140 311Q129 297 108 297Q58 297 58 374Q58 376 58 381T60 399V420Q64 438 65 445T68 456Q72 473 84 488Q115 510 196 510Q204 510 221 507T246 504Q251 504 263 506T298 511Q313 514 383 514Q465 514 465 472Q465 470 461 459T449 428Q441 420 433 406T412 372Q407 362 399 354L383 338Q378 330 372 319T344 294Q332 284 325 278T314 268Q302 256 285 237T242 190Z"  />
<glyph unicode="{" horiz-adv-x="579" d="M63 433Q67 435 74 441T98 455Q108 460 116 469T134 490Q139 506 145 518T157 539Q157 603 160 621Q165 644 166 659T168 681Q168 690 164 706T160 729Q160 737 164 746Q165 752 165 756T166 768T167 787T170 822Q170 835 187 850Q191 855 198 863T216 884Q257 922 302 922Q312 919 323 914Q331 916 339 921T350 930Q364 920 389 917Q405 921 416 922T436 922Q462 918 471 907Q472 904 473 902T474 897Q474 875 454 864Q440 850 416 850Q381 850 377 854L374 858L360 863L347 857Q340 857 334 851Q285 851 265 762Q261 746 261 739Q261 730 269 714L268 619Q265 614 261 607T253 588L249 556Q249 553 246 546T243 534Q243 531 244 526T246 516Q246 487 220 458Q216 453 210 448T196 432Q196 428 198 426T205 419T217 409T232 393Q237 385 243 376T259 353Q261 351 262 346T265 330Q289 288 289 269Q289 265 287 257T285 243Q284 235 284 229T284 215Q284 207 286 192T289 168Q289 143 285 124Q283 116 282 109T279 92Q279 74 284 66Q288 49 288 14L284 -17Q303 -58 341 -58Q345 -58 351 -57T360 -55Q382 -55 399 -57T428 -62Q442 -69 449 -66Q454 -63 459 -61T474 -55Q490 -61 510 -91Q506 -94 504 -101T494 -120L485 -125Q482 -127 479 -128T471 -131Q459 -131 454 -127Q450 -125 446 -125T436 -122Q427 -122 416 -144Q408 -141 404 -141T396 -141Q390 -141 389 -143Q385 -143 380 -143T367 -140Q362 -134 356 -134Q287 -134 261 -112Q252 -104 241 -96T216 -73Q184 -32 181 4Q181 16 180 36T177 85Q179 95 177 108T171 138V212Q171 220 172 232T174 253Q174 313 154 328Q151 334 146 343T130 366Q124 371 118 378T101 396Q87 406 62 426L63 433Z"  />
<glyph unicode="|" horiz-adv-x="505" d="M301 405Q307 355 307 338Q306 337 301 288Q300 285 300 256Q300 251 300 244T302 228Q305 208 305 199V124Q305 119 303 106T300 86Q300 83 301 79T302 71Q302 63 302 54T300 32Q298 18 298 10T298 -7Q298 -12 298 -19T300 -39Q300 -51 300 -59T301 -72Q301 -77 300 -84T295 -101Q292 -113 290 -119T288 -131Q288 -136 288 -143T289 -160Q291 -172 291 -178T292 -190Q292 -235 258 -235Q256 -233 240 -230Q228 -223 200 -157Q200 -152 201 -143T204 -121Q206 -109 207 -101T209 -85Q205 -83 202 -35Q200 -25 199 -11T194 22Q200 38 202 53T204 85Q204 88 201 99T196 114Q194 126 193 136T192 157Q192 165 194 180T197 204Q197 216 193 234T189 265Q189 272 193 287Q199 299 199 310Q197 311 186 350Q184 357 183 365T181 386Q181 391 183 400T186 415Q186 422 181 444Q180 453 180 461T179 477Q179 481 180 489T186 510Q194 527 194 541Q194 548 193 556T190 575Q187 579 184 605Q183 621 182 644T180 698V808Q180 811 179 819T177 832Q177 840 180 854T184 877Q184 880 183 886T180 901Q174 919 174 929Q174 981 219 1011Q227 1012 232 1012T239 1012Q276 1012 291 975Q292 972 295 957T307 907Q298 848 298 851Q298 848 299 844T301 835V798Q300 781 300 772T300 759Q300 750 301 749L300 746Q307 734 307 720Q307 711 303 695T298 668L301 654Q301 650 301 620T302 530Q302 520 303 503T304 477V449Q304 448 303 445T301 433Q300 425 299 421T298 413Q298 408 301 405Z"  />
<glyph unicode="}" horiz-adv-x="579" d="M397 253Q397 245 397 231T399 196Q399 177 399 163T399 138L393 85Q391 61 390 41T389 4L356 -73Q354 -75 350 -79T336 -91Q318 -107 305 -114T279 -127Q268 -130 252 -132T215 -134Q210 -134 203 -140Q195 -141 187 -141T167 -141L154 -144L134 -122L117 -127Q110 -131 99 -131Q95 -130 92 -129T85 -125L76 -120Q73 -114 70 -108T62 -91L75 -69L98 -55Q123 -63 120 -66Q125 -65 131 -65T150 -60Q170 -57 184 -56T210 -55Q214 -55 220 -56T229 -58Q265 -58 288 -17Q282 2 282 37Q282 42 283 49T286 65T289 80T291 92Q291 89 285 124Q284 136 283 146T282 168Q282 177 284 192T287 215Q287 233 286 243T284 256Q282 261 282 269Q282 290 305 330L307 338Q305 338 305 341Q305 343 309 348T321 366Q331 382 341 398T369 420Q371 420 376 432Q371 437 364 443T348 458Q343 468 337 481T323 516Q324 519 324 524T327 534Q325 542 323 555T317 588Q313 591 310 599T302 619L301 714Q308 726 308 742Q308 775 291 814Q246 850 210 863L197 858L193 854Q192 850 154 850Q135 850 117 864Q96 879 96 897L97 899Q98 901 98 902T99 907Q94 907 135 922H151Q155 922 166 920T183 917Q194 917 220 930Q225 927 232 925T251 914L269 922H271L291 919Q339 912 354 884Q358 879 364 872T382 852L400 818Q400 808 401 794T403 762Q405 750 406 743T409 730Q410 726 410 720Q409 715 406 702T403 681Q403 678 405 664T410 621Q414 609 414 589T413 539L425 521Q428 513 430 506T438 490Q446 478 456 468T478 449Q488 446 497 441T510 426Q497 418 471 397Q454 383 441 367T416 330Q397 302 397 253Z"  />
<glyph unicode="~" horiz-adv-x="662" d="M455 357Q461 358 466 362T475 371T481 380T485 384Q490 389 501 397Q502 399 507 406T518 421T533 435T549 442Q602 442 602 387Q602 372 602 364T598 352T590 348T575 347L572 334Q575 334 575 333Q575 331 571 327T563 318T554 310T549 305Q544 305 544 302T544 295T536 283T513 269L498 262Q490 258 489 256T486 252T475 245T445 233Q443 233 442 234T436 236L431 235L429 233H428Q421 233 408 239T387 246Q381 240 374 240Q366 241 360 247T347 261T334 278T320 295Q312 297 304 304T291 320L279 340Q262 348 250 350Q243 351 236 351Q233 351 223 350T199 340L181 328Q177 326 173 321T165 309T158 298T153 292Q149 289 145 281T137 264T128 248T120 238Q115 232 109 225T95 212Q75 216 59 229T42 265Q42 281 52 295L55 314Q57 312 59 312H60Q60 314 60 317T65 328L72 337Q81 337 88 344T101 360T110 376T114 384L125 405L143 410L154 425Q161 425 164 425T170 425T177 429T193 442Q196 441 199 441T206 441Q216 441 231 446T269 452Q270 452 274 451Q281 449 294 448Q295 448 298 446T306 440T314 433T320 429L321 431Q322 431 325 427T332 417T340 406T347 399Q352 397 358 396T372 392Q376 389 378 383T384 370T398 358T428 351L455 357Z"  />
<glyph unicode="&#xA0;" horiz-adv-x="449" />
<glyph unicode="&#xA1;" horiz-adv-x="406" d="M30 256Q34 260 34 261T36 264Q35 272 35 275T35 281Q35 284 35 286T37 294Q42 304 42 308Q42 316 40 325T37 340Q37 355 43 367Q47 380 48 387T50 396Q54 405 54 420T53 458Q54 461 57 465Q59 468 61 472T68 484Q64 492 64 497T65 505Q65 530 98 530Q103 530 109 529T121 527Q156 516 156 495Q156 490 150 480Q145 475 145 465Q145 468 148 456T157 416Q152 411 151 404T148 387L166 347L163 331L167 320Q170 320 170 315Q167 315 158 289L161 284Q174 271 174 253Q173 252 173 243Q173 238 177 226T181 206Q180 204 180 200Q179 197 179 195T177 187Q179 182 180 175T186 158Q191 135 186 102L189 96V94Q189 90 188 88T186 84L181 79L179 71L183 60Q183 55 184 52Q181 44 174 37T157 22Q154 22 149 19T135 12Q127 4 109 4Q84 4 68 13Q37 27 24 50Q23 54 23 57T19 66L22 73Q22 75 21 79T19 89V95Q17 96 17 99V101Q17 109 18 117T20 131Q19 133 18 136T14 144Q17 150 17 154Q21 159 23 167Q22 170 21 173T17 181Q19 183 20 186T23 194L20 206Q31 232 36 240Q36 247 32 251L30 256ZM13 667L4 688Q4 714 50 739Q69 749 86 753T121 757Q138 757 152 752T180 737Q206 717 206 685Q206 657 179 632Q150 606 122 606Q114 610 108 611T94 615Q84 623 69 630T32 649L13 667Z"  />
<glyph unicode="&#xA2;" horiz-adv-x="667" d="M389 585Q385 585 371 580T327 566Q309 562 295 543Q287 534 280 528T265 517Q243 506 243 487Q243 455 240 436Q239 428 239 424T238 416Q236 413 236 409Q236 397 253 366Q257 361 263 348T287 308Q295 291 315 291L331 294Q335 292 343 290T367 282Q382 277 391 276T402 274Q420 274 454 311Q470 328 478 341T492 367L503 372Q511 370 515 370T527 369Q534 369 543 372Q551 370 561 372T586 380H592L615 367Q611 338 586 289Q585 287 582 283T576 271Q567 263 557 254T533 233Q511 215 442 192Q437 188 423 183L422 176Q422 174 423 170T428 161Q428 153 431 138L425 127Q425 122 433 112Q420 94 420 69L410 56L400 50Q397 52 395 52T387 53Q369 60 357 72L359 75Q350 109 347 132T343 173Q343 179 344 181Q277 193 239 226Q234 229 229 234T215 248Q211 250 208 253T199 259Q176 276 162 305T140 380Q136 394 135 413T134 455Q134 466 138 474Q147 486 147 491Q151 510 151 530Q156 553 170 567L197 596Q207 603 221 614T256 642Q274 657 331 670V697L341 721Q336 740 331 742L328 756Q333 764 336 770T343 785Q360 792 382 796L390 792Q392 789 392 787T396 782V750Q397 731 409 721Q409 713 403 701T397 683Q397 677 400 674Q452 671 458 671Q463 669 476 663T510 645Q520 635 534 625T569 600Q578 591 580 575Q585 553 599 531L586 521Q557 518 539 516T511 514Q495 514 410 580Q403 585 389 585Z"  />
<glyph unicode="&#xA3;" horiz-adv-x="613" d="M79 0Q58 0 23 46Q1 77 1 109Q1 189 63 222Q73 224 88 239L82 245Q46 261 46 285Q54 302 118 320L137 337Q137 357 96 379Q49 379 45 415Q51 435 65 455Q65 463 67 476T72 511Q78 560 109 600Q117 609 131 622T168 654Q180 655 181 661Q200 669 223 673T275 677Q324 677 379 657Q437 633 461 596Q469 584 472 573T475 552L472 534L439 485Q413 477 390 477Q356 477 311 528Q302 539 300 557Q297 575 297 576V583Q295 587 294 589T291 593L281 599Q254 599 240 588Q235 586 224 579T194 554Q161 526 161 475Q161 450 192 446Q193 445 240 445H275Q325 445 325 409Q325 375 272 356L266 346Q266 334 298 315Q328 298 328 287Q328 270 295 251Q264 232 264 216L266 202Q272 193 282 182T308 156Q340 128 351 108L384 92Q413 92 445 124Q462 140 472 148T491 157Q518 157 536 117L521 56Q520 53 518 50T511 39Q485 0 428 0Q361 0 356 6Q344 6 338 12Q324 12 297 33Q277 48 266 55T253 65Q239 65 227 56T203 36Q193 31 173 22T118 0H79ZM161 131Q156 143 137 156L118 161Q96 156 91 144Q75 98 75 98Q75 89 102 68Q114 68 121 78T137 98Q142 101 147 109T161 131Z"  />
<glyph unicode="&#xA4;" horiz-adv-x="647" d="M540 668Q540 665 536 662T530 654Q525 645 521 640T514 631Q504 628 501 624H490Q480 636 461 644Q441 652 439 655Q425 659 415 660T397 661Q373 661 354 639Q343 628 334 618T314 596Q295 568 295 541Q295 533 292 523Q300 523 311 522T337 520Q354 520 364 519T383 518Q390 518 400 519T425 520Q440 521 450 521T468 521Q478 521 498 511Q518 502 518 494Q518 478 498 469Q478 459 397 459Q391 459 382 454Q366 446 364 446Q359 446 355 447T348 449Q344 449 336 453T314 458H304Q299 458 292 458T276 456Q275 448 273 434T269 402Q284 397 300 397Q298 397 309 399T350 405Q355 405 367 405T400 406Q399 406 404 405T422 402Q436 400 449 398T471 384Q472 377 478 366L477 353L474 348Q468 346 456 338Q433 337 409 337T359 336Q354 336 344 336T328 337L268 334Q272 301 291 238Q300 220 315 187Q322 176 333 164T363 137Q371 130 389 130Q403 132 416 135T445 141Q455 144 491 180Q493 182 496 184T503 190Q507 195 513 202T528 217L564 194Q568 186 572 180T580 168Q580 164 579 158T575 144Q572 142 572 138Q567 133 560 127T543 111Q541 108 538 104T530 95Q528 93 524 91T516 86L464 60Q453 60 440 59T413 56H379Q368 56 334 75Q323 82 307 91T271 114L264 121Q250 131 242 138T232 147Q230 150 226 160T216 187Q209 211 204 248T193 337Q184 337 169 335T144 333Q135 333 126 334T104 338Q68 347 68 370Q93 405 102 408H156Q168 408 180 412Q180 435 183 456Q173 456 159 451T124 438Q115 438 109 444Q60 463 60 478Q60 495 91 511Q117 524 138 524Q144 524 161 521Q171 520 177 520T189 520H196L204 543L202 557Q202 562 202 569T204 588Q217 657 251 681Q256 684 262 688T278 697Q283 700 290 706T308 720Q328 736 438 737Q444 737 518 703Q521 695 539 681L540 668Z"  />
<glyph unicode="&#xA5;" horiz-adv-x="647" d="M408 626L403 644Q395 652 386 660T366 677Q364 680 364 684T360 691Q360 703 368 705T384 708Q456 732 467 732H564Q600 719 600 700Q600 684 580 664Q559 648 539 648Q516 648 492 606L455 540Q463 544 480 544Q485 544 495 542T521 537Q557 528 557 508Q540 476 524 471Q523 469 469 469Q464 469 455 467T438 464Q433 464 424 465T403 469Q400 461 398 451T392 429Q407 423 436 423Q454 423 475 432Q497 441 503 441Q506 439 508 438T514 435Q524 430 549 420Q564 412 564 403Q564 386 536 369Q510 356 490 356Q483 356 471 357T442 360Q425 362 414 363T396 364L372 361Q364 339 364 321Q364 303 367 287T376 258Q376 253 375 247T372 232Q367 212 367 207Q367 175 373 168Q378 152 379 151Q380 150 383 149T392 145Q411 148 422 148Q430 148 455 137Q481 122 481 102Q481 88 445 81Q425 75 415 73T402 71H366Q342 79 334 79Q326 79 320 78T311 73Q293 73 279 73T252 71Q237 68 236 68H230Q214 68 204 76L194 98Q194 112 232 120Q252 123 266 127T285 140Q301 158 301 168V245Q301 250 298 261T294 281Q294 287 295 292T298 301Q298 311 289 359Q281 359 264 359T236 360H197Q184 359 175 359T157 359L127 369L107 387Q107 400 130 410Q138 414 145 416T160 419Q178 419 197 419T239 422Q253 432 269 433Q265 441 258 449T243 472H230Q225 471 221 471T216 471Q209 471 204 472Q200 472 197 473T193 474Q168 474 144 477Q108 481 108 504Q108 507 118 517Q132 535 154 537T200 540Q199 553 174 599Q169 608 165 617T156 636Q142 660 122 660Q117 660 106 658T89 655Q60 655 60 685Q60 692 73 708Q81 718 138 723Q160 724 170 724T184 724Q264 724 279 708L285 694Q285 679 265 667Q245 653 245 638Q245 620 279 553Q291 529 300 505Q318 468 333 468Q345 468 360 511Q363 523 366 535T374 562Q374 563 377 567T383 579L408 626Z"  />
<glyph unicode="&#xA6;" horiz-adv-x="300" d="M117 300H199V0H117V300ZM117 704H199V405H117V704Z"  />
<glyph unicode="&#xA7;" horiz-adv-x="632" d="M498 256Q502 255 507 255T517 253Q530 251 564 220Q583 204 588 156Q591 148 595 139T602 115Q602 109 590 85Q579 60 567 42T541 13Q527 0 458 0Q439 0 436 -1Q425 -1 418 -6Q408 -7 402 -8T393 -9Q388 -9 376 -3Q364 1 356 1Q342 1 325 3T285 12Q272 21 263 26T249 32Q239 32 220 22Q197 11 184 9Q172 10 167 18T161 40Q161 54 164 65T173 86Q176 108 177 121T170 147Q170 173 200 196L216 199Q219 197 225 194T242 184Q250 170 260 153T284 112Q330 63 400 63Q412 63 484 82Q523 121 523 127Q523 134 503 151Q495 156 486 164T464 181Q429 199 396 199Q391 199 382 197T369 194Q362 194 348 197T314 206Q306 206 304 208T289 214Q250 213 236 223Q210 243 200 252Q197 262 195 266T176 283Q164 297 161 316Q168 336 169 354Q168 363 175 378L181 390Q187 407 206 426Q143 459 130 472Q99 500 99 552Q99 612 158 649Q163 653 168 654T181 661Q200 680 229 680Q320 680 344 674Q384 648 400 648Q408 648 425 662Q441 678 459 678Q473 678 497 657Q497 653 498 638T503 596Q503 593 503 588T505 575Q507 567 507 563T508 554Q508 494 467 494L436 507Q428 515 417 524T395 543Q387 551 379 556T360 579Q350 590 318 595Q310 598 299 600T271 608Q215 594 204 572Q204 565 202 558T194 543Q199 538 207 525T230 495Q240 497 255 496T288 491Q313 482 332 475Q335 475 339 476T346 477H363Q402 468 416 467T444 461L485 444Q506 440 513 421Q535 407 545 388L549 370Q551 362 551 357T554 345Q555 341 550 311Q545 295 532 286Q523 282 515 272Q511 265 509 263T498 256ZM274 360Q274 354 264 331Q268 326 267 314T300 284Q311 284 327 282T367 276Q379 278 392 283T420 298Q434 307 442 317T455 338L456 359L445 374L426 385Q408 397 400 397T380 400Q356 396 340 396Q310 396 274 360Z"  />
<glyph unicode="&#xA8;" horiz-adv-x="603" d="M405 629Q405 648 433 668Q456 687 480 687Q498 687 527 670L547 638Q550 629 550 625Q550 609 540 595Q531 580 526 572T520 562Q510 549 485 549Q482 547 473 546T448 543Q447 543 435 550Q418 560 403 599V613Q403 617 404 621T405 629ZM52 606Q53 610 55 618T63 644Q75 678 118 678Q142 678 148 667Q158 663 166 657Q166 652 170 648Q170 641 173 641L179 621Q176 590 170 579Q167 574 160 568T141 554Q125 543 120 543Q93 543 68 564Q62 572 59 582T52 606Z"  />
<glyph unicode="&#xA9;" horiz-adv-x="847" d="M735 337Q735 400 712 457T645 559Q553 649 422 649Q294 649 203 560Q158 515 135 458T111 337Q111 274 134 218T202 117Q295 26 422 26Q552 26 646 118Q735 209 735 337ZM781 337Q781 189 678 85Q624 31 559 5T422 -22Q277 -22 170 84Q64 191 64 337Q64 483 171 592Q277 696 422 696Q497 696 561 669T678 591Q781 486 781 337ZM448 436Q451 451 451 459Q451 469 440 472Q435 472 421 466Q410 466 402 466T389 468L377 466Q343 442 325 397Q316 377 311 359T305 320Q305 300 316 288Q317 287 323 274T340 249Q346 243 348 231Q354 207 408 206Q421 203 427 203T437 203Q456 203 490 239Q493 243 517 275L534 299Q546 315 559 315Q580 315 593 296Q604 275 604 248Q601 242 587 218T547 160Q543 157 537 152T522 138Q503 122 489 122Q452 122 448 117Q432 114 414 113T374 111Q329 111 292 152Q288 156 284 162T273 180Q267 187 259 198T239 224Q229 240 229 270Q229 275 217 310Q218 322 221 337T228 376Q237 429 242 438Q250 468 274 493Q304 525 310 528Q313 529 324 532T356 551Q370 556 389 557T431 559Q434 559 442 560T455 562Q459 562 484 553Q494 549 509 542T545 520Q554 513 561 510T570 503Q583 493 590 478T606 429Q603 405 583 391Q566 368 542 368Q519 368 491 381Q488 386 484 391T472 405Q469 408 463 416T448 436Z"  />
<glyph unicode="&#xAA;" horiz-adv-x="370" d="M177 534Q203 534 225 557L228 564Q225 582 197 595Q180 596 171 597T160 598L153 593Q138 546 109 546Q106 546 99 547T82 553Q58 562 52 582Q53 595 68 629Q92 634 111 648Q156 654 171 654Q206 654 245 636Q253 632 258 632Q261 629 266 626T281 615Q284 596 286 586T288 570Q288 567 288 563T287 553V505Q284 503 284 492Q284 488 285 482T287 472V426L291 422Q299 424 301 432Q305 451 331 451Q341 451 347 441Q348 437 349 432T353 422Q353 404 325 380Q299 359 289 359Q286 359 280 361T262 369Q249 375 242 378T230 382Q225 380 216 378T194 372L176 369Q160 366 160 361L151 359H143Q106 359 96 364Q88 368 79 374T55 392L37 408L30 442Q33 468 50 494L72 514L76 516Q88 534 122 534Q127 534 156 543L167 540L177 534ZM200 438Q208 444 214 451T223 467L220 474Q212 477 203 480T181 490Q176 488 171 486T160 480H144Q138 480 121 484L96 471V448Q96 438 97 433T99 423Q99 411 127 405L145 409Q149 411 152 412T160 415Q164 416 173 428Q179 438 200 438Z"  />
<glyph unicode="&#xAB;" horiz-adv-x="840" d="M469 390Q467 398 480 423Q491 431 517 435Q533 435 533 468Q544 470 557 480L569 484Q572 487 580 490L589 487Q597 495 601 502T613 517Q617 523 647 523Q675 523 685 550Q694 577 700 577Q703 577 720 570Q729 567 734 565T743 563Q746 560 752 554T766 539Q769 519 769 503Q769 457 734 454Q729 450 721 448T698 441L690 445Q683 445 668 433Q655 425 655 416Q647 411 636 405T606 390Q640 381 660 357Q672 337 690 337Q696 337 698 340Q706 337 714 335T734 327Q769 327 769 268Q769 221 743 219Q732 213 707 204L700 203Q697 206 695 208T688 219Q688 238 671 251Q651 259 628 256Q625 258 622 260T611 268Q602 294 589 294Q583 294 580 292Q575 294 570 296T557 301Q556 302 550 305T533 312Q533 343 521 346Q501 343 485 354Q468 364 469 384V390ZM203 390Q203 426 236 432Q242 434 247 435T255 437Q259 438 262 439Q265 443 266 449T266 468Q278 469 291 480L302 484Q304 485 306 486T314 490L323 487Q328 495 333 502T347 517Q351 523 380 523Q409 523 419 550Q428 577 433 577Q438 577 452 570Q462 567 467 565T477 563Q480 560 485 554T500 539Q501 529 502 520T503 503Q503 472 480 458Q477 455 468 454Q460 452 451 449T432 441L423 445Q407 445 396 429Q391 427 389 416Q370 399 340 390L341 389H346Q357 385 389 364Q392 360 394 355T400 344Q409 337 423 337Q430 337 432 340L468 327Q503 327 503 268Q503 221 477 219Q471 216 463 213T441 204L433 203Q430 206 428 208T420 219Q420 259 380 259Q377 259 370 258T360 256Q359 257 344 268Q335 294 323 294Q317 294 314 292Q309 294 304 296T291 301Q289 302 283 305T266 312Q266 316 267 317T268 323V325Q268 342 255 346Q241 343 220 353Q203 364 203 390Z"  />
<glyph unicode="&#xAC;" horiz-adv-x="662" d="M484 137Q472 137 456 156Q441 172 441 184Q440 184 439 188T437 198T436 210T439 220Q443 227 441 233T438 245L442 276Q456 295 456 314Q456 329 444 344Q442 349 442 356T441 372Q435 372 425 371T395 369Q391 367 386 367T372 364Q364 363 358 363T347 363L315 367Q297 382 278 382Q264 382 248 369Q237 367 220 365T181 360Q136 355 116 370T95 406Q95 416 111 426Q119 431 126 438T144 455Q148 461 157 462Q163 458 177 452Q181 447 187 447T201 451T218 457T235 461Q245 461 251 463T265 467Q276 472 282 475T292 480Q297 478 302 476T315 468Q330 459 341 459Q352 459 359 467Q367 467 375 467T392 469Q402 468 407 468T415 468Q418 468 422 468T429 469Q431 464 435 463T444 461T454 462T464 462Q478 467 487 472T510 477Q515 477 526 472T541 459Q545 451 547 450T560 438Q566 434 567 425Q565 423 564 420T560 413Q560 411 561 410T562 408Q562 395 543 380Q541 379 540 378T537 376Q536 371 536 367T536 357Q536 347 537 341T541 327Q553 305 554 300Q552 291 543 276Q534 261 534 251Q534 240 541 233Q546 219 548 209T549 184Q549 176 537 170T516 154Q499 137 484 137Z"  />
<glyph unicode="&#xAD;" horiz-adv-x="773" d="M599 331Q599 303 549 289Q532 297 528 298T516 301Q479 295 436 292Q428 292 411 290T384 288L353 292Q342 300 334 300Q329 305 318 305Q301 305 285 294Q273 294 257 292T219 287Q214 290 202 297T164 317Q149 326 143 360Q144 363 147 368T156 379Q159 381 165 386T181 400Q197 418 204 418Q208 416 211 414T219 409Q227 404 237 399T264 386H275Q280 386 287 387T302 392L330 403L344 399Q370 383 379 383Q384 383 396 390Q405 390 413 391T429 393Q433 392 448 392Q462 392 467 395Q475 370 495 370Q511 370 521 374Q526 378 532 378T546 380Q559 380 580 364Q599 349 599 331Z"  />
<glyph unicode="&#xAE;" horiz-adv-x="847" d="M439 295Q433 298 427 300T414 307Q384 307 371 277Q371 264 380 252Q380 243 372 242Q366 229 366 226Q368 223 368 212Q368 208 367 200T366 189Q366 166 386 158Q395 156 401 154T416 149Q419 146 423 143T435 131L439 120V115Q439 108 428 108Q424 108 419 108T405 109Q397 110 392 110T384 110Q381 110 376 109T344 106Q317 112 311 112Q305 112 292 111T274 110Q228 110 228 131Q228 142 250 156Q253 158 255 159T262 164Q266 164 272 165T288 168Q291 171 291 180Q291 183 293 188T302 206Q300 217 300 223T299 234Q299 236 299 240T302 242Q303 249 303 255T304 265Q304 294 297 311Q294 318 294 323Q294 326 294 332T294 345T294 356T294 364L292 374L299 398Q300 400 301 403T303 410Q303 418 300 430Q297 438 296 443T294 450Q294 456 294 465T291 486Q287 497 277 497Q264 497 253 503Q220 518 220 531Q220 548 237 548L261 556H261Q262 556 263 557T266 558Q287 565 357 565H377Q488 565 530 544Q536 541 549 537T571 524Q590 506 592 497Q596 485 600 471T611 441Q611 423 605 402Q603 396 601 391T597 377Q588 367 577 353T552 321L537 310Q539 304 539 298T556 281Q557 278 559 272T567 254Q567 246 566 234V229Q566 227 567 223Q568 220 568 216T571 205L575 180Q577 164 588 161Q596 161 602 161T617 157Q636 153 636 140Q636 128 594 116Q565 106 556 106Q559 108 531 113Q488 123 488 141Q488 146 488 151T488 164Q488 164 488 165T486 172Q485 179 485 190T482 216Q480 220 480 223T477 232Q477 237 477 242T475 246Q475 248 474 254T469 270Q466 275 465 279T462 284T459 286T451 289Q448 290 445 291T439 295ZM468 364Q472 366 476 369T486 378Q496 388 496 396L509 420Q510 430 511 442T512 468Q512 483 483 490Q476 494 471 496T459 504Q453 506 446 506T431 510H428Q417 510 409 500Q406 494 402 492T394 489Q391 488 388 486T384 482Q381 476 381 460T378 421Q376 418 374 412T368 397Q368 360 419 360Q423 360 430 362T439 364H468ZM735 337Q735 400 712 457T645 559Q553 649 422 649Q294 649 203 560Q158 515 135 458T111 337Q111 274 134 218T202 117Q295 26 422 26Q552 26 646 118Q735 209 735 337ZM781 337Q781 189 678 85Q624 31 559 5T422 -22Q277 -22 170 84Q64 191 64 337Q64 483 171 592Q277 696 422 696Q497 696 561 669T678 591Q781 486 781 337Z"  />
<glyph unicode="&#xAF;" horiz-adv-x="613" d="M372 585Q358 576 349 576T327 576Q319 577 312 578T300 582Q293 583 287 583T275 583Q255 583 237 580T199 576Q150 575 150 608Q150 614 161 644Q175 654 217 654Q231 654 240 658T264 662Q272 662 279 661T295 660Q304 660 311 656T327 651Q332 651 336 655T346 660Q357 660 369 656T393 652Q403 652 410 656T428 660Q464 660 464 628Q464 590 438 590Q426 590 419 583T399 575L372 585Z"  />
<glyph unicode="&#xB0;" horiz-adv-x="662" d="M338 848Q377 848 393 840Q449 805 458 762Q458 755 462 747Q464 741 466 733T468 716Q466 710 464 702T458 683Q454 651 422 632Q415 627 405 619T380 600Q372 596 359 595T331 593Q312 593 261 602Q241 606 194 716Q196 720 196 727T199 743L207 757Q209 763 213 769T223 785Q256 820 305 842Q312 846 320 847T338 848ZM264 773Q238 743 238 706Q238 692 275 660Q305 635 318 635Q322 635 327 635T338 638Q346 639 350 640T359 641Q387 646 395 651Q407 661 415 684Q416 687 418 692T422 706Q422 733 387 780Q362 802 323 802Q309 802 285 786Q280 784 275 781T264 773Z"  />
<glyph unicode="&#xB1;" horiz-adv-x="662" d="M323 792Q329 790 336 789T351 785Q355 783 360 779T372 765Q378 756 381 750T386 739Q386 725 386 711T387 683Q391 662 395 649T409 631L426 622Q440 614 448 610T461 605Q467 605 475 605T494 606Q506 608 514 608T527 608Q570 590 580 543Q580 519 536 504Q489 485 472 485Q454 485 444 486T431 488Q410 488 406 469Q408 461 409 452T412 433Q407 423 404 409T395 377Q377 301 325 301Q311 301 294 312Q266 330 255 367Q255 371 253 388T248 436Q241 443 228 455T194 485Q188 488 181 488Q173 488 159 485T124 475Q119 477 112 481T91 492Q86 501 84 511T81 534Q83 543 85 553T89 577Q97 615 164 615Q173 615 189 614T215 613Q243 613 251 634Q252 645 254 661T261 701Q262 703 263 707T266 719Q268 730 271 743T279 769Q285 780 295 786T323 792ZM546 194Q546 182 527 167Q507 151 495 151Q499 151 462 164Q445 164 432 160Q427 160 419 159Q405 157 379 156Q375 154 370 154T356 151Q348 150 342 150T331 150L300 154Q281 168 262 168Q247 168 232 156Q221 154 205 153T167 150Q89 184 89 223Q89 235 105 243Q113 248 120 255T138 272Q142 278 151 279Q155 277 159 275T171 269Q186 248 219 248Q229 248 235 249T249 253Q271 265 276 266Q285 264 300 255Q315 246 325 246Q336 246 343 253Q351 253 359 254T376 256Q386 255 391 255T399 255Q402 255 406 255T413 256Q423 232 444 232Q463 232 468 238Q473 239 479 239T492 242Q512 242 528 226Q546 211 546 194Z"  />
<glyph unicode="&#xB2;" horiz-adv-x="500" d="M324 658Q324 663 323 674T307 703Q295 707 286 708T268 713L251 711Q237 705 228 700T212 687T201 671T193 649L186 634Q185 632 181 629T170 624T159 621T151 619Q146 619 142 624T132 638Q127 646 125 653T122 664Q122 669 138 697Q140 700 141 706T148 719Q165 738 195 748T266 759Q328 759 379 710Q384 706 388 698T395 680T400 663T402 651Q402 642 395 626T373 590Q372 588 368 586T359 579Q354 574 347 569T328 554Q326 554 300 540Q294 538 287 528T268 513Q263 511 256 509T235 501Q224 499 203 478Q190 465 190 456H189L203 445Q220 440 227 441T239 442Q247 442 258 445T284 451Q298 452 307 453T324 455Q338 455 350 449T382 438Q384 436 384 430T389 418Q389 412 379 403Q356 401 336 396T302 390Q297 390 288 390T265 389Q252 387 243 387T229 387Q224 387 216 388T203 390H160Q145 392 139 398T127 409L117 429Q128 490 137 501Q157 523 180 542T233 573Q235 575 244 581T284 605Q302 613 313 626T324 658Z"  />
<glyph unicode="&#xB3;" horiz-adv-x="500" d="M253 603Q247 617 242 622Q241 625 241 627T239 635L234 641Q225 644 212 644T183 648Q178 647 173 646T163 645Q146 645 137 656T127 680Q127 691 141 699T177 711Q190 714 196 714Q221 713 269 698Q271 698 283 694T317 672Q322 664 329 656T343 625Q344 621 344 617T343 606T342 596T341 589Q341 583 327 567Q319 559 317 550T314 530Q314 516 341 507Q373 474 373 425Q371 420 370 411T367 390Q362 369 325 330Q322 328 318 325T310 318Q289 312 273 311T245 308Q239 308 229 305L189 301H177Q167 301 158 303T138 307Q132 310 126 314T114 323L112 328Q112 330 113 336T117 348T122 359T128 366Q133 369 137 371T150 373Q155 373 163 370T176 366Q182 366 189 368T204 373H212Q214 373 220 373T230 372L246 373L259 380L275 395Q287 396 294 407T302 428Q302 431 295 448T274 475Q260 480 247 485T216 490Q187 490 187 524Q188 529 190 533Q192 536 193 539T196 543L215 554Q226 557 236 567L239 572Q253 583 253 596V603Z"  />
<glyph unicode="&#xB4;" horiz-adv-x="520" d="M111 634Q111 647 135 647Q139 647 144 646T153 644Q179 644 179 675Q184 675 187 676T193 677Q196 677 199 678T204 683Q206 681 207 681Q212 681 219 684T229 687L240 681Q249 681 259 696Q266 711 278 711Q283 711 293 708T308 704Q334 704 346 726Q356 749 361 749Q365 749 382 737Q395 728 405 724Q420 718 420 696Q420 621 373 621Q371 621 367 620T354 618Q346 616 343 616T336 615L327 619Q324 621 320 621T311 621Q307 621 287 599Q276 589 245 585Q233 581 222 580T199 577Q195 577 187 577T167 576Q164 573 160 569T147 557Q130 557 114 569T98 598Q98 620 111 634Z"  />
<glyph unicode="&#xB5;" horiz-adv-x="864" d="M334 248L337 243V235Q337 228 336 218T334 200V194Q334 187 337 177Q342 136 367 121Q394 105 403 105Q424 105 456 135Q459 138 497 167Q534 196 534 248Q534 253 535 261T539 282Q541 289 541 294T543 302Q544 306 544 308Q544 310 543 314T541 320Q541 325 542 328T544 334Q546 344 546 349T547 357Q547 362 530 390Q527 395 519 404T497 428Q490 432 484 436T469 445Q461 455 461 472Q461 486 484 500Q516 506 539 508T579 511Q624 511 654 464Q659 435 660 420T662 400Q662 397 661 391T654 374Q647 354 647 344Q647 336 648 324T651 295Q652 279 653 268T654 248L645 180Q644 178 644 175T642 168Q642 132 668 118Q671 116 675 115T684 109Q713 84 713 68Q713 60 707 53Q687 23 645 23Q612 23 577 43Q573 48 569 51T560 58Q555 62 550 65T541 68Q535 68 528 65T511 56Q498 48 484 37Q482 36 474 34T452 27Q438 23 431 21T422 19Q404 19 367 27V-37Q367 -45 366 -58T364 -79Q364 -84 365 -93T367 -108Q367 -119 364 -143Q363 -154 362 -163T361 -179Q361 -184 364 -195T367 -212Q367 -244 354 -266Q339 -297 311 -297Q270 -297 252 -262Q251 -259 247 -241T233 -189Q238 -172 241 -161T245 -145Q245 -139 244 -127T242 -108Q242 -100 242 -91T243 -68Q246 -41 246 -27Q244 -22 242 -15T239 -1Q242 31 245 47T249 62Q248 65 247 70T245 84Q240 101 240 108Q240 113 241 122T242 135Q242 137 241 141T240 147V186Q240 194 242 211T245 238Q245 246 242 261T238 284Q238 290 241 302T245 325Q245 332 242 345T238 364Q236 371 236 378T235 393Q232 411 220 416Q200 421 185 427T160 439Q150 446 150 464Q150 498 186 504Q212 507 226 509T243 511Q309 511 333 487Q343 473 346 459Q344 458 342 433T337 359V297Q336 295 335 293T334 288V248Z"  />
<glyph unicode="&#xB6;" horiz-adv-x="540" d="M495 743H429V0H386V743H288V0H243V413Q200 413 179 419Q155 425 125 446Q121 450 114 454T98 467Q45 507 45 596Q45 663 101 720Q159 780 252 780H495V743Z"  />
<glyph unicode="&#xB7;" horiz-adv-x="598" d="M124 464Q124 475 131 480Q136 483 143 486T160 494Q166 499 174 505T193 517Q215 528 229 533T251 539Q274 539 301 524T357 480Q360 475 363 472T367 465Q369 454 372 444T380 423Q380 405 377 386L360 353Q351 339 342 328T323 308Q313 303 301 296T274 278Q272 278 268 277T256 274Q253 274 247 275T230 279Q222 281 210 283T181 291Q140 311 117 348Q113 362 113 375T112 405Q112 421 115 435T124 464Z"  />
<glyph unicode="&#xB8;" horiz-adv-x="573" d="M289 -26Q286 -29 286 -32T282 -39Q286 -37 297 -37T314 -35Q319 -33 323 -31T333 -27H341Q345 -29 349 -29T357 -31T365 -37T373 -49Q376 -54 380 -58T386 -71Q387 -76 385 -88T383 -109Q383 -118 376 -125Q374 -129 375 -130T374 -135Q364 -149 356 -154T327 -168Q324 -172 313 -173T298 -179Q295 -177 292 -177T285 -176Q282 -184 274 -183T258 -186Q233 -186 224 -181T210 -167Q210 -166 206 -163T202 -156Q200 -151 202 -146T207 -137Q211 -133 217 -133T225 -131Q236 -136 244 -142T261 -154H269Q273 -151 282 -145T300 -130Q303 -124 305 -120T308 -107Q308 -97 304 -93T294 -81Q290 -77 286 -79T279 -78Q271 -78 260 -79T240 -84Q235 -80 230 -75T226 -65Q228 -60 231 -55T236 -40Q236 -34 242 -27T255 -12T269 4T275 20Q275 33 281 39T288 55Q297 55 305 54T323 53Q325 53 318 37Q317 33 316 28T314 17Q311 12 306 8T300 0Q296 -3 295 -5T291 -12Q291 -15 290 -19T289 -26Z"  />
<glyph unicode="&#xB9;" horiz-adv-x="500" d="M144 629Q129 629 115 636T98 651L104 662Q133 678 171 678H196Q212 678 235 677Q237 677 242 677T258 680Q278 678 284 676T297 674Q300 674 306 676Q311 678 313 678Q316 678 325 677Q339 676 355 673T386 665T400 651Q400 643 394 638T378 627T356 616T331 602Q325 597 317 596T304 588Q296 579 292 566T284 539Q286 528 287 520T289 507Q289 493 284 479T279 449Q279 445 280 443T284 433Q284 429 283 422T282 410Q282 382 297 369Q303 363 311 361T328 358T348 357T366 356Q376 354 381 349T392 337Q392 325 363 316T276 305Q268 305 255 308T235 311H204Q195 308 190 308H186Q118 308 107 323L99 338Q99 345 105 348T122 353Q138 355 157 356T190 366Q205 373 209 386Q207 396 205 403T199 415Q199 422 204 428Q204 433 202 443T199 458Q199 461 200 468T202 478Q202 507 202 532T196 576Q193 588 189 598T176 615Q169 620 162 624T144 629Z"  />
<glyph unicode="&#xBA;" horiz-adv-x="452" d="M219 750Q238 750 261 740Q294 724 325 680Q329 672 332 661T340 636L346 596Q343 581 343 573Q343 558 346 539Q340 527 337 516T330 490Q330 480 328 475Q321 447 294 423Q282 415 270 409T245 397Q209 386 206 386Q199 386 168 395Q140 403 137 406Q133 411 128 418T114 433Q108 436 98 448Q95 451 93 455T86 465Q86 477 79 495Q72 510 71 562Q71 566 70 577T68 593Q68 632 91 662Q95 668 97 672T99 683Q99 711 161 740Q184 750 219 750ZM212 429Q216 429 219 430T230 432Q238 439 248 452T271 487Q276 492 282 510Q291 559 291 593Q289 598 288 603T284 613Q285 621 286 626T287 636Q287 643 275 657Q266 666 262 674Q261 682 256 687Q243 692 233 697T213 707Q205 704 195 701T171 693Q169 691 158 678T127 638V615Q127 610 124 602T120 589Q120 570 120 552T122 516Q130 507 137 493T154 458Q168 429 212 429Z"  />
<glyph unicode="&#xBB;" horiz-adv-x="827" d="M485 353Q475 349 466 348T448 344Q438 340 439 312Q429 311 415 301Q410 301 403 297T390 292Q389 292 387 293T383 294Q371 294 364 275Q358 256 346 256Q341 256 335 257T325 259Q295 259 287 230Q278 203 272 203L249 210Q236 215 224 218T207 239Q203 255 203 266Q203 322 238 327Q243 330 251 332T272 340L282 337Q292 337 302 347Q314 357 317 364Q336 383 361 390Q356 392 350 394T336 402Q332 405 329 408T317 416Q309 426 304 435T282 445L272 441Q267 441 255 448Q244 454 238 454Q203 457 203 528Q204 530 205 534T207 544L228 563H229Q237 561 252 570Q269 577 271 577Q276 577 287 550Q294 523 325 523Q329 523 332 523T343 524Q347 523 351 520T360 514Q369 487 383 487Q384 487 386 488T390 490Q395 490 401 485T415 480Q419 474 425 472T439 468Q438 463 438 459T438 454Q438 436 471 432Q503 426 503 390Q503 365 485 353ZM757 359Q751 351 721 347Q703 345 706 312Q700 312 692 309T681 301Q676 301 670 297T658 292Q655 292 653 293T649 294Q637 294 631 275Q624 256 612 256Q607 256 601 257T590 259Q564 259 553 230Q544 203 539 203L516 210Q502 215 491 218T474 239Q472 248 471 254T469 266Q469 322 504 327Q509 330 518 332T540 340L549 337Q559 337 569 347Q574 352 578 356T583 364Q590 371 626 389H629L632 390Q606 393 583 416Q575 426 570 435T549 445L540 441Q533 441 521 448Q510 454 504 454Q469 457 469 528Q471 530 471 534T474 544L494 563H495Q503 561 518 570Q535 577 539 577Q543 577 553 550Q562 523 592 523Q595 523 598 523T609 524Q612 523 617 520T628 514Q634 487 649 487Q651 487 653 488T658 490Q661 490 667 485T681 480Q690 470 706 468Q704 463 704 459T704 454Q704 436 736 432Q769 426 769 390Q766 382 764 375T757 359Z"  />
<glyph unicode="&#xBC;" horiz-adv-x="930" d="M655 69Q652 69 645 70T634 72H602Q563 72 563 92Q563 120 588 145Q589 153 593 161T605 181Q611 192 616 200T622 215L632 226Q634 231 638 237T649 252Q651 257 653 262T660 276Q666 281 676 296T701 329T731 362T765 382Q772 382 781 380T798 373T813 361T819 343Q819 342 816 314Q815 303 813 295T812 285L815 258Q815 254 814 241T811 222Q812 217 812 211T812 196Q812 191 811 178T809 158V144Q809 135 816 122L841 120Q858 117 858 104L855 78Q851 72 845 72Q843 72 837 73T829 75Q805 75 805 60Q805 52 808 43T814 16Q810 6 797 3T775 -4Q761 -4 748 0T734 13Q731 16 727 43Q731 51 733 62Q733 66 725 67T705 69T680 70T655 69ZM112 629Q111 629 109 631T102 635Q70 635 66 651L72 662Q86 670 102 674T140 678Q150 678 165 678T203 677Q205 677 210 677T226 680Q246 678 257 677T266 675Q268 675 274 676T282 678Q284 678 296 676T330 672Q369 666 369 651Q369 643 361 638Q348 636 325 631T272 615Q272 614 270 611T264 599T257 576T252 539Q254 528 256 520T258 507Q258 502 256 491T253 475Q253 470 251 462T248 449Q248 448 249 444T252 433Q252 429 252 422T251 410Q251 366 269 361Q286 358 301 356T333 351Q351 351 360 337Q360 313 245 311Q236 311 223 314T203 317H173Q162 315 158 315T154 314Q88 314 75 323L68 338Q68 354 89 354Q133 354 168 369Q170 371 172 375T177 386Q175 396 174 403T167 415Q167 422 173 428Q173 433 170 443T167 458Q167 461 168 468T170 478Q170 534 169 567T166 615Q161 621 137 621Q129 621 124 623T112 629ZM681 121Q686 118 699 117T717 114Q724 114 728 125T733 156Q733 158 731 163T729 171Q729 175 730 180T732 189Q732 195 727 207Q729 209 729 221T730 236Q733 239 733 246Q733 260 721 264Q714 264 707 258T694 243T684 225T677 210Q677 210 662 193Q661 190 635 141Q635 133 636 125T649 114Q654 114 661 115T675 120L681 121ZM441 312L459 386Q471 411 477 427T486 454T494 473T507 490Q509 491 511 494T514 500L518 521Q518 526 520 533T524 543L539 560Q540 563 544 572T552 593T561 613T567 628L582 685Q582 691 583 695T590 707L618 747Q626 753 633 755T652 757Q669 757 682 745T697 710L694 688L687 668L677 651L667 636L649 590L613 527L605 497L579 436L550 392L544 360L530 328L520 297L480 226Q476 223 475 219T471 206L462 167L455 148L435 131L426 104Q421 89 418 72T399 37L383 -6L382 -14L373 -32L364 -58Q356 -68 352 -73T345 -83T340 -97T334 -121Q326 -159 307 -176T272 -194Q252 -194 239 -170V-156Q239 -152 243 -145L249 -132Q251 -129 251 -127T255 -121L265 -102L271 -76Q272 -68 273 -63T276 -52L287 -33L295 -23L301 -14L317 22L323 43Q324 48 326 51T331 58L337 88Q338 96 344 110T361 144L380 176Q388 190 392 201T399 222L408 251L418 274L433 302L441 312Z"  />
<glyph unicode="&#xBD;" horiz-adv-x="930" d="M112 629Q111 629 109 631T102 635Q70 635 66 651L72 662Q86 670 102 674T140 678Q150 678 165 678T203 677Q205 677 210 677T226 680Q246 678 257 677T266 675Q268 675 274 676T282 678Q284 678 296 676T330 672Q369 666 369 651Q369 643 361 638Q348 636 325 631T272 615Q272 614 270 611T264 599T257 576T252 539Q254 528 256 520T258 507Q258 502 256 491T253 475Q253 470 251 462T248 449Q248 448 249 444T252 433Q252 429 252 422T251 410Q251 366 269 361Q286 358 301 356T333 351Q351 351 360 337Q360 313 245 311Q236 311 223 314T203 317H173Q162 315 158 315T154 314Q88 314 75 323L68 338Q68 354 89 354Q133 354 168 369Q170 371 172 375T177 386Q175 396 174 403T167 415Q167 422 173 428Q173 433 170 443T167 458Q167 461 168 468T170 478Q170 534 169 567T166 615Q161 621 137 621Q129 621 124 623T112 629ZM441 312L459 386Q471 411 477 427T486 454T494 473T507 490Q509 491 511 494T514 500L518 521Q518 526 520 533T524 543L539 560Q540 563 544 572T552 593T561 613T567 628L582 685Q582 691 583 695T590 707L618 747Q626 753 633 755T652 757Q669 757 682 745T697 710L694 688L687 668L677 651L667 636L649 590L613 527L605 497L579 436L550 392L544 360L530 328L520 297L480 226Q476 223 475 219T471 206L462 167L455 148L435 131L426 104Q421 89 418 72T399 37L383 -6L382 -14L373 -32L364 -58Q356 -68 352 -73T345 -83T340 -97T334 -121Q326 -159 307 -176T272 -194Q252 -194 239 -170V-156Q239 -152 243 -145L249 -132Q251 -129 251 -127T255 -121L265 -102L271 -76Q272 -68 273 -63T276 -52L287 -33L295 -23L301 -14L317 22L323 43Q324 48 326 51T331 58L337 88Q338 96 344 110T361 144L380 176Q388 190 392 201T399 222L408 251L418 274L433 302L441 312ZM796 276Q796 282 795 293T779 321Q767 326 758 327T740 331L723 330Q709 324 700 318T684 305T673 289T665 268L658 252Q656 247 643 243T624 238Q616 238 605 256Q600 265 598 272T595 282Q595 284 598 292T611 315Q612 319 613 324T621 337Q656 377 739 377Q800 377 851 328Q856 324 860 316T867 298T872 281T874 269Q874 261 867 245T845 209Q844 207 840 205T831 197Q822 189 801 173Q799 173 792 169T772 158Q767 156 760 146T740 131Q735 129 728 127T707 120Q696 117 675 96Q662 83 662 75H661L675 63Q692 59 699 59T711 60Q719 60 730 63T756 69Q770 71 779 72T796 73Q810 73 822 67T854 56Q856 54 857 48T861 36Q861 29 851 22Q828 20 809 15T775 9Q770 9 761 8T737 7Q724 6 715 6T701 6Q696 6 688 7T675 9H632Q617 10 611 16T599 27L589 48Q599 107 609 120Q629 141 653 161T706 192Q707 194 716 200T756 223Q774 232 785 245T796 276Z"  />
<glyph unicode="&#xBE;" horiz-adv-x="930" d="M441 312L459 386Q471 411 477 427T486 454T494 473T507 490Q509 491 511 493T516 509L518 521Q518 526 520 533T524 543L539 560Q543 574 545 578T552 593T561 613T567 628L582 685Q582 691 583 695T590 707L618 747Q626 753 633 755T652 757Q669 757 682 745T697 710L694 688L687 668L679 652L667 636L649 590L613 527L605 497L579 436L550 392L544 360L530 328L520 297L480 226Q476 223 475 219T471 206L462 167L455 148L435 131L426 104Q421 89 418 72T399 37L383 -6L382 -14L373 -32L364 -58L352 -73Q348 -78 345 -83T340 -97L334 -121Q326 -159 307 -176T272 -194Q252 -194 239 -170V-156Q239 -152 243 -145L249 -132Q251 -129 251 -127T255 -121L265 -102L271 -76Q272 -68 273 -63T276 -52L286 -32L295 -23L301 -14L317 22L323 43Q324 48 326 51T331 58L337 88Q338 96 344 110T361 144L380 176Q388 190 392 201T399 222L408 251L418 274L433 302L441 312ZM655 69Q652 69 645 70T634 72H602Q563 72 563 92Q563 120 588 145Q589 153 593 161T605 181Q611 192 616 200T622 215L632 226Q634 231 638 237T649 252Q651 257 653 262T660 276Q666 281 676 296T701 329T731 362T765 382Q772 382 781 380T798 373T813 361T819 343Q819 332 816 314Q815 303 813 295T812 285L815 258Q815 254 814 241T811 222Q812 217 812 210V196Q812 191 811 178T809 158V144Q809 135 816 122L841 120Q858 117 858 104L855 78Q851 72 845 72Q843 72 837 73T829 75Q805 75 805 60Q805 52 808 43T814 16Q810 6 797 3T775 -4Q761 -4 748 0T734 13Q731 16 727 43Q731 51 733 62Q733 66 725 67T705 69T680 70T655 69ZM681 121Q686 118 699 117T717 114Q724 114 728 125T733 156Q733 158 731 163T729 171Q729 175 730 180T732 189Q732 195 727 207Q729 209 729 221T730 236Q733 239 733 246Q733 260 721 264Q714 264 707 258T694 243T684 225T677 210L662 193Q661 190 635 141Q635 133 636 125T649 114Q654 114 661 115T675 120L681 121ZM253 603Q247 617 242 622Q241 625 241 627T239 635L234 641Q225 644 212 644T183 648Q178 647 173 646T163 645Q146 645 137 656T127 680Q127 691 141 699T177 711Q190 714 196 714Q221 713 269 698Q271 698 283 694T317 672Q322 664 329 656T343 625Q344 621 344 617T343 606T342 596T341 589Q341 583 327 567Q319 559 317 550T314 530Q314 516 341 507Q373 474 373 425Q371 420 370 411T367 390Q362 369 325 330Q322 328 318 325T310 318Q289 312 273 311T245 308Q239 308 229 305L189 301H177Q167 301 158 303T138 307Q132 310 126 314T114 323L112 328Q112 330 113 336T117 348T122 359T128 366Q133 369 137 371T150 373Q155 373 163 370T176 366Q182 366 189 368T204 373H212Q214 373 220 373T230 372L246 373L259 380L275 395Q287 396 294 407T302 428Q302 431 295 448T274 475Q260 480 247 485T216 490Q187 490 187 524Q188 529 190 533Q192 536 193 539T196 543L215 554Q226 557 236 567L239 572Q253 583 253 596V603Z"  />
<glyph unicode="&#xBF;" horiz-adv-x="599" d="M420 184Q424 201 425 209T426 216Q426 221 422 228Q413 242 402 249T373 256Q364 256 360 252L340 249Q330 259 322 269T308 292Q303 296 296 301T281 317Q276 319 274 331Q261 408 261 408Q261 440 275 448Q280 449 291 450T321 452Q330 455 341 455Q380 455 389 422Q392 405 395 391T402 360Q407 348 428 347Q445 345 454 344T465 343Q470 338 475 332T488 317Q506 308 530 287Q546 266 564 192Q568 184 569 178T570 167Q570 156 560 137Q555 131 549 104Q541 76 537 75Q517 65 509 59T490 43Q482 38 478 35T468 29Q461 24 446 24Q438 24 420 17Q409 14 402 12T392 10Q370 10 356 11T334 13Q329 14 315 16T278 23H252Q243 23 232 27T203 36Q166 50 156 62Q151 70 145 78T130 98Q121 106 107 118T76 151L78 170Q80 177 86 183Q98 192 140 207Q179 220 197 220Q234 220 248 206Q253 201 260 190T275 161Q284 144 284 131Q284 126 282 120T279 108Q279 101 288 94L324 84Q336 84 372 107Q377 110 382 114T395 122Q405 133 423 143L432 151Q429 156 427 164T420 184ZM252 569Q223 595 223 608Q223 637 269 658Q314 678 340 678Q370 678 399 658Q425 641 425 605Q425 577 397 552Q369 527 341 527Q323 527 297 546Q268 566 252 569Z"  />
<glyph unicode="&#xC0;" horiz-adv-x="606" d="M278 238Q233 241 233 180Q233 172 230 162T226 143Q226 126 246 120Q271 108 275 98Q275 71 225 62Q213 62 203 61T181 60Q175 57 164 53T135 46Q127 46 116 47T91 50Q79 52 70 62T60 85Q60 97 73 106T98 115Q101 115 105 116T114 118Q116 120 120 127T131 148Q136 152 142 159T156 179Q159 192 162 210T173 255Q179 270 179 284Q179 302 194 338Q194 342 195 355T196 393Q196 402 213 431Q213 445 214 462T219 504Q222 516 226 530T236 560Q238 563 241 573T253 600Q261 619 261 648Q261 667 269 675Q278 684 287 691T305 707L334 713Q391 680 397 658Q398 657 403 632Q403 628 408 611Q418 592 418 564Q418 556 420 543T428 511Q442 483 442 471Q442 459 436 454Q436 448 433 436Q433 425 441 406Q449 394 450 388T454 377Q455 374 456 370Q457 366 458 361T461 348Q461 343 462 336T467 321Q468 308 470 292T475 256L487 190Q491 169 504 158Q516 153 528 146T554 130Q592 110 592 95Q592 68 567 63Q556 62 547 61T527 59Q515 58 504 58T480 58Q463 58 454 58T436 60Q419 68 403 73T376 95Q376 137 397 140Q420 140 420 164Q420 205 392 210Q382 214 373 229Q354 229 320 232Q312 233 302 233T278 238ZM382 336Q382 344 379 354T376 370V393Q363 469 334 469Q310 469 304 425Q301 408 301 395T298 366Q294 352 289 315Q294 302 301 302Q303 302 309 305T327 314Q342 314 359 317Q382 319 382 336ZM441 783Q441 767 425 755T392 743Q390 746 385 750T372 762Q370 763 338 763Q340 763 330 765T298 770Q293 770 288 771T274 775Q269 776 265 778T252 785Q232 806 222 806L212 805Q203 799 199 799Q191 799 180 802T161 805Q138 805 128 835Q118 856 118 881Q118 896 134 909Q152 920 162 926T176 933Q182 933 193 912Q203 890 230 890Q244 893 252 895T262 897Q271 897 279 881Q287 867 298 867Q301 867 305 870T312 873L334 867Q335 866 360 861Q360 826 390 829L395 831H413Q428 827 432 812L441 783Z"  />
<glyph unicode="&#xC1;" horiz-adv-x="606" d="M278 238Q233 241 233 180Q233 172 230 162T226 143Q226 126 246 120Q271 108 275 98Q275 71 225 62Q213 62 203 61T181 60Q175 57 164 53T135 46Q127 46 116 47T91 50Q79 52 70 62T60 85Q60 97 73 106T98 115Q101 115 105 116T114 118Q116 120 120 127T131 148Q136 152 142 159T156 179Q159 192 162 210T173 255Q179 270 179 284Q179 302 194 338Q194 342 195 355T196 393Q196 402 213 431Q213 445 214 462T219 504Q222 516 226 530T236 560Q238 563 241 573T253 600Q261 619 261 648Q261 667 269 675Q278 684 287 691T305 707L334 713Q391 680 397 658Q398 657 403 632Q403 628 408 611Q418 592 418 564Q418 556 420 543T428 511Q442 483 442 471Q442 459 436 454Q436 448 433 436Q433 425 441 406Q449 394 450 388T454 377Q455 374 456 370Q457 366 458 361T461 348Q461 343 462 336T467 321Q468 308 470 292T475 256L487 190Q491 169 504 158Q516 153 528 146T554 130Q592 110 592 95Q592 68 567 63Q556 62 547 61T527 59Q515 58 504 58T480 58Q463 58 454 58T436 60Q419 68 403 73T376 95Q376 137 397 140Q420 140 420 164Q420 205 392 210Q382 214 373 229Q354 229 320 232Q312 233 302 233T278 238ZM382 336Q382 344 379 354T376 370V393Q363 469 334 469Q310 469 304 425Q301 408 301 395T298 366Q294 352 289 315Q294 302 301 302Q303 302 309 305T327 314Q342 314 359 317Q382 319 382 336ZM232 819Q232 825 246 831Q255 832 261 832T274 829Q300 837 300 861Q305 861 308 862T314 863Q323 863 327 867H328Q332 867 338 869T350 871L361 867Q368 867 379 878Q384 886 389 891T397 897Q409 894 417 892T429 890Q454 890 467 912Q477 933 484 933Q488 933 503 924Q511 916 515 914T523 910Q543 901 543 881Q543 806 494 806Q478 806 474 802L457 801L448 805Q436 808 432 808T419 796Q415 795 408 785Q404 781 399 780T385 773Q369 769 351 767T311 765L288 762Q285 758 280 755T269 743Q251 743 236 755Q219 767 219 782Q219 803 232 819Z"  />
<glyph unicode="&#xC2;" horiz-adv-x="606" d="M278 238Q233 241 233 180Q233 172 230 162T226 143Q226 126 246 120Q271 108 275 98Q275 71 225 62Q213 62 203 61T181 60Q175 57 164 53T135 46Q127 46 116 47T91 50Q79 52 70 62T60 85Q60 97 73 106T98 115Q101 115 105 116T114 118Q116 120 120 127T131 148Q136 152 142 159T156 179Q159 192 162 210T173 255Q179 270 179 284Q179 302 194 338Q194 342 195 355T196 393Q196 402 213 431Q213 445 214 462T219 504Q222 516 226 530T236 560Q238 563 241 573T253 600Q261 619 261 648Q261 667 269 675Q278 684 287 691T305 707L334 713Q391 680 397 658Q398 657 403 632Q403 628 408 611Q418 592 418 564Q418 556 420 543T428 511Q442 483 442 471Q442 459 436 454Q436 448 433 436Q433 425 441 406Q449 394 450 388T454 377Q455 374 456 370Q457 366 458 361T461 348Q461 343 462 336T467 321Q468 308 470 292T475 256L487 190Q491 169 504 158Q516 153 528 146T554 130Q592 110 592 95Q592 68 567 63Q556 62 547 61T527 59Q515 58 504 58T480 58Q463 58 454 58T436 60Q419 68 403 73T376 95Q376 137 397 140Q420 140 420 164Q420 205 392 210Q382 214 373 229Q354 229 320 232Q312 233 302 233T278 238ZM382 336Q382 344 379 354T376 370V393Q363 469 334 469Q310 469 304 425Q301 408 301 395T298 366Q294 352 289 315Q294 302 301 302Q303 302 309 305T327 314Q342 314 359 317Q382 319 382 336ZM418 946Q416 945 416 943Q416 942 422 933Q427 931 427 926Q427 927 427 925T424 915Q424 905 442 897Q461 888 461 879Q461 874 460 864T464 844Q464 818 489 812Q504 799 508 790Q508 783 509 777T504 750Q496 735 463 734Q440 734 427 742T413 768Q410 775 401 778T390 793Q381 810 381 814T382 822Q382 835 368 841Q366 843 362 849T350 863Q338 877 331 914Q329 906 323 902T311 883Q307 880 304 876T288 857L284 840Q279 836 276 832T272 822Q272 817 277 805Q275 801 273 796Q271 791 269 784T264 769Q264 735 212 735Q162 735 156 760Q154 767 151 776T141 796Q141 798 141 799T140 802V804Q140 813 169 817Q190 834 198 850Q198 854 205 864T213 877Q213 888 232 896Q252 905 252 915Q252 917 251 921T249 927Q254 935 263 944T278 963L291 971Q296 971 308 974Q315 975 318 975T326 976Q348 976 356 974Q374 974 384 973T408 963L418 946Z"  />
<glyph unicode="&#xC3;" horiz-adv-x="606" d="M278 238Q233 241 233 180Q233 172 230 162T226 143Q226 126 246 120Q271 108 275 98Q275 71 225 62Q213 62 203 61T181 60Q175 57 164 53T135 46Q127 46 116 47T91 50Q79 52 70 62T60 85Q60 97 73 106T98 115Q101 115 105 116T114 118Q116 120 120 127T131 148Q136 152 142 159T156 179Q159 192 162 210T173 255Q179 270 179 284Q179 302 194 338Q194 342 195 355T196 393Q196 402 213 431Q213 445 214 462T219 504Q222 516 226 530T236 560Q238 563 241 573T253 600Q261 619 261 648Q261 667 269 675Q278 684 287 691T305 707L334 713Q391 680 397 658Q398 657 403 632Q403 628 408 611Q418 592 418 564Q418 556 420 543T428 511Q442 483 442 471Q442 459 436 454Q436 448 433 436Q433 425 441 406Q449 394 450 388T454 377Q455 374 456 370Q457 366 458 361T461 348Q461 343 462 336T467 321Q468 308 470 292T475 256L487 190Q491 169 504 158Q516 153 528 146T554 130Q592 110 592 95Q592 68 567 63Q556 62 547 61T527 59Q515 58 504 58T480 58Q463 58 454 58T436 60Q419 68 403 73T376 95Q376 137 397 140Q420 140 420 164Q420 205 392 210Q382 214 373 229Q354 229 320 232Q312 233 302 233T278 238ZM382 336Q382 344 379 354T376 370V393Q363 469 334 469Q310 469 304 425Q301 408 301 395T298 366Q294 352 289 315Q294 302 301 302Q303 302 309 305T327 314Q342 314 359 317Q382 319 382 336ZM248 904Q257 911 266 914T284 920T299 922T305 923Q312 923 344 909L350 893Q355 889 359 888T366 887Q369 884 370 884T372 883T376 880T385 874L397 863L409 855H426Q430 855 434 859T442 870T452 882T464 891Q468 900 473 909T487 923Q495 928 502 927T521 917Q531 913 531 901V894Q526 884 522 873T510 854Q500 844 492 834T475 821Q472 816 461 815T436 802Q428 785 413 779T387 772Q371 770 361 776T343 791L337 806L327 811Q325 807 319 812T307 816L292 827Q289 832 283 833T266 837Q255 838 250 833T232 822L223 812Q215 814 216 812T216 809Q211 809 206 804Q206 799 203 799Q200 796 190 794T176 786L157 783Q144 783 144 796Q144 799 144 804T144 816T147 827T153 835Q165 843 169 851T183 868Q191 876 199 878T216 888Q227 902 248 904Z"  />
<glyph unicode="&#xC4;" horiz-adv-x="606" d="M278 238Q233 241 233 180Q233 172 230 162T226 143Q226 126 246 120Q271 108 275 98Q275 71 225 62Q213 62 203 61T181 60Q175 57 164 53T135 46Q127 46 116 47T91 50Q79 52 70 62T60 85Q60 97 73 106T98 115Q101 115 105 116T114 118Q116 120 120 127T131 148Q136 152 142 159T156 179Q159 192 162 210T173 255Q179 270 179 284Q179 302 194 338Q194 342 195 355T196 393Q196 402 213 431Q213 445 214 462T219 504Q222 516 226 530T236 560Q238 563 241 573T253 600Q261 619 261 648Q261 667 269 675Q278 684 287 691T305 707L334 713Q391 680 397 658Q398 657 403 632Q403 628 408 611Q418 592 418 564Q418 556 420 543T428 511Q442 483 442 471Q442 459 436 454Q436 448 433 436Q433 425 441 406Q449 394 450 388T454 377Q455 374 456 370Q457 366 458 361T461 348Q461 343 462 336T467 321Q468 308 470 292T475 256L487 190Q491 169 504 158Q516 153 528 146T554 130Q592 110 592 95Q592 68 567 63Q556 62 547 61T527 59Q515 58 504 58T480 58Q463 58 454 58T436 60Q419 68 403 73T376 95Q376 137 397 140Q420 140 420 164Q420 205 392 210Q382 214 373 229Q354 229 320 232Q312 233 302 233T278 238ZM382 336Q382 344 379 354T376 370V393Q363 469 334 469Q310 469 304 425Q301 408 301 395T298 366Q294 352 289 315Q294 302 301 302Q303 302 309 305T327 314Q342 314 359 317Q382 319 382 336ZM419 842Q419 861 447 881Q475 900 494 900Q512 900 541 883L561 851Q564 842 564 838Q564 822 554 808Q545 793 540 785T534 775Q524 762 499 762Q496 760 487 759T462 756Q438 765 432 778Q432 778 417 811V827Q417 830 418 834T419 842ZM66 819Q67 823 69 831T77 857Q89 891 132 891Q156 891 162 880Q172 876 180 870Q180 865 184 861Q184 854 187 854L193 834Q190 803 184 792Q177 782 155 768Q140 756 134 756Q107 756 82 778Q76 786 73 796T66 819Z"  />
<glyph unicode="&#xC5;" horiz-adv-x="606" d="M278 238Q233 241 233 180Q233 172 230 162T226 143Q226 126 246 120Q271 108 275 98Q275 71 225 62Q213 62 203 61T181 60Q175 57 164 53T135 46Q127 46 116 47T91 50Q79 52 70 62T60 85Q60 97 73 106T98 115Q101 115 105 116T114 118Q116 120 120 127T131 148Q136 152 142 159T156 179Q159 192 162 210T173 255Q179 270 179 284Q179 302 194 338Q194 342 195 355T196 393Q196 402 213 431Q213 445 214 462T219 504Q222 516 226 530T236 560Q238 563 241 573T253 600Q261 619 261 648Q261 667 269 675Q278 684 287 691T305 707L334 713Q391 680 397 658Q398 657 403 632Q403 628 408 611Q418 592 418 564Q418 556 420 543T428 511Q442 483 442 471Q442 459 436 454Q436 448 433 436Q433 425 441 406Q449 394 450 388T454 377Q455 374 456 370Q457 366 458 361T461 348Q461 343 462 336T467 321Q468 308 470 292T475 256L487 190Q491 169 504 158Q516 153 528 146T554 130Q592 110 592 95Q592 68 567 63Q556 62 547 61T527 59Q515 58 504 58T480 58Q463 58 454 58T436 60Q419 68 403 73T376 95Q376 137 397 140Q420 140 420 164Q420 205 392 210Q382 214 373 229Q354 229 320 232Q312 233 302 233T278 238ZM382 336Q382 344 379 354T376 370V393Q363 469 334 469Q310 469 304 425Q301 408 301 395T298 366Q294 352 289 315Q294 302 301 302Q303 302 309 305T327 314Q342 314 359 317Q382 319 382 336ZM233 863Q237 868 240 874T251 890Q259 898 263 907T275 922Q287 930 300 931T327 933Q339 933 346 930T363 922Q368 918 376 917T389 910Q394 902 399 898T408 884Q408 881 407 874T409 865Q410 857 411 852T412 844Q410 839 409 835T406 822Q403 814 400 811T389 799Q381 791 376 782T354 768Q346 764 337 762T320 759Q308 759 303 762T295 766L275 769Q270 770 258 779T238 805Q233 813 234 823T230 845Q233 855 233 863ZM282 881Q279 878 278 875T274 863Q270 857 268 854T265 842Q265 833 282 811Q290 802 298 799T315 795Q324 795 331 798T343 804Q351 807 356 807T364 812Q377 825 377 840Q377 864 366 880Q362 885 357 886T347 890Q339 893 332 896T317 899Q309 899 300 894T282 881Z"  />
<glyph unicode="&#xC6;" horiz-adv-x="852" d="M399 713L419 711H459Q470 711 484 719Q492 722 498 723T510 724Q522 724 537 720Q552 714 566 714Q573 714 592 724Q600 730 608 732T624 734H647Q650 733 652 733T658 730Q663 729 665 728T668 727Q673 726 677 725T685 724H701Q706 724 726 729Q743 733 755 733Q763 730 771 725T793 714Q819 702 827 677Q830 665 832 653T838 629Q847 608 847 586Q847 585 846 583T844 572Q842 564 842 562T841 556Q841 547 841 539T840 521Q837 499 828 490Q827 490 823 489T814 487Q812 487 804 488T782 492Q768 496 768 534Q760 546 756 556T747 576L749 605Q745 607 743 612L739 622Q725 632 718 638T708 644Q701 648 675 648Q666 648 647 638Q624 629 613 629Q608 629 603 630T595 632Q585 634 575 635T554 636Q535 636 510 605L505 588L510 570L507 557L494 539Q494 537 494 534T492 527Q492 522 510 497V449Q511 443 531 428Q550 416 560 416Q571 416 590 429Q607 443 615 454Q615 474 615 484T618 500Q624 521 645 534Q652 539 660 539Q674 539 684 520Q689 503 693 488T697 452Q697 444 697 430T696 406Q696 398 694 386T691 366Q691 345 690 320T685 264Q679 248 658 248Q632 248 628 261Q624 266 624 294Q624 314 611 330L586 354Q584 358 553 360Q548 361 544 361T537 361H528Q522 361 518 344L511 321Q508 310 506 303T500 289Q504 282 504 261Q504 257 502 249T497 229Q500 221 502 210T507 183Q507 166 508 150T524 124Q541 117 554 117Q564 117 582 120Q596 125 609 125Q621 127 639 127T683 131Q701 132 729 157Q756 182 756 200Q755 203 754 207T752 217Q752 222 756 239L763 261Q765 271 765 281T769 302Q775 327 799 327Q820 327 832 298Q838 286 840 274T842 249Q842 244 840 236T838 223Q838 213 839 196T841 170Q841 60 786 60Q785 60 772 63T732 71Q726 71 720 68T703 60Q695 58 688 56Q680 56 668 57T641 60Q608 63 593 63Q590 63 586 62T577 60Q560 60 553 65Q540 60 517 57T458 53Q444 53 428 55T392 60Q384 62 379 63T370 66Q360 69 359 81Q360 85 360 91Q360 94 359 96T357 102Q357 116 389 128Q420 143 420 181Q420 215 382 219Q373 226 275 226Q246 226 236 187Q231 178 225 156Q222 148 222 144Q222 134 236 128Q252 119 262 107Q248 69 171 69Q162 69 143 60Q132 57 125 55T112 53Q43 53 43 86Q43 91 45 92Q57 116 82 121Q104 125 120 144L127 156Q131 157 147 173Q163 189 164 193Q166 196 168 203T174 222Q184 238 199 275Q204 285 211 298T226 330Q229 338 231 350T238 380Q240 393 264 420Q267 432 270 446T278 478Q279 483 287 500T312 550Q317 560 321 566T330 580Q336 589 340 593Q341 598 344 603T350 616Q350 621 351 627T356 641Q342 649 328 655Q312 665 312 680Q312 691 325 696Q342 702 355 706T380 711L399 713ZM413 338Q413 342 413 346T415 356Q416 361 417 364T418 372V384Q418 459 392 459Q375 459 357 429Q351 420 350 412Q347 402 345 389T334 357Q315 309 315 305Q315 292 325 292Q328 292 330 294L341 298Q356 304 360 305L392 307Q402 311 413 327V338Z"  />
<glyph unicode="&#xC7;" horiz-adv-x="573" d="M359 644Q351 647 342 650T320 662L287 671Q255 671 235 648Q218 630 208 619T194 603Q184 592 180 578T176 550Q176 548 171 532T156 487Q157 483 157 481T160 475Q152 428 150 405T147 376Q147 351 153 334T160 300Q160 275 179 233Q195 188 209 176Q241 138 272 138Q287 138 311 153Q335 168 343 180Q348 192 358 209T383 248L395 259Q403 271 409 283T423 307Q442 330 471 330Q484 330 494 320Q503 313 505 284Q507 279 507 272T510 255L501 233Q491 222 485 206T474 168Q466 133 420 107Q407 99 389 90T346 69Q338 69 327 68T300 65V32L317 27H330Q344 19 364 1Q372 -10 372 -48Q372 -52 366 -62Q355 -88 346 -92Q338 -95 331 -99T315 -108L302 -107Q301 -108 300 -108T295 -112Q286 -115 282 -115Q235 -115 235 -101Q235 -92 240 -88Q288 -85 295 -79Q313 -71 320 -32L318 -20L310 -16Q306 -13 306 -12T304 -9Q283 -9 272 -14Q261 -3 264 4Q270 39 268 63H259Q251 67 237 73T203 91L173 108Q165 113 155 120T131 137Q113 147 96 196Q91 219 87 239T81 281Q72 371 72 373Q71 376 70 383T65 402Q60 424 60 432Q60 431 61 436T63 454Q65 465 67 481T75 520Q78 525 80 532T85 552L82 564Q84 574 86 595T99 644Q105 657 109 664T117 675Q120 681 127 685T144 696Q153 700 164 708T190 729Q239 746 269 746H320Q326 746 336 742T361 727Q393 710 405 710Q409 713 415 717T431 726Q438 734 465 734Q465 733 467 733Q468 733 470 733T474 732Q513 715 513 681Q513 673 513 665T511 642V605Q511 600 511 593T513 577Q516 569 516 563T516 552Q516 543 513 534T504 514Q490 494 474 494Q470 494 464 495T448 500L418 521Q415 524 406 560Q403 565 398 576T383 605Q380 611 375 620T359 644Z"  />
<glyph unicode="&#xC8;" horiz-adv-x="697" d="M520 572Q520 579 510 588Q498 597 491 602T480 611Q475 613 467 614T446 615Q439 615 418 605Q406 600 399 598T386 595Q384 595 379 596T364 600Q347 603 325 603Q309 603 292 586Q276 570 276 554Q276 547 281 537L278 524Q265 504 265 500Q265 490 282 467Q281 460 280 450T278 425L282 413Q312 382 331 382Q342 382 360 396Q380 410 386 420Q387 439 388 449T390 465Q394 486 416 500Q421 504 431 504Q451 504 455 485Q460 467 462 452L468 436Q468 424 468 405T467 360Q465 352 464 343T461 320V292Q462 282 462 275T462 265Q462 257 462 255T461 249Q461 215 429 215Q398 215 395 245Q387 291 382 295L370 308Q355 323 354 323L333 325Q324 325 318 326T308 327Q302 327 301 328Q297 327 289 311Q288 303 287 299T284 287Q282 285 281 283T275 272Q273 269 272 265T271 258Q271 256 273 250T275 242V226Q275 218 272 210T269 197Q269 192 270 188T272 180Q275 165 276 163Q276 158 277 153T278 137Q279 124 280 112T295 91Q310 82 325 82Q330 82 337 83T354 86Q363 90 370 90T380 92Q416 90 468 102Q527 131 527 170Q527 176 524 184Q527 192 529 202T534 226Q536 235 536 246T540 274L556 289Q565 292 570 292Q615 292 615 216Q613 211 612 205T611 193Q611 184 612 168T613 144Q613 92 608 78L576 30Q567 29 563 28T553 27Q550 27 527 32Q513 34 505 35T495 37Q490 36 478 29Q464 22 459 22Q419 26 395 28T363 30Q352 30 348 27Q343 29 336 29T317 33Q305 36 299 37T289 39Q275 39 229 23Q226 23 211 26T168 36Q155 39 149 40T140 43Q128 52 128 73Q130 75 133 79T143 89L166 98L183 112Q202 144 202 164Q202 166 201 176T197 206Q195 226 194 235T193 246L190 261L197 304Q199 307 196 317T192 331Q192 336 193 346T196 361Q194 363 193 378T186 422Q187 430 188 435T190 444Q192 446 192 451Q192 456 190 467T187 487Q187 491 187 497T189 511Q192 523 192 528T193 537Q192 540 191 553T187 588Q186 598 158 598Q153 598 107 618Q85 628 85 647Q85 662 121 672Q133 676 145 677T170 678Q178 678 195 678T223 677Q227 677 234 679T252 684Q269 691 281 691Q286 691 293 690T308 685Q318 682 325 681T337 680Q341 680 364 690Q384 701 395 701Q398 701 414 699T464 691Q518 700 526 700Q526 700 550 688Q600 661 600 628L618 564Q616 558 616 548T613 523Q612 513 612 505T611 487Q608 464 599 456L586 454Q578 455 571 455T554 459L541 468Q540 476 540 483T539 500Q533 512 528 521T518 543L520 572ZM441 783Q441 767 425 755T392 743Q390 746 385 750T372 762Q370 763 338 763Q340 763 330 765T298 770Q293 770 288 771T274 775Q269 776 265 778T252 785Q232 806 222 806L212 805Q203 799 199 799Q191 799 180 802T161 805Q138 805 128 835Q118 856 118 881Q118 896 134 909Q152 920 162 926T176 933Q182 933 193 912Q203 890 230 890Q244 893 252 895T262 897Q271 897 279 881Q287 867 298 867Q301 867 305 870T312 873L334 867Q335 866 360 861Q360 826 390 829L395 831H413Q428 827 432 812L441 783Z"  />
<glyph unicode="&#xC9;" horiz-adv-x="697" d="M520 572Q520 579 510 588Q498 597 491 602T480 611Q475 613 467 614T446 615Q439 615 418 605Q406 600 399 598T386 595Q384 595 379 596T364 600Q347 603 325 603Q309 603 292 586Q276 570 276 554Q276 547 281 537L278 524Q265 504 265 500Q265 490 282 467Q281 460 280 450T278 425L282 413Q312 382 331 382Q342 382 360 396Q380 410 386 420Q387 439 388 449T390 465Q394 486 416 500Q421 504 431 504Q451 504 455 485Q460 467 462 452L468 436Q468 424 468 405T467 360Q465 352 464 343T461 320V292Q462 282 462 275T462 265Q462 257 462 255T461 249Q461 215 429 215Q398 215 395 245Q387 291 382 295L370 308Q355 323 354 323L333 325Q324 325 318 326T308 327Q302 327 301 328Q297 327 289 311Q288 303 287 299T284 287Q282 285 281 283T275 272Q273 269 272 265T271 258Q271 256 273 250T275 242V226Q275 218 272 210T269 197Q269 192 270 188T272 180Q275 165 276 163Q276 158 277 153T278 137Q279 124 280 112T295 91Q310 82 325 82Q330 82 337 83T354 86Q363 90 370 90T380 92Q416 90 468 102Q527 131 527 170Q527 176 524 184Q527 192 529 202T534 226Q536 235 536 246T540 274L556 289Q565 292 570 292Q615 292 615 216Q613 211 612 205T611 193Q611 184 612 168T613 144Q613 92 608 78L576 30Q567 29 563 28T553 27Q550 27 527 32Q513 34 505 35T495 37Q490 36 478 29Q464 22 459 22Q419 26 395 28T363 30Q352 30 348 27Q343 29 336 29T317 33Q305 36 299 37T289 39Q275 39 229 23Q226 23 211 26T168 36Q155 39 149 40T140 43Q128 52 128 73Q130 75 133 79T143 89L166 98L183 112Q202 144 202 164Q202 166 201 176T197 206Q195 226 194 235T193 246L190 261L197 304Q199 307 196 317T192 331Q192 336 193 346T196 361Q194 363 193 378T186 422Q187 430 188 435T190 444Q192 446 192 451Q192 456 190 467T187 487Q187 491 187 497T189 511Q192 523 192 528T193 537Q192 540 191 553T187 588Q186 598 158 598Q153 598 107 618Q85 628 85 647Q85 662 121 672Q133 676 145 677T170 678Q178 678 195 678T223 677Q227 677 234 679T252 684Q269 691 281 691Q286 691 293 690T308 685Q318 682 325 681T337 680Q341 680 364 690Q384 701 395 701Q398 701 414 699T464 691Q518 700 526 700Q526 700 550 688Q600 661 600 628L618 564Q616 558 616 548T613 523Q612 513 612 505T611 487Q608 464 599 456L586 454Q578 455 571 455T554 459L541 468Q540 476 540 483T539 500Q533 512 528 521T518 543L520 572ZM221 819Q221 825 235 831Q244 832 250 832T263 829Q289 837 289 861Q294 861 297 862T303 863Q312 863 316 867H317Q321 867 327 869T339 871L350 867Q357 867 368 878Q373 886 378 891T386 897Q398 894 406 892T418 890Q443 890 456 912Q466 933 473 933Q477 933 492 924Q500 916 504 914T512 910Q532 901 532 881Q532 806 483 806Q467 806 463 802L446 801L437 805Q425 808 421 808T408 796Q404 795 397 785Q393 781 388 780T374 773Q358 769 340 767T300 765L277 762Q274 758 269 755T258 743Q240 743 225 755Q208 767 208 782Q208 803 221 819Z"  />
<glyph unicode="&#xCA;" horiz-adv-x="697" d="M520 572Q520 579 510 588Q498 597 491 602T480 611Q475 613 467 614T446 615Q439 615 418 605Q406 600 399 598T386 595Q384 595 379 596T364 600Q347 603 325 603Q309 603 292 586Q276 570 276 554Q276 547 281 537L278 524Q265 504 265 500Q265 490 282 467Q281 460 280 450T278 425L282 413Q312 382 331 382Q342 382 360 396Q380 410 386 420Q387 439 388 449T390 465Q394 486 416 500Q421 504 431 504Q451 504 455 485Q460 467 462 452L468 436Q468 424 468 405T467 360Q465 352 464 343T461 320V292Q462 282 462 275T462 265Q462 257 462 255T461 249Q461 215 429 215Q398 215 395 245Q387 291 382 295L370 308Q355 323 354 323L333 325Q324 325 318 326T308 327Q302 327 301 328Q297 327 289 311Q288 303 287 299T284 287Q282 285 281 283T275 272Q273 269 272 265T271 258Q271 256 273 250T275 242V226Q275 218 272 210T269 197Q269 192 270 188T272 180Q275 165 276 163Q276 158 277 153T278 137Q279 124 280 112T295 91Q310 82 325 82Q330 82 337 83T354 86Q363 90 370 90T380 92Q416 90 468 102Q527 131 527 170Q527 176 524 184Q527 192 529 202T534 226Q536 235 536 246T540 274L556 289Q565 292 570 292Q615 292 615 216Q613 211 612 205T611 193Q611 184 612 168T613 144Q613 92 608 78L576 30Q567 29 563 28T553 27Q550 27 527 32Q513 34 505 35T495 37Q490 36 478 29Q464 22 459 22Q419 26 395 28T363 30Q352 30 348 27Q343 29 336 29T317 33Q305 36 299 37T289 39Q275 39 229 23Q226 23 211 26T168 36Q155 39 149 40T140 43Q128 52 128 73Q130 75 133 79T143 89L166 98L183 112Q202 144 202 164Q202 166 201 176T197 206Q195 226 194 235T193 246L190 261L197 304Q199 307 196 317T192 331Q192 336 193 346T196 361Q194 363 193 378T186 422Q187 430 188 435T190 444Q192 446 192 451Q192 456 190 467T187 487Q187 491 187 497T189 511Q192 523 192 528T193 537Q192 540 191 553T187 588Q186 598 158 598Q153 598 107 618Q85 628 85 647Q85 662 121 672Q133 676 145 677T170 678Q178 678 195 678T223 677Q227 677 234 679T252 684Q269 691 281 691Q286 691 293 690T308 685Q318 682 325 681T337 680Q341 680 364 690Q384 701 395 701Q398 701 414 699T464 691Q518 700 526 700Q526 700 550 688Q600 661 600 628L618 564Q616 558 616 548T613 523Q612 513 612 505T611 487Q608 464 599 456L586 454Q578 455 571 455T554 459L541 468Q540 476 540 483T539 500Q533 512 528 521T518 543L520 572ZM427 946Q425 945 425 943Q425 942 431 933Q436 931 436 926Q436 927 436 925T433 915Q433 905 451 897Q470 888 470 879Q470 874 469 864T473 844Q473 818 498 812Q513 799 517 790Q517 783 518 777T513 750Q505 735 472 734Q449 734 436 742T422 768Q419 775 410 778T399 793Q390 810 390 814T391 822Q391 835 377 841Q375 843 371 849T359 863Q347 877 340 914Q338 906 332 902T320 883Q316 880 313 876T297 857L293 840Q288 836 285 832T281 822Q281 817 286 805Q284 801 282 796Q280 791 278 784T273 769Q273 735 221 735Q171 735 165 760Q163 767 160 776T150 796Q150 798 150 799T149 802V804Q149 813 178 817Q199 834 207 850Q207 854 214 864T222 877Q222 888 241 896Q261 905 261 915Q261 917 260 921T258 927Q263 935 272 944T287 963L300 971Q305 971 317 974Q324 975 327 975T335 976Q357 976 365 974Q383 974 393 973T417 963L427 946Z"  />
<glyph unicode="&#xCB;" horiz-adv-x="697" d="M520 572Q520 579 510 588Q498 597 491 602T480 611Q475 613 467 614T446 615Q439 615 418 605Q406 600 399 598T386 595Q384 595 379 596T364 600Q347 603 325 603Q309 603 292 586Q276 570 276 554Q276 547 281 537L278 524Q265 504 265 500Q265 490 282 467Q281 460 280 450T278 425L282 413Q312 382 331 382Q342 382 360 396Q380 410 386 420Q387 439 388 449T390 465Q394 486 416 500Q421 504 431 504Q451 504 455 485Q460 467 462 452L468 436Q468 424 468 405T467 360Q465 352 464 343T461 320V292Q462 282 462 275T462 265Q462 257 462 255T461 249Q461 215 429 215Q398 215 395 245Q387 291 382 295L370 308Q355 323 354 323L333 325Q324 325 318 326T308 327Q302 327 301 328Q297 327 289 311Q288 303 287 299T284 287Q282 285 281 283T275 272Q273 269 272 265T271 258Q271 256 273 250T275 242V226Q275 218 272 210T269 197Q269 192 270 188T272 180Q275 165 276 163Q276 158 277 153T278 137Q279 124 280 112T295 91Q310 82 325 82Q330 82 337 83T354 86Q363 90 370 90T380 92Q416 90 468 102Q527 131 527 170Q527 176 524 184Q527 192 529 202T534 226Q536 235 536 246T540 274L556 289Q565 292 570 292Q615 292 615 216Q613 211 612 205T611 193Q611 184 612 168T613 144Q613 92 608 78L576 30Q567 29 563 28T553 27Q550 27 527 32Q513 34 505 35T495 37Q490 36 478 29Q464 22 459 22Q419 26 395 28T363 30Q352 30 348 27Q343 29 336 29T317 33Q305 36 299 37T289 39Q275 39 229 23Q226 23 211 26T168 36Q155 39 149 40T140 43Q128 52 128 73Q130 75 133 79T143 89L166 98L183 112Q202 144 202 164Q202 166 201 176T197 206Q195 226 194 235T193 246L190 261L197 304Q199 307 196 317T192 331Q192 336 193 346T196 361Q194 363 193 378T186 422Q187 430 188 435T190 444Q192 446 192 451Q192 456 190 467T187 487Q187 491 187 497T189 511Q192 523 192 528T193 537Q192 540 191 553T187 588Q186 598 158 598Q153 598 107 618Q85 628 85 647Q85 662 121 672Q133 676 145 677T170 678Q178 678 195 678T223 677Q227 677 234 679T252 684Q269 691 281 691Q286 691 293 690T308 685Q318 682 325 681T337 680Q341 680 364 690Q384 701 395 701Q398 701 414 699T464 691Q518 700 526 700Q526 700 550 688Q600 661 600 628L618 564Q616 558 616 548T613 523Q612 513 612 505T611 487Q608 464 599 456L586 454Q578 455 571 455T554 459L541 468Q540 476 540 483T539 500Q533 512 528 521T518 543L520 572ZM426 842Q426 861 454 881Q482 900 501 900Q519 900 548 883L568 851Q571 842 571 838Q571 822 561 808Q552 793 547 785T541 775Q531 762 506 762Q503 760 494 759T469 756Q445 765 439 778Q439 778 424 811V827Q424 830 425 834T426 842ZM73 819Q74 823 76 831T84 857Q96 891 139 891Q163 891 169 880Q179 876 187 870Q187 865 191 861Q191 854 194 854L200 834Q197 803 191 792Q184 782 162 768Q147 756 141 756Q114 756 89 778Q83 786 80 796T73 819Z"  />
<glyph unicode="&#xCC;" horiz-adv-x="599" d="M140 619Q136 623 133 624T124 628Q115 631 102 635T72 648Q68 653 68 661Q69 670 76 680Q84 693 125 703Q144 707 158 709T184 711Q186 711 209 711T281 708Q289 708 303 710T325 713Q329 713 342 712T377 706Q384 708 390 709T402 710Q410 710 420 709T448 704Q540 689 540 661Q539 656 536 650T527 635Q522 630 512 628T487 624Q468 622 457 621T441 618L420 611Q399 603 390 593L382 576Q382 564 373 540Q371 538 360 474Q359 464 358 460T357 452Q357 449 359 435T364 393Q364 388 362 381T360 370V330Q360 323 356 310Q351 293 351 285Q351 280 354 270T357 253Q357 248 357 242T356 223Q353 203 353 194Q353 158 364 138L390 118Q398 118 409 117T436 114Q453 111 485 102Q494 102 518 91L524 73Q519 55 491 45Q458 31 432 29Q415 30 394 30T343 26Q292 39 281 39Q270 39 260 38T238 35Q230 33 227 33T220 33Q216 33 215 32Q186 32 153 36T81 50Q71 60 71 76Q83 109 102 109Q123 109 203 127Q208 127 214 128T229 132Q240 141 240 168Q240 172 225 222Q226 230 226 235T230 245Q230 253 229 266T223 300Q227 320 228 330T229 338Q229 396 229 442T228 527Q224 536 224 550T220 595Q218 606 206 606Q201 606 190 606T174 605Q154 605 140 619ZM413 803Q413 787 397 775T364 763Q362 766 357 770T344 782Q342 783 310 783Q312 783 302 785T270 790Q265 790 260 791T246 795Q241 796 237 798T224 805Q204 826 194 826L184 825Q175 819 171 819Q163 819 152 822T133 825Q110 825 100 855Q90 876 90 901Q90 916 106 929Q124 940 134 946T148 953Q154 953 165 932Q175 910 202 910Q216 913 224 915T234 917Q243 917 251 901Q259 887 270 887Q273 887 277 890T284 893L306 887Q307 886 332 881Q332 846 362 849L367 851H385Q400 847 404 832L413 803Z"  />
<glyph unicode="&#xCD;" horiz-adv-x="599" d="M140 619Q136 623 133 624T124 628Q115 631 102 635T72 648Q68 653 68 661Q69 670 76 680Q84 693 125 703Q144 707 158 709T184 711Q186 711 209 711T281 708Q289 708 303 710T325 713Q329 713 342 712T377 706Q384 708 390 709T402 710Q410 710 420 709T448 704Q540 689 540 661Q539 656 536 650T527 635Q522 630 512 628T487 624Q468 622 457 621T441 618L420 611Q399 603 390 593L382 576Q382 564 373 540Q371 538 360 474Q359 464 358 460T357 452Q357 449 359 435T364 393Q364 388 362 381T360 370V330Q360 323 356 310Q351 293 351 285Q351 280 354 270T357 253Q357 248 357 242T356 223Q353 203 353 194Q353 158 364 138L390 118Q398 118 409 117T436 114Q453 111 485 102Q494 102 518 91L524 73Q519 55 491 45Q458 31 432 29Q415 30 394 30T343 26Q292 39 281 39Q270 39 260 38T238 35Q230 33 227 33T220 33Q216 33 215 32Q186 32 153 36T81 50Q71 60 71 76Q83 109 102 109Q123 109 203 127Q208 127 214 128T229 132Q240 141 240 168Q240 172 225 222Q226 230 226 235T230 245Q230 253 229 266T223 300Q227 320 228 330T229 338Q229 396 229 442T228 527Q224 536 224 550T220 595Q218 606 206 606Q201 606 190 606T174 605Q154 605 140 619ZM215 839Q215 845 229 851Q238 852 244 852T257 849Q283 857 283 881Q288 881 291 882T297 883Q306 883 310 887H311Q315 887 321 889T333 891L344 887Q351 887 362 898Q367 906 372 911T380 917Q392 914 400 912T412 910Q437 910 450 932Q460 953 467 953Q471 953 486 944Q494 936 498 934T506 930Q526 921 526 901Q526 826 477 826Q461 826 457 822L440 821L431 825Q419 828 415 828T402 816Q398 815 391 805Q387 801 382 800T368 793Q352 789 334 787T294 785L271 782Q268 778 263 775T252 763Q234 763 219 775Q202 787 202 802Q202 823 215 839Z"  />
<glyph unicode="&#xCE;" horiz-adv-x="599" d="M140 619Q136 623 133 624T124 628Q115 631 102 635T72 648Q68 653 68 661Q69 670 76 680Q84 693 125 703Q144 707 158 709T184 711Q186 711 209 711T281 708Q289 708 303 710T325 713Q329 713 342 712T377 706Q384 708 390 709T402 710Q410 710 420 709T448 704Q540 689 540 661Q539 656 536 650T527 635Q522 630 512 628T487 624Q468 622 457 621T441 618L420 611Q399 603 390 593L382 576Q382 564 373 540Q371 538 360 474Q359 464 358 460T357 452Q357 449 359 435T364 393Q364 388 362 381T360 370V330Q360 323 356 310Q351 293 351 285Q351 280 354 270T357 253Q357 248 357 242T356 223Q353 203 353 194Q353 158 364 138L390 118Q398 118 409 117T436 114Q453 111 485 102Q494 102 518 91L524 73Q519 55 491 45Q458 31 432 29Q415 30 394 30T343 26Q292 39 281 39Q270 39 260 38T238 35Q230 33 227 33T220 33Q216 33 215 32Q186 32 153 36T81 50Q71 60 71 76Q83 109 102 109Q123 109 203 127Q208 127 214 128T229 132Q240 141 240 168Q240 172 225 222Q226 230 226 235T230 245Q230 253 229 266T223 300Q227 320 228 330T229 338Q229 396 229 442T228 527Q224 536 224 550T220 595Q218 606 206 606Q201 606 190 606T174 605Q154 605 140 619ZM386 966Q384 965 384 963Q384 962 390 953Q395 951 395 946Q395 947 395 945T392 935Q392 925 410 917Q429 908 429 899Q429 894 428 884T432 864Q432 838 457 832Q472 819 476 810Q476 803 477 797T472 770Q464 755 431 754Q408 754 395 762T381 788Q378 795 369 798T358 813Q349 830 349 834T350 842Q350 855 336 861Q334 863 330 869T318 883Q306 897 299 934Q297 926 291 922T279 903Q275 900 272 896T256 877L252 860Q247 856 244 852T240 842Q240 837 245 825Q243 821 241 816Q239 811 237 804T232 789Q232 755 180 755Q130 755 124 780Q122 787 119 796T109 816Q109 818 109 819T108 822V824Q108 833 137 837Q158 854 166 870Q166 874 173 884T181 897Q181 908 200 916Q220 925 220 935Q220 937 219 941T217 947Q222 955 231 964T246 983L259 991Q264 991 276 994Q283 995 286 995T294 996Q316 996 324 994Q342 994 352 993T376 983L386 966Z"  />
<glyph unicode="&#xCF;" horiz-adv-x="599" d="M140 619Q136 623 133 624T124 628Q115 631 102 635T72 648Q68 653 68 661Q69 670 76 680Q84 693 125 703Q144 707 158 709T184 711Q186 711 209 711T281 708Q289 708 303 710T325 713Q329 713 342 712T377 706Q384 708 390 709T402 710Q410 710 420 709T448 704Q540 689 540 661Q539 656 536 650T527 635Q522 630 512 628T487 624Q468 622 457 621T441 618L420 611Q399 603 390 593L382 576Q382 564 373 540Q371 538 360 474Q359 464 358 460T357 452Q357 449 359 435T364 393Q364 388 362 381T360 370V330Q360 323 356 310Q351 293 351 285Q351 280 354 270T357 253Q357 248 357 242T356 223Q353 203 353 194Q353 158 364 138L390 118Q398 118 409 117T436 114Q453 111 485 102Q494 102 518 91L524 73Q519 55 491 45Q458 31 432 29Q415 30 394 30T343 26Q292 39 281 39Q270 39 260 38T238 35Q230 33 227 33T220 33Q216 33 215 32Q186 32 153 36T81 50Q71 60 71 76Q83 109 102 109Q123 109 203 127Q208 127 214 128T229 132Q240 141 240 168Q240 172 225 222Q226 230 226 235T230 245Q230 253 229 266T223 300Q227 320 228 330T229 338Q229 396 229 442T228 527Q224 536 224 550T220 595Q218 606 206 606Q201 606 190 606T174 605Q154 605 140 619ZM405 862Q405 881 433 901Q461 920 480 920Q498 920 527 903L547 871Q550 862 550 858Q550 842 540 828Q531 813 526 805T520 795Q510 782 485 782Q482 780 473 779T448 776Q424 785 418 798Q418 798 403 831V847Q403 850 404 854T405 862ZM52 839Q53 843 55 851T63 877Q75 911 118 911Q142 911 148 900Q158 896 166 890Q166 885 170 881Q170 874 173 874L179 854Q176 823 170 812Q163 802 141 788Q126 776 120 776Q93 776 68 798Q62 806 59 816T52 839Z"  />
<glyph unicode="&#xD0;" horiz-adv-x="573" d="M282 14Q277 14 271 14T256 17Q246 19 240 19T230 22Q209 23 194 23T174 24Q164 24 154 23T132 19Q104 14 94 14Q92 14 83 17T55 24Q38 28 32 29T22 32Q6 38 6 59Q6 88 37 88Q43 88 54 85T73 81Q111 81 114 108Q114 111 115 115Q117 120 117 126T121 141L128 181Q125 189 123 200T121 228Q121 252 124 255Q124 263 124 272T127 294Q130 306 131 315T132 328Q124 330 120 330T112 330Q109 330 103 329T85 328Q73 327 65 327T52 327Q15 327 0 354Q0 364 22 379Q26 382 34 383T55 389Q71 387 90 388T130 390L134 403Q128 421 128 435Q128 440 130 450T132 469Q132 491 124 504Q124 513 130 527T137 550Q137 594 107 609Q95 615 52 625Q22 631 22 651Q22 666 37 671Q45 671 54 672T78 675Q83 675 91 678T117 684Q127 687 136 689T156 691Q160 691 167 690T183 684Q198 678 210 678Q238 678 240 680Q248 683 259 685T284 691Q309 683 332 676T382 661Q412 647 465 599Q504 564 504 534Q504 509 520 480Q536 457 539 449Q540 435 540 426T540 408L546 395Q546 374 536 327Q537 319 538 314T540 300Q537 288 532 271T518 229Q515 210 510 190T497 145Q492 140 488 131T475 109Q471 100 432 73Q422 65 412 58T392 43Q376 32 344 26Q317 21 302 18T282 14ZM444 346Q444 373 442 393T433 426Q433 430 426 451Q423 459 423 464T420 475Q417 485 411 498T397 533Q396 536 395 539T390 550Q381 563 380 564Q370 576 357 584T327 598H281Q269 596 261 596T248 596Q243 595 239 592T229 586Q224 574 222 566T216 553Q216 548 213 539T209 524Q209 519 210 511T213 491Q222 467 222 456Q223 451 223 442T228 419L230 406L228 392H235Q276 392 289 400Q297 406 301 408T310 410Q319 410 324 405L323 408Q331 404 337 400T351 393Q372 382 372 373Q372 354 343 338Q317 325 298 325Q290 325 275 326T252 327Q246 327 236 330Q231 330 228 330T220 331Q219 326 218 317T213 295Q213 289 222 276Q230 267 230 259Q230 261 215 222V213Q215 208 217 195T220 174Q219 176 218 168T215 143Q215 138 223 121Q237 92 266 92Q287 92 300 101T327 122Q330 122 331 124Q335 125 337 125T344 130Q374 145 384 179Q388 187 389 195T396 216Q399 221 403 228T413 243Q423 260 430 277T442 312Q444 315 444 346Z"  />
<glyph unicode="&#xD1;" horiz-adv-x="647" d="M400 553Q400 570 379 585Q361 600 341 600Q336 600 330 598T315 590Q299 579 291 579Q274 579 274 624Q274 656 337 667H354Q359 665 363 665T370 665Q378 665 390 664T419 661Q424 660 429 659T438 657Q489 657 503 662H510Q560 662 560 638L552 618L531 603Q494 603 480 593L471 580Q471 565 465 541L462 526Q462 524 463 518T465 494Q468 468 469 446T471 403Q471 395 468 380T465 357Q464 350 464 342T464 324V265Q464 258 464 249T465 228Q465 222 466 216T469 200Q473 192 474 185T475 171Q475 168 473 159T468 132Q465 115 465 99T462 65Q458 33 420 12Q376 12 330 73Q322 88 310 147Q308 157 303 171T288 202Q270 236 268 255Q265 267 263 280T255 312Q252 318 249 324T240 341Q239 348 235 355T225 373Q221 376 218 380T209 390Q207 402 207 413T204 436Q201 465 186 477Q168 477 168 441V413Q168 408 169 403T171 395Q173 384 174 378T176 367Q176 361 170 346Q166 330 166 320Q166 312 168 299T171 281Q163 264 160 252T157 232Q159 225 166 168Q166 165 166 162T168 150Q171 139 171 131Q171 123 167 112T163 92Q163 75 190 66Q202 63 211 62T232 58L248 40Q248 9 207 9Q203 9 191 11T173 14Q164 14 156 13T138 9Q111 1 105 0Q97 3 88 3T65 7Q-4 11 -4 36Q-4 62 60 75L68 82Q71 87 73 111T84 180Q87 193 88 212T95 258Q95 261 97 265T99 275Q97 277 95 287T89 317Q84 342 82 363T79 402V413Q79 422 81 426Q84 436 84 439T85 451Q85 463 85 481T86 526Q86 560 49 589Q44 594 34 599T1 621L-4 632Q-4 647 16 658Q35 671 49 671Q57 671 68 667T88 662Q91 662 92 663T96 664Q106 664 125 664T154 665H171Q197 665 225 592Q235 568 239 554T243 534Q243 531 244 526T246 516Q254 499 266 480T300 439Q297 419 297 408V399L314 360Q314 356 325 331Q338 312 338 297Q338 283 372 240L377 235Q382 230 386 228Q387 229 395 232L397 242Q390 290 396 301V312Q396 317 395 323T390 337Q386 352 386 360Q386 363 387 368T390 382Q394 390 395 394T397 402Q395 420 394 429T393 441Q393 443 394 446T396 454Q398 464 399 471T400 481L397 492Q396 496 396 500T396 507Q396 515 398 530T400 553ZM199 904Q208 911 217 914T235 920T250 922T256 923Q263 923 295 909L301 893Q306 889 310 888T317 887Q320 884 321 884T323 883T327 880T336 874L348 863L360 855H377Q381 855 385 859T393 870T403 882T415 891Q419 900 424 909T438 923Q446 928 453 927T472 917Q482 913 482 901V894Q477 884 473 873T461 854Q451 844 443 834T426 821Q423 816 412 815T387 802Q379 785 364 779T338 772Q322 770 312 776T294 791L288 806L278 811Q276 807 270 812T258 816L243 827Q240 832 234 833T217 837Q206 838 201 833T183 822L174 812Q166 814 167 812T167 809Q162 809 157 804Q157 799 154 799Q151 796 141 794T127 786L108 783Q95 783 95 796Q95 799 95 804T95 816T98 827T104 835Q116 843 120 851T134 868Q142 876 150 878T167 888Q178 902 199 904Z"  />
<glyph unicode="&#xD2;" horiz-adv-x="660" d="M366 29Q361 29 342 33T292 48Q275 49 239 65Q234 73 227 81T209 101Q201 109 190 117T164 143Q161 148 157 156T144 176Q144 179 142 184T137 203Q135 208 134 214T130 232Q118 265 117 298Q117 312 117 332T115 379Q112 399 110 408T108 416Q108 445 119 477T153 544Q168 568 168 580Q168 622 282 688Q290 692 300 694T324 698Q358 703 366 708H390Q437 708 448 697Q461 692 478 684T521 662Q578 621 589 576Q591 567 596 553Q601 541 606 524T619 481V462Q621 457 624 443T628 420Q628 412 625 400T621 383Q621 380 622 363T626 311Q625 308 624 304T621 294Q617 285 614 273T605 243Q600 229 599 220T593 193Q581 154 530 98Q501 68 442 50Q364 29 366 29ZM377 108Q381 108 384 108T395 111Q434 120 448 132Q449 136 455 148T475 186Q483 202 491 219T510 258Q510 261 512 277T517 324Q523 414 526 410Q524 416 521 426T513 451Q515 471 516 481T517 494Q517 502 512 510T498 531Q486 545 480 554T471 569Q468 574 466 579T461 589Q451 592 437 599T405 618Q394 626 382 626Q356 626 317 605Q309 600 300 600Q294 599 280 581T240 527Q216 489 216 481Q216 478 217 468T219 454Q219 450 217 445T212 431Q204 412 204 408Q204 376 206 343T212 271Q220 259 230 243T252 206Q257 194 261 185T271 161Q271 158 272 155T276 143Q296 108 366 108H377ZM482 783Q482 767 466 755T433 743Q431 746 426 750T413 762Q411 763 379 763Q381 763 371 765T339 770Q334 770 329 771T315 775Q310 776 306 778T293 785Q273 806 263 806L253 805Q244 799 240 799Q232 799 221 802T202 805Q179 805 169 835Q159 856 159 881Q159 896 175 909Q193 920 203 926T217 933Q223 933 234 912Q244 890 271 890Q285 893 293 895T303 897Q312 897 320 881Q328 867 339 867Q342 867 346 870T353 873L375 867Q376 866 401 861Q401 826 431 829L436 831H454Q469 827 473 812L482 783Z"  />
<glyph unicode="&#xD3;" horiz-adv-x="660" d="M366 29Q361 29 342 33T292 48Q275 49 239 65Q234 73 227 81T209 101Q201 109 190 117T164 143Q161 148 157 156T144 176Q144 179 142 184T137 203Q135 208 134 214T130 232Q118 265 117 298Q117 312 117 332T115 379Q112 399 110 408T108 416Q108 445 119 477T153 544Q168 568 168 580Q168 622 282 688Q290 692 300 694T324 698Q358 703 366 708H390Q437 708 448 697Q461 692 478 684T521 662Q578 621 589 576Q591 567 596 553Q601 541 606 524T619 481V462Q621 457 624 443T628 420Q628 412 625 400T621 383Q621 380 622 363T626 311Q625 308 624 304T621 294Q617 285 614 273T605 243Q600 229 599 220T593 193Q581 154 530 98Q501 68 442 50Q364 29 366 29ZM377 108Q381 108 384 108T395 111Q434 120 448 132Q449 136 455 148T475 186Q483 202 491 219T510 258Q510 261 512 277T517 324Q523 414 526 410Q524 416 521 426T513 451Q515 471 516 481T517 494Q517 502 512 510T498 531Q486 545 480 554T471 569Q468 574 466 579T461 589Q451 592 437 599T405 618Q394 626 382 626Q356 626 317 605Q309 600 300 600Q294 599 280 581T240 527Q216 489 216 481Q216 478 217 468T219 454Q219 450 217 445T212 431Q204 412 204 408Q204 376 206 343T212 271Q220 259 230 243T252 206Q257 194 261 185T271 161Q271 158 272 155T276 143Q296 108 366 108H377ZM276 819Q276 825 290 831Q299 832 305 832T318 829Q344 837 344 861Q349 861 352 862T358 863Q367 863 371 867H372Q376 867 382 869T394 871L405 867Q412 867 423 878Q428 886 433 891T441 897Q453 894 461 892T473 890Q498 890 511 912Q521 933 528 933Q532 933 547 924Q555 916 559 914T567 910Q587 901 587 881Q587 806 538 806Q522 806 518 802L501 801L492 805Q480 808 476 808T463 796Q459 795 452 785Q448 781 443 780T429 773Q413 769 395 767T355 765L332 762Q329 758 324 755T313 743Q295 743 280 755Q263 767 263 782Q263 803 276 819Z"  />
<glyph unicode="&#xD4;" horiz-adv-x="660" d="M366 29Q361 29 342 33T292 48Q275 49 239 65Q234 73 227 81T209 101Q201 109 190 117T164 143Q161 148 157 156T144 176Q144 179 142 184T137 203Q135 208 134 214T130 232Q118 265 117 298Q117 312 117 332T115 379Q112 399 110 408T108 416Q108 445 119 477T153 544Q168 568 168 580Q168 622 282 688Q290 692 300 694T324 698Q358 703 366 708H390Q437 708 448 697Q461 692 478 684T521 662Q578 621 589 576Q591 567 596 553Q601 541 606 524T619 481V462Q621 457 624 443T628 420Q628 412 625 400T621 383Q621 380 622 363T626 311Q625 308 624 304T621 294Q617 285 614 273T605 243Q600 229 599 220T593 193Q581 154 530 98Q501 68 442 50Q364 29 366 29ZM377 108Q381 108 384 108T395 111Q434 120 448 132Q449 136 455 148T475 186Q483 202 491 219T510 258Q510 261 512 277T517 324Q523 414 526 410Q524 416 521 426T513 451Q515 471 516 481T517 494Q517 502 512 510T498 531Q486 545 480 554T471 569Q468 574 466 579T461 589Q451 592 437 599T405 618Q394 626 382 626Q356 626 317 605Q309 600 300 600Q294 599 280 581T240 527Q216 489 216 481Q216 478 217 468T219 454Q219 450 217 445T212 431Q204 412 204 408Q204 376 206 343T212 271Q220 259 230 243T252 206Q257 194 261 185T271 161Q271 158 272 155T276 143Q296 108 366 108H377ZM454 946Q452 945 452 943Q452 942 458 933Q463 931 463 926Q463 927 463 925T460 915Q460 905 478 897Q497 888 497 879Q497 874 496 864T500 844Q500 818 525 812Q540 799 544 790Q544 783 545 777T540 750Q532 735 499 734Q476 734 463 742T449 768Q446 775 437 778T426 793Q417 810 417 814T418 822Q418 835 404 841Q402 843 398 849T386 863Q374 877 367 914Q365 906 359 902T347 883Q343 880 340 876T324 857L320 840Q315 836 312 832T308 822Q308 817 313 805Q311 801 309 796Q307 791 305 784T300 769Q300 735 248 735Q198 735 192 760Q190 767 187 776T177 796Q177 798 177 799T176 802V804Q176 813 205 817Q226 834 234 850Q234 854 241 864T249 877Q249 888 268 896Q288 905 288 915Q288 917 287 921T285 927Q290 935 299 944T314 963L327 971Q332 971 344 974Q351 975 354 975T362 976Q384 976 392 974Q410 974 420 973T444 963L454 946Z"  />
<glyph unicode="&#xD5;" horiz-adv-x="660" d="M366 29Q361 29 342 33T292 48Q275 49 239 65Q234 73 227 81T209 101Q201 109 190 117T164 143Q161 148 157 156T144 176Q144 179 142 184T137 203Q135 208 134 214T130 232Q118 265 117 298Q117 312 117 332T115 379Q112 399 110 408T108 416Q108 445 119 477T153 544Q168 568 168 580Q168 622 282 688Q290 692 300 694T324 698Q358 703 366 708H390Q437 708 448 697Q461 692 478 684T521 662Q578 621 589 576Q591 567 596 553Q601 541 606 524T619 481V462Q621 457 624 443T628 420Q628 412 625 400T621 383Q621 380 622 363T626 311Q625 308 624 304T621 294Q617 285 614 273T605 243Q600 229 599 220T593 193Q581 154 530 98Q501 68 442 50Q364 29 366 29ZM377 108Q381 108 384 108T395 111Q434 120 448 132Q449 136 455 148T475 186Q483 202 491 219T510 258Q510 261 512 277T517 324Q523 414 526 410Q524 416 521 426T513 451Q515 471 516 481T517 494Q517 502 512 510T498 531Q486 545 480 554T471 569Q468 574 466 579T461 589Q451 592 437 599T405 618Q394 626 382 626Q356 626 317 605Q309 600 300 600Q294 599 280 581T240 527Q216 489 216 481Q216 478 217 468T219 454Q219 450 217 445T212 431Q204 412 204 408Q204 376 206 343T212 271Q220 259 230 243T252 206Q257 194 261 185T271 161Q271 158 272 155T276 143Q296 108 366 108H377ZM285 904Q294 911 303 914T321 920T336 922T342 923Q349 923 381 909L387 893Q392 889 396 888T403 887Q406 884 407 884T409 883T413 880T422 874L434 863L446 855H463Q467 855 471 859T479 870T489 882T501 891Q505 900 510 909T524 923Q532 928 539 927T558 917Q568 913 568 901V894Q563 884 559 873T547 854Q537 844 529 834T512 821Q509 816 498 815T473 802Q465 785 450 779T424 772Q408 770 398 776T380 791L374 806L364 811Q362 807 356 812T344 816L329 827Q326 832 320 833T303 837Q292 838 287 833T269 822L260 812Q252 814 253 812T253 809Q248 809 243 804Q243 799 240 799Q237 796 227 794T213 786L194 783Q181 783 181 796Q181 799 181 804T181 816T184 827T190 835Q202 843 206 851T220 868Q228 876 236 878T253 888Q264 902 285 904Z"  />
<glyph unicode="&#xD6;" horiz-adv-x="660" d="M366 29Q361 29 342 33T292 48Q275 49 239 65Q234 73 227 81T209 101Q201 109 190 117T164 143Q161 148 157 156T144 176Q144 179 142 184T137 203Q135 208 134 214T130 232Q118 265 117 298Q117 312 117 332T115 379Q112 399 110 408T108 416Q108 445 119 477T153 544Q168 568 168 580Q168 622 282 688Q290 692 300 694T324 698Q358 703 366 708H390Q437 708 448 697Q461 692 478 684T521 662Q578 621 589 576Q591 567 596 553Q601 541 606 524T619 481V462Q621 457 624 443T628 420Q628 412 625 400T621 383Q621 380 622 363T626 311Q625 308 624 304T621 294Q617 285 614 273T605 243Q600 229 599 220T593 193Q581 154 530 98Q501 68 442 50Q364 29 366 29ZM377 108Q381 108 384 108T395 111Q434 120 448 132Q449 136 455 148T475 186Q483 202 491 219T510 258Q510 261 512 277T517 324Q523 414 526 410Q524 416 521 426T513 451Q515 471 516 481T517 494Q517 502 512 510T498 531Q486 545 480 554T471 569Q468 574 466 579T461 589Q451 592 437 599T405 618Q394 626 382 626Q356 626 317 605Q309 600 300 600Q294 599 280 581T240 527Q216 489 216 481Q216 478 217 468T219 454Q219 450 217 445T212 431Q204 412 204 408Q204 376 206 343T212 271Q220 259 230 243T252 206Q257 194 261 185T271 161Q271 158 272 155T276 143Q296 108 366 108H377ZM469 842Q469 861 497 881Q525 900 544 900Q562 900 591 883L611 851Q614 842 614 838Q614 822 604 808Q595 793 590 785T584 775Q574 762 549 762Q546 760 537 759T512 756Q488 765 482 778Q482 778 467 811V827Q467 830 468 834T469 842ZM116 819Q117 823 119 831T127 857Q139 891 182 891Q206 891 212 880Q222 876 230 870Q230 865 234 861Q234 854 237 854L243 834Q240 803 234 792Q227 782 205 768Q190 756 184 756Q157 756 132 778Q126 786 123 796T116 819Z"  />
</font>
</defs>
</svg>
